<?xml version="1.0" encoding="UTF-8"?>
<!DOCTYPE svg PUBLIC "-//W3C//DTD SVG 1.1//EN" "http://www.w3.org/Graphics/SVG/1.1/DTD/svg11.dtd">
<!-- Creator: CorelDRAW 2018 (64-Bit) -->
<svg xmlns="http://www.w3.org/2000/svg" xml:space="preserve" width="37.6445mm" height="35.626mm" version="1.1" style="shape-rendering:geometricPrecision; text-rendering:geometricPrecision; image-rendering:optimizeQuality; fill-rule:evenodd; clip-rule:evenodd"
viewBox="0 0 604.21 571.81"
 xmlns:xlink="http://www.w3.org/1999/xlink">
 <defs>
  <style type="text/css">
   <![CDATA[
    .fil0 {fill:#F8CD45}
   ]]>
  </style>
 </defs>
 <g id="РЎР_x00bb_РѕР_x2116__x0020_1">
  <metadata id="CorelCorpID_0Corel-Layer"/>
  <path class="fil0" d="M338.62 0.16c3.29,-0.88 3.98,2.05 7.16,4.41 2.95,2.18 5.05,2.61 6.89,5.24 1.67,2.38 2.47,6.07 4.41,8.54 4.87,6.21 11.29,11.34 14.87,18.45 2.02,4.01 3.6,6.88 6.89,10.74 2.09,2.46 3.79,6.03 5.79,7.44 1.88,1.31 4.58,1.81 6.06,3.03 1.29,1.06 2.02,2.96 3.3,4.68 2.68,3.59 5.68,5.8 7.45,10.47 2.91,7.71 6.4,15.98 13.21,20.39 3.66,2.36 6.26,2.71 8.55,5.79 3.59,4.84 3.98,9.66 7.16,14.33 1.47,2.16 3.4,2.64 5.79,4.4 8.41,6.23 12.63,19.47 21.49,26.18 4.08,3.09 9.71,6.42 11.56,10.19 0.6,1.21 0.62,2.74 1.11,3.86 2.01,4.66 5.57,7.38 8.54,11.29 1.06,1.4 1.35,3.17 2.47,4.13 3.23,2.76 9.12,3.44 11.03,6.61 0.82,1.38 1.02,3.29 1.65,4.68 1.02,2.22 2.64,5.23 4.41,7.16 0.97,1.06 2.67,1.31 3.85,2.48 0.72,0.71 0.8,1.91 1.65,2.76 2.71,2.67 6.46,4.19 7.73,6.61 0.69,1.35 0.59,2.92 1.1,4.13 1.22,2.95 3.52,6.15 5.5,9.37 2.25,3.6 5.4,5.13 8.82,7.71 1.35,1.03 2.43,2.76 3.85,3.86 1.45,1.11 3.44,1.73 4.69,3.03 1.76,1.83 2.34,4.81 3.86,6.89 1.22,1.68 3.25,2.35 5.22,3.86 6.25,4.74 11.18,14.44 17.36,19.01 2.58,1.91 4.81,2.76 6.61,5.23 3.15,4.32 4.87,8.61 8.81,11.3 1.76,1.2 4.13,1.45 5.51,2.75 1.69,1.59 2.76,5.69 4.12,7.99 0.86,1.43 4.41,6.7 6.34,8.54 1.59,1.51 3.87,2.12 5.24,3.58 1.75,1.86 5.38,7.25 5.51,9.09 0.35,4.88 -7.79,12.19 -11.58,15.98 -6.43,6.44 -10.96,11.11 -17.62,16.25 -4.54,3.5 -7.82,7.76 -12.67,11.3 -8.77,6.38 -15.2,15.44 -22.86,21.49 -2.08,1.64 -4.5,3.04 -6.61,4.68 -3.67,2.83 -7.08,4.7 -11.02,7.16 -2.18,1.36 -3.93,4.16 -6.34,6.06 -1.04,0.82 -2.71,1.11 -3.58,1.93 -1.08,1 -1.37,2.78 -2.21,3.86 -3.07,3.93 -7.9,7.61 -12.12,10.74 -2.73,2.03 -4.44,5.15 -7.16,7.16 -2.01,1.49 -4.84,2.56 -7.16,4.13 -1.99,1.35 -3.25,3.41 -5.23,4.41 -2.04,1.04 -4.73,1.27 -6.89,2.48 -2.2,1.24 -3.42,3.37 -5.51,4.96 -0.96,0.72 -2.37,0.95 -3.31,1.66 -3.55,2.69 -6,6.89 -9.36,9.64 -1.16,0.94 -2.86,1.53 -4.14,2.47 -1.24,0.93 -2.09,2.26 -3.3,3.03 -3.66,2.35 -7.62,3.11 -11.57,4.96 -1.71,0.8 -3.35,2.89 -4.95,4.41 -1.66,1.56 -3.68,2.65 -5.24,3.86 -2.4,1.85 -3.89,4.49 -6.34,6.06 -2.02,1.29 -4.76,2.1 -7.16,3.31 -2.26,1.12 -4.63,2.83 -6.89,3.58 -1.4,0.47 -3.17,0.25 -4.69,0.82 -3.35,1.27 -7.78,7.51 -10.74,10.47 -1.69,1.69 -3.54,3.47 -5.79,4.96 -2.21,1.46 -3.92,3.47 -5.79,4.68 -5.23,3.38 -12.95,4.8 -17.91,7.99 -3.4,2.19 -7.43,7.72 -11.56,9.64 -2.22,1.03 -4.33,1.11 -6.06,2.21 -3.42,2.16 -5.88,4.29 -8.82,7.16 -1.32,1.3 -3.19,2.09 -4.4,3.31 -3.89,3.89 -6.37,8.86 -11.3,12.12 -1.71,1.13 -4.11,2.08 -6.34,3.3 -4.38,2.42 -9.42,5.81 -15.15,7.16 -3.52,0.84 -5.81,0.44 -8.54,2.21 -4.71,3.05 -10.2,11.14 -14.33,15.15 -1.96,1.9 -6.19,4.63 -8.26,4.69 -3.74,0.09 -10.89,-6.26 -13.5,-8.82 -1.59,-1.55 -3.77,-2.52 -4.69,-3.58 -1.87,-2.14 -3,-5.66 -4.69,-8.26 -1.65,-2.56 -4.49,-4.23 -6.34,-6.61 -1.79,-2.32 -3.8,-5.17 -5.51,-7.71 -1.69,-2.52 -3.52,-5.72 -5.5,-7.72 -2.86,-2.85 -6.22,-3.67 -8.55,-7.16 -0.96,-1.44 -1.18,-3.05 -2.2,-4.68 -1.18,-1.92 -3.1,-3.49 -4.41,-5.51 -1.29,-2 -2.45,-4.24 -3.85,-6.06 -2.19,-2.86 -5.8,-5.02 -8.26,-8.27 -4.12,-5.43 -7.05,-12.36 -11.57,-17.08 -1.82,-1.89 -4.11,-3.28 -6.06,-5.23 -2.79,-2.79 -5.12,-5.39 -7.71,-8.82 -2.37,-3.13 -5.87,-5.2 -8.26,-8.26 -3.69,-4.73 -5.92,-9.23 -10.2,-13.5 -3.83,-3.83 -8.48,-7.32 -11.84,-11.57 -2.65,-3.35 -4.95,-7 -7.44,-10.47 -4.27,-5.95 -11.24,-9.96 -15.71,-15.42 -1.17,-1.44 -2,-3.44 -3.3,-4.96 -1.26,-1.47 -2.94,-2.71 -3.86,-4.14 -0.98,-1.52 -1.32,-3.38 -2.2,-4.68 -3.06,-4.51 -8.75,-7 -12.67,-11.29 -0.91,-1 -1.23,-2.57 -2.2,-3.86 -2.56,-3.37 -7.08,-6.01 -9.1,-9.09 -0.93,-1.43 -1.17,-3.16 -2.2,-4.41 -2.99,-3.64 -8.25,-5.72 -11.3,-8.82 -2.29,-2.32 -3.54,-5.9 -5.5,-8.54 -1.45,-1.94 -3.92,-3.41 -5.51,-5.51 -2.14,-2.83 -3.61,-6.33 -5.79,-8.54 -2.95,-2.99 -7.69,-5.51 -10.75,-8.54 -2.46,-2.45 -4.01,-5.91 -6.33,-8.82 -3.62,-4.53 -7.78,-7.93 -11.3,-12.67 -2.45,-3.29 -5.93,-6.81 -8.81,-9.09 -1.16,-0.91 -3.06,-1.27 -4.14,-2.48 -1.28,-1.43 -1.87,-4.6 -2.75,-6.89 -0.92,-2.37 -2.88,-5.29 -4.69,-7.71 -2,-2.69 -5.38,-4.05 -4.96,-7.99 0.18,-1.64 2.36,-4.01 4.41,-6.06 1.82,-1.82 3.24,-4.02 4.69,-5.51 0.67,-0.7 2.2,-1.09 2.75,-1.66 0.73,-0.74 1.58,-3.23 2.2,-3.86 0.77,-0.77 2.74,-1.32 3.86,-2.21 3.31,-2.62 6.02,-7.44 8.81,-8.81 0.97,-0.47 2.3,-0.34 3.31,-0.83 3.1,-1.52 5.9,-5.18 9.36,-7.71 3.49,-2.55 5.68,-6.71 9.36,-9.09 1.45,-0.94 3.24,-1.3 4.69,-2.21 3.06,-1.91 4.6,-5.13 7.16,-7.71 2.68,-2.71 6.43,-5.61 9.64,-8.82 2.88,-2.88 6.53,-7.64 9.37,-9.09 0.96,-0.5 2.11,-0.37 3.03,-0.83 2.52,-1.26 3.92,-4.35 6.06,-6.89 0.89,-1.04 2.39,-1.49 3.31,-2.48 3.23,-3.51 5.74,-7.13 9.09,-10.19 3.41,-3.12 7.93,-4.9 11.3,-7.99 2.93,-2.69 5.21,-7.86 7.71,-11.02 1.65,-2.09 4.22,-4.79 6.61,-6.34 1.59,-1.03 3.43,-1.05 4.95,-2.2 1.52,-1.15 2.06,-3.39 3.59,-5.24 2.86,-3.46 6.35,-5.69 10.19,-8.54 1.22,-0.91 2.21,-2.49 3.31,-3.03 3.9,-1.91 8.34,-2.65 11.01,-5.79 1.15,-1.34 1.42,-3.76 2.49,-4.96 0.72,-0.81 2.52,-1.45 3.85,-2.48 2.02,-1.56 3.68,-4.16 5.51,-5.51 0.93,-0.69 2.13,-0.72 3.04,-1.38 3.24,-2.33 4.88,-5.88 7.71,-7.71 3.67,-2.38 7.99,-3.25 12.11,-5.24 3.35,-1.61 5.7,-4.87 9.1,-7.44 2.55,-1.93 5.69,-3.25 7.99,-4.96 2.59,-1.93 4.3,-4.93 6.89,-6.89 2.31,-1.76 5.15,-2.74 7.44,-4.41 2.53,-1.85 4.23,-4.63 6.34,-6.61 2.41,-2.28 5.18,-3.14 7.99,-4.96 1.35,-0.87 2.28,-2.4 3.59,-3.58 1.33,-1.2 3.01,-1.72 4.4,-2.76 2.78,-2.07 5.03,-4.68 7.99,-6.06 3.46,-1.61 6.55,-1.73 9.37,-3.31 1.38,-0.77 2.37,-2.14 3.85,-3.03 0.88,-0.52 2.12,-0.48 3.04,-1.1 1.52,-1.03 2.57,-3.65 4.12,-4.41 2.74,-1.34 5.97,-1.78 8.55,-3.31 3.07,-1.82 6.01,-4.04 9.09,-6.06 2.97,-1.95 5.52,-4.61 8.54,-6.61 3.25,-2.16 7.76,-3.53 11.58,-6.06 3.48,-2.3 7.14,-5.49 10.46,-7.16 0.97,-0.48 2.34,-0.36 3.31,-0.82 3.62,-1.72 6.52,-5.59 9.91,-7.71 0.22,-0.13 0.22,-0.19 0.55,-0.28z"/>
 </g>
</svg>
