<?xml version="1.0" encoding="UTF-8"?>
<!DOCTYPE svg PUBLIC "-//W3C//DTD SVG 1.1//EN" "http://www.w3.org/Graphics/SVG/1.1/DTD/svg11.dtd">
<!-- Creator: CorelDRAW 2018 (64-Bit) -->
<svg xmlns="http://www.w3.org/2000/svg" xml:space="preserve" width="27.3159mm" height="25.8514mm" version="1.1" style="shape-rendering:geometricPrecision; text-rendering:geometricPrecision; image-rendering:optimizeQuality; fill-rule:evenodd; clip-rule:evenodd"
viewBox="0 0 6327.67 5988.42"
 xmlns:xlink="http://www.w3.org/1999/xlink">
 <defs>
  <style type="text/css">
   <![CDATA[
    .fil0 {fill:#F8CD45}
   ]]>
  </style>
 </defs>
 <g id="РЎР_x00bb_РѕР_x2116__x0020_1">
  <metadata id="CorelCorpID_0Corel-Layer"/>
  <path class="fil0" d="M3546.2 1.69c34.45,-9.2 41.72,21.5 75.03,46.17 30.92,22.84 52.84,27.36 72.11,54.83 17.54,24.86 25.94,63.56 46.21,89.42 50.96,65.05 118.21,118.79 155.78,193.29 21.15,41.95 37.69,72 72.14,112.51 21.91,25.74 39.68,63.17 60.6,77.95 19.67,13.78 47.97,18.97 63.49,31.74 13.51,11.1 21.15,30.99 34.56,49.04 28.05,37.55 59.49,60.74 78.02,109.62 30.42,80.71 66.99,167.37 138.36,213.51 38.31,24.74 65.6,28.38 89.53,60.62 37.57,50.71 41.7,101.11 75.01,150.02 15.4,22.66 35.58,27.61 60.62,46.14 88.03,65.23 132.22,203.92 225,274.11 42.72,32.38 101.69,67.25 121.11,106.74 6.25,12.67 6.51,28.7 11.65,40.4 21.03,48.83 58.35,77.25 89.42,118.26 11.14,14.73 14.13,33.2 25.9,43.27 33.82,28.86 95.55,36.02 115.48,69.26 8.64,14.45 10.63,34.49 17.28,49.02 10.63,23.23 27.66,54.78 46.19,75.01 10.15,11.14 27.94,13.78 40.33,25.99 7.53,7.39 8.39,20.04 17.28,28.86 28.42,27.98 67.62,43.9 80.89,69.24 7.25,14.08 6.14,30.55 11.51,43.27 12.79,30.92 36.83,64.37 57.61,98.13 23.56,37.74 56.61,53.7 92.43,80.75 14.13,10.77 25.41,28.86 40.31,40.38 15.15,11.65 36.07,18.16 49.09,31.76 18.42,19.16 24.55,50.34 40.47,72.14 12.76,17.58 34.05,24.65 54.72,40.38 65.49,49.64 117.07,151.2 181.82,199.1 27.03,20.04 50.34,28.86 69.24,54.78 32.94,45.26 50.96,90.16 92.31,118.33 18.39,12.53 43.18,15.17 57.73,28.82 17.63,16.59 28.91,59.6 43.2,83.72 9.01,14.96 46.19,70.17 66.34,89.39 16.66,15.84 40.58,22.24 54.85,37.5 18.3,19.48 56.36,75.89 57.73,95.25 3.64,51.08 -81.52,127.66 -121.2,167.37 -67.39,67.43 -114.83,116.38 -184.6,170.17 -47.58,36.69 -81.89,81.26 -132.73,118.33 -91.78,66.81 -159.17,161.67 -239.41,225.05 -21.8,17.14 -47.09,31.78 -69.26,49.02 -38.45,29.67 -74.13,49.2 -115.45,75.01 -22.79,14.27 -41.21,43.57 -66.37,63.49 -10.89,8.57 -28.42,11.63 -37.43,20.22 -11.28,10.52 -14.41,29.09 -23.19,40.38 -32.18,41.14 -82.77,79.71 -126.97,112.51 -28.56,21.22 -46.45,53.9 -75.01,75.01 -21.06,15.59 -50.71,26.87 -75.01,43.27 -20.8,14.15 -34.08,35.74 -54.72,46.14 -21.43,10.84 -49.6,13.27 -72.14,25.97 -23.05,12.97 -35.81,35.33 -57.73,51.91 -10.03,7.57 -24.81,9.89 -34.7,17.35 -37.18,28.17 -62.87,72.18 -98.06,101 -12.14,9.89 -29.93,16.03 -43.32,25.92 -13.02,9.71 -21.91,23.67 -34.56,31.74 -38.31,24.67 -79.76,32.57 -121.22,51.96 -17.88,8.34 -35.05,30.32 -51.84,46.14 -17.4,16.28 -38.57,27.82 -54.83,40.4 -25.18,19.41 -40.7,47 -66.37,63.49 -21.17,13.51 -49.85,22.03 -75.03,34.61 -23.65,11.79 -48.44,29.63 -72.11,37.53 -14.64,4.86 -33.2,2.62 -49.09,8.62 -35.07,13.27 -81.52,78.71 -112.44,109.64 -17.67,17.65 -37.09,36.37 -60.62,51.96 -23.16,15.34 -41.07,36.39 -60.6,49.04 -54.74,35.37 -135.63,50.2 -187.59,83.65 -35.58,22.91 -77.76,80.82 -121.11,101 -23.28,10.75 -45.33,11.58 -63.47,23.1 -35.81,22.61 -61.62,44.89 -92.43,75.01 -13.76,13.6 -33.43,21.91 -46.07,34.63 -40.7,40.7 -66.76,92.77 -118.33,126.92 -17.93,11.88 -43.09,21.84 -66.39,34.61 -45.82,25.3 -98.66,60.81 -158.66,75.01 -36.81,8.78 -60.85,4.63 -89.42,23.1 -49.32,31.94 -106.81,116.73 -150.02,158.68 -20.52,19.9 -64.86,48.51 -86.52,49.09 -39.19,1 -114.06,-65.56 -141.37,-92.36 -16.66,-16.22 -39.45,-26.41 -49.09,-37.5 -19.53,-22.42 -31.43,-59.3 -49.09,-86.54 -17.28,-26.85 -47.09,-44.24 -66.37,-69.24 -18.79,-24.3 -39.82,-54.09 -57.73,-80.78 -17.65,-26.36 -36.81,-59.9 -57.61,-80.82 -29.93,-29.86 -65.12,-38.45 -89.53,-75.01 -10.01,-15.08 -12.39,-31.92 -23.05,-49.02 -12.39,-20.11 -32.43,-36.58 -46.19,-57.73 -13.53,-20.92 -25.69,-44.41 -40.33,-63.45 -22.91,-29.93 -60.74,-52.58 -86.54,-86.59 -43.2,-56.89 -73.87,-129.47 -121.2,-178.88 -19.04,-19.78 -43.09,-34.35 -63.49,-54.78 -29.19,-29.23 -53.6,-56.41 -80.78,-92.33 -24.79,-32.82 -61.48,-54.48 -86.52,-86.54 -38.71,-49.53 -61.99,-96.62 -106.81,-141.37 -40.08,-40.14 -88.79,-76.63 -123.98,-121.22 -27.8,-35.05 -51.84,-73.25 -77.88,-109.64 -44.71,-62.29 -117.72,-104.31 -164.54,-161.53 -12.28,-15.08 -20.92,-36 -34.59,-51.91 -13.13,-15.38 -30.79,-28.42 -40.45,-43.32 -10.26,-15.96 -13.76,-35.37 -23.03,-49.02 -32.06,-47.21 -91.66,-73.32 -132.73,-118.28 -9.52,-10.45 -12.9,-26.94 -23.05,-40.45 -26.8,-35.26 -74.15,-62.99 -95.3,-95.18 -9.78,-15.01 -12.28,-33.1 -23.05,-46.14 -31.3,-38.06 -86.38,-59.86 -118.33,-92.33 -23.93,-24.37 -37.06,-61.8 -57.61,-89.42 -15.15,-20.29 -41.07,-35.77 -57.7,-57.73 -22.45,-29.63 -37.83,-66.32 -60.62,-89.42 -30.92,-31.32 -80.52,-57.73 -112.58,-89.46 -25.78,-25.62 -41.95,-61.87 -66.23,-92.36 -37.94,-47.46 -81.54,-83.09 -118.35,-132.69 -25.67,-34.49 -62.1,-71.3 -92.29,-95.21 -12.14,-9.59 -32.06,-13.3 -43.32,-25.99 -13.41,-15.03 -19.55,-48.23 -28.82,-72.14 -9.64,-24.79 -30.18,-55.34 -49.09,-80.78 -20.92,-28.1 -56.36,-42.37 -51.96,-83.65 1.88,-17.14 24.74,-42 46.21,-63.47 19.09,-19.11 33.91,-42.09 49.09,-57.68 7.02,-7.39 23.03,-11.47 28.79,-17.35 7.62,-7.76 16.54,-33.87 23.05,-40.38 8.02,-8.02 28.65,-13.76 40.45,-23.1 34.68,-27.43 62.99,-77.9 92.29,-92.29 10.12,-4.96 24.02,-3.52 34.68,-8.71 32.43,-15.91 61.73,-54.28 98.06,-80.78 36.55,-26.66 59.46,-70.24 98.03,-95.16 15.17,-9.82 33.96,-13.6 49.09,-23.1 32.06,-20.06 48.23,-53.74 75.03,-80.78 28.03,-28.38 67.36,-58.79 100.93,-92.36 30.18,-30.11 68.36,-80.03 98.17,-95.16 10.01,-5.21 22.03,-3.89 31.67,-8.71 26.43,-13.16 41.07,-45.59 63.49,-72.14 9.27,-10.96 25.04,-15.59 34.68,-25.97 33.82,-36.72 60.11,-74.71 95.18,-106.7 35.67,-32.64 83.02,-51.36 118.35,-83.72 30.67,-28.17 54.58,-82.33 80.75,-115.38 17.28,-21.91 44.22,-50.22 69.26,-66.39 16.66,-10.77 35.93,-10.93 51.84,-23.03 15.89,-12.09 21.54,-35.51 37.57,-54.85 29.93,-36.18 66.48,-59.56 106.67,-89.42 12.76,-9.52 23.16,-26.11 34.68,-31.74 40.84,-20.04 87.4,-27.8 115.34,-60.62 12.02,-14.06 14.89,-39.36 26.04,-51.89 7.53,-8.52 26.43,-15.22 40.33,-25.99 21.17,-16.28 38.57,-43.53 57.73,-57.73 9.78,-7.2 22.28,-7.57 31.81,-14.39 33.94,-24.37 51.1,-61.62 80.78,-80.78 38.43,-24.93 83.65,-34.08 126.85,-54.85 35.07,-16.84 59.74,-50.96 95.3,-77.88 26.66,-20.18 59.6,-34.08 83.65,-51.91 27.17,-20.22 45.08,-51.66 72.14,-72.14 24.16,-18.42 53.97,-28.68 77.88,-46.21 26.55,-19.39 44.34,-48.44 66.37,-69.24 25.3,-23.86 54.23,-32.94 83.65,-51.91 14.15,-9.13 23.91,-25.16 37.57,-37.5 13.9,-12.58 31.55,-18.02 46.07,-28.86 29.19,-21.66 52.72,-48.95 83.65,-63.47 36.18,-16.84 68.64,-18.09 98.17,-34.63 14.41,-8.02 24.81,-22.42 40.33,-31.76 9.27,-5.44 22.17,-4.98 31.81,-11.51 15.91,-10.82 26.92,-38.2 43.2,-46.14 28.68,-14.01 62.48,-18.65 89.53,-34.61 32.2,-19.04 62.99,-42.28 95.18,-63.49 31.04,-20.48 57.84,-48.28 89.39,-69.26 34.08,-22.59 81.29,-36.99 121.22,-63.47 36.44,-24.11 74.78,-57.54 109.57,-75.01 10.15,-5.03 24.55,-3.82 34.7,-8.64 37.94,-18.05 68.24,-58.56 103.8,-80.78 2.25,-1.37 2.25,-1.95 5.74,-2.9z"/>
 </g>
</svg>
