<?xml version="1.0" encoding="UTF-8"?>
<!DOCTYPE svg PUBLIC "-//W3C//DTD SVG 1.1//EN" "http://www.w3.org/Graphics/SVG/1.1/DTD/svg11.dtd">
<!-- Creator: CorelDRAW 2018 (64-Bit) -->
<svg xmlns="http://www.w3.org/2000/svg" xml:space="preserve" width="52.7155mm" height="64.1457mm" version="1.1" style="shape-rendering:geometricPrecision; text-rendering:geometricPrecision; image-rendering:optimizeQuality; fill-rule:evenodd; clip-rule:evenodd"
viewBox="0 0 2829.44 3442.94"
 xmlns:xlink="http://www.w3.org/1999/xlink">
 <defs>
  <style type="text/css">
   <![CDATA[
    .fil2 {fill:#EB1A2D}
    .fil4 {fill:#EF4946}
    .fil1 {fill:#F8CD45}
    .fil3 {fill:white}
    .fil0 {fill:black}
   ]]>
  </style>
 </defs>
 <g id="РЎР_x00bb_РѕР_x2116__x0020_1">
  <metadata id="CorelCorpID_0Corel-Layer"/>
  <g id="_2714277299168">
   <g>
    <g>
     <path class="fil0" d="M2143.53 0.31c13.46,-3.06 34.38,17.19 42.13,27.42 4.09,5.41 6.85,10.18 11.35,14.7 7.51,7.51 11.49,12.8 17.38,20.73 10.33,13.85 23.73,21.57 32.09,33.43 4.81,6.82 9.17,12.95 13.38,19.38 4.47,6.79 7.02,12.89 11.37,21.4 8.53,16.65 34.53,31.47 46.13,46.79 1.42,1.88 2.64,5.53 4,7.35 6.3,8.48 14.94,15.06 21.38,24.74 3.16,4.76 5.8,9.69 8.71,14.71 2.84,4.98 7.19,8.29 10.01,12.7 2.27,3.51 2.96,8.05 5.37,11.37 2.35,3.29 6.76,4.47 9.34,7.35 12.39,13.75 23.77,29.55 35.43,44.79 11.64,15.19 26.43,24.31 36.76,40.12 2.17,3.32 2.12,7.18 4.03,10.69 2.03,3.76 8.27,5.31 11.35,8.69 2.12,2.31 3.28,5.98 5.37,8.69 9.4,12.19 24.89,21.96 34.09,34.09 5.57,7.39 8.56,15.02 14.71,21.4 17.18,17.83 34.5,36.47 50.14,57.49 4.06,5.49 10.07,10.13 14.68,16.05 13.23,16.82 30.85,31.28 42.8,49.47 2.67,4.05 3.71,9.46 6.67,13.36 5.2,6.82 17.21,10.44 24.75,17.38 3.05,2.82 4.62,7.01 7.34,10.71 3.51,4.71 9.05,8.07 12.7,12.69 2.15,2.7 2.88,5.94 4.67,8.02 2.64,3.04 6.38,3.8 9.37,6.69 2.93,2.84 4.5,7.73 7.34,10.69 3.75,3.88 9.34,5.38 12.71,8.7 2.84,2.77 3.51,6.66 6.04,10.02 7.4,9.98 19.9,16.96 28.06,28.09 4.52,6.17 7.51,11.5 12.04,16.05 4.82,4.81 11.12,7.11 16.05,12.02 2,2.02 3.71,6.37 6.01,9.36 4.61,5.96 11.95,10.55 14.04,14.71 1.34,2.66 0.96,5.32 2,7.36 3.17,6.16 10.89,9.81 15.38,16.71 2,3.06 2.58,7.17 4.67,10.69 3.66,6.17 9.4,10.2 10.71,17.38 0.64,3.47 -0.49,7.46 0,11.37 0.61,4.73 3.66,8.07 3.34,12.7 -0.2,3.22 -3.51,5.1 -6.01,10.69 -1.88,4.22 -1.42,7.62 -4,10.71 -3.1,3.67 -8.65,4.63 -12.04,8.02 -2.88,2.86 -4.62,8.27 -8.04,12.03 -3.08,3.42 -7.43,6.09 -10.01,9.36 -2.09,2.64 -2.93,6.27 -5.34,8.69 -2.32,2.31 -6.38,3.03 -8.71,5.36 -2.41,2.4 -3.34,6.8 -6.01,9.36 -2.41,2.27 -6.53,3.06 -8.71,5.35 -2.09,2.19 -2.58,6.01 -4.67,8.69 -4.96,6.33 -14.05,15.73 -20.72,20.05 -9.17,5.93 -17.9,8.7 -24.08,16.71 -4.5,5.83 -6.15,10.77 -10.01,14.71 -8.67,8.83 -21.99,16.58 -32.76,24.73 -6.47,4.88 -10.33,12.67 -16.71,17.38 -7.13,5.22 -15.2,8.02 -21.41,13.38 -5.97,5.15 -10.39,12.11 -16.71,17.37 -2.26,1.89 -5.68,2.73 -8.01,4.67 -7.86,6.56 -15.69,17.44 -24.08,24.07 -2.52,2.02 -6.07,2.71 -8.67,4.69 -3.74,2.83 -4.99,8.62 -8.71,11.36 -2.23,1.66 -6.59,1.62 -9.34,3.33 -12.91,7.99 -20.83,25.46 -32.76,32.09 -2.53,1.41 -5.6,0.9 -8.04,2 -2.67,1.22 -5.72,4.34 -8.67,6.02 -3.17,1.81 -6.88,3.08 -9.37,4.69 -4.99,3.22 -8.21,9.36 -13.38,12.69 -3.45,2.23 -7.84,3.16 -11.35,5.35 -9.78,6.11 -18.45,17.11 -29.42,25.4 -5.69,4.31 -12.89,6.48 -18.05,10.69 -2.96,2.41 -4.2,6.93 -7.34,9.36 -7.37,5.69 -17.21,7.28 -24.75,12.04 -7.43,4.69 -15.53,9.78 -21.38,14.71 -2.53,2.1 -4.15,5.86 -6.7,8.01 -4.91,4.18 -12.97,7.8 -19.39,12.04 -6.3,4.19 -12.76,9.71 -18.71,12.69 -7.86,3.93 -17.27,5.38 -25.39,9.36 -7.14,3.48 -11.58,12.75 -18.74,18.06 -2.15,1.6 -5.11,1.73 -7.34,3.34 -7.98,5.72 -12.62,14.88 -19.38,19.38 -2.52,1.7 -7.11,2.57 -10.71,4.69 -3.31,1.96 -5.89,5.44 -8.67,6.69 -15.79,6.99 -27.07,9.4 -37.46,18.72 -5.49,4.94 -11.4,13.16 -19.38,16.71 -5.8,2.6 -11.66,2.38 -16.71,4.69 -3.75,1.7 -7.95,6.11 -12.68,9.36 -8.15,5.56 -12.33,9.95 -18.74,16.71 -2.27,2.4 -5.4,3.56 -8.01,6 -2.23,2.1 -3.05,5.96 -5.34,8.02 -6.88,6.12 -17.12,10.38 -26.75,16.71 -9.02,5.96 -15.79,13.72 -26.09,16.71 -2.93,0.87 -6.44,0.35 -9.34,1.34 -4.64,1.61 -10.36,6.67 -15.38,9.37 -5.43,2.9 -11.29,6.53 -14.71,9.36 -2.61,2.16 -3.54,5.63 -6.01,8.02 -5.63,5.45 -13.64,8.5 -19.38,13.36 -3.08,2.6 -4.27,7.69 -6.7,10.03 -5.05,4.87 -11.89,6.46 -16.05,12.04 -4.12,5.57 -9.05,18.61 -9.34,24.74 -0.32,6.66 3.66,14.4 2.67,22.73 -0.64,5.32 -4.58,10.9 -6.03,17.38 -0.7,3.16 -0.06,6.81 -0.67,10.03 -0.63,3.57 -2.84,6.97 -3.33,10.69 -1.3,10.24 1.51,20.94 0,31.43 -2.67,18.66 -12.94,37.91 -10.68,55.49 0.49,3.88 3.25,7.75 3.34,11.36 0.05,3.2 -2.67,6.41 -3.34,10.69 -0.49,3.04 0.49,6.67 0,9.36 -1.72,8.91 -8.3,17.11 -8.71,25.4 -0.26,5.73 1.88,10.2 1.33,15.38 -0.38,3.45 -2.69,6.64 -3.33,10.69 -0.72,4.63 0.72,9.53 0,14.71 -0.9,6.38 -5.14,12.74 -6.67,20.05 -0.96,4.47 0.03,8.85 -0.7,13.38 -0.47,3.16 -2.84,6.1 -3.34,9.37 -1.3,8.88 1.69,18.28 0,26.72 -0.81,4.21 -4.58,8.01 -6.01,12.71 -0.93,3.02 -0.52,6.24 -1.33,9.37 -3.63,14.07 -11.7,28.46 -14.05,43.43 -1.68,10.77 1.48,20.51 0,32.09 -1.01,8.07 -4.44,16.83 -6.67,27.42 -2.79,13.03 1.74,27.34 -0.67,39.43 -1.8,8.96 -8.21,16.04 -10.04,24.75 -0.9,4.29 0.06,8.88 -0.67,13.35 -0.53,3.37 -2.88,6.64 -3.34,10.04 -0.64,4.52 0.67,9.29 0,14.05 -0.43,3.08 -2.76,5.8 -3.34,8.67 -1.88,9.31 -2.2,18.68 -4.03,28.09 -1.65,8.65 -7.72,15.81 -10.01,24.75 -3.1,12.04 1.13,26.03 -0.67,38.76 -0.53,3.69 -2.84,6.96 -3.37,10.68 -0.55,4.27 0.52,8.65 0,12.71 -0.43,3.69 -2.7,6.44 -3.34,10.04 -0.58,3.45 0.41,7.22 0,10.68 -1.45,12.27 -8.3,23.59 -10.68,35.46 -2.2,10.91 -1.94,22.25 -4.03,32.75 -0.9,4.5 -4.78,8.48 -6.01,12.68 -2,6.91 -3.19,15.15 -5.34,22.75 -1.48,5.16 -5.51,10.13 -6.03,14.71 -0.55,5.05 2.61,7.75 2.67,12.68 0.05,2.84 -2.21,5.51 -2.67,8.71 -0.49,3.45 0.35,7.22 0,10.01 -0.52,4.58 -3.37,8.88 -4,14.04 -1.71,14.3 -2.32,36.99 0.67,49.47 2.27,9.43 8.56,17.47 13.38,24.75 3.92,5.92 14.66,12.1 17.38,20.72 5.05,15.98 0.64,46.25 -3.34,55.48 -3.8,8.79 -13.98,15.38 -13.38,24.75 0.7,10.79 9.19,16.86 10.7,26.05 4.15,25.8 -4,47.07 -14.71,62.18 -5.39,7.57 -12.88,13.14 -17.38,20.71 -4.09,6.88 -3.77,16.34 -8.71,25.42 -4.03,7.48 -12.76,13.03 -20.05,18.72 -7.31,5.68 -18.78,10.97 -26.09,16.71 -8.36,6.55 -7.22,23.82 -9.34,38.09 -1.3,8.79 -6.15,16.98 -7.37,24.75 -1.94,12.68 1.57,26.26 0,38.77 -1.65,13.32 -8.38,30.35 -10.68,43.46 -2.84,16.31 -4.09,32.9 -7.37,48.81 -1.51,7.28 -5.31,14.36 -6.68,21.38 -1.77,9.2 -2.32,18.25 -4,27.39 -0.61,3.28 -2.84,6.15 -3.36,9.37 -1.63,10.71 -1.74,21.38 -3.34,32.09 -1.77,12.07 -8.85,22.98 -10.68,34.76 -0.53,3.31 0.34,6.88 0,10.04 -0.53,4.64 -3.37,8.68 -4.04,13.35 -0.75,5.39 0.84,11.34 0,17.38 -0.47,3.39 -2.87,7.05 -3.34,10.04 -1.04,6.9 0.84,13.92 0,20.71 -0.43,3.66 -2.79,7.05 -3.33,10.71 -0.58,3.75 0.55,7.6 0,11.37 -1.42,9.55 -5.69,18.49 -7.34,28.06 -2.52,14.42 -1.22,29.57 -3.37,43.47 -0.64,4.23 -3.16,7.43 -3.34,11.37 -0.2,4.99 3.22,8.85 3.34,14.69 0.09,4.09 -2.7,14.1 -4.67,19.41 -1.92,5.14 -10.16,8.61 -10.71,14.01 -0.29,3.19 3.77,11.43 5.37,14.71 3.74,7.75 14.8,23.47 16.71,34.09 1.86,10.42 1.45,24.29 0,34.76 -1.57,11.34 -6.27,30.18 -14.71,36.12 -3.63,2.52 -17.12,5.77 -15.38,11.34 0.99,3.19 20.8,4.06 30.76,2.67 3.83,-0.52 6.96,-2.9 9.34,-3.34 10.12,-1.74 20.54,1.25 29.42,0 9.05,-1.28 16.94,-6.01 24.75,-7.34 3.89,-0.67 7.72,0.49 11.35,0 7.22,-1.02 15.15,-4.88 22.75,-6.7 2.64,-0.61 6.24,0.17 8.68,-0.67 5.57,-1.88 8.79,-9.75 14.71,-12.68 4.88,-2.44 11.52,-5.05 17.38,-7.37 5.92,-2.32 13,-5.66 18.72,-7.34 9.63,-2.88 19.38,-3.08 29.42,-4.7 13.87,-2.21 9.37,-16.31 18.72,-22.72 0.49,-0.35 16.6,-3.54 14.71,-6.67 -1.74,-2.9 -23.59,-1.57 -30.09,-0.67 -3.28,0.43 -6.12,2.78 -9.34,3.33 -9.81,1.68 -19.53,1.62 -28.75,4 -9.14,2.35 -15.93,6.35 -24.08,7.37 -5.57,0.67 -12.04,10.18 -16.04,12.68 -7.69,4.85 -19.3,10.07 -31.39,7.37 -11.72,-2.61 -26.28,-12.42 -32.09,-18.72 -9.58,-10.42 -8.76,-27.07 4.67,-34.09 2.9,-1.54 6.12,-1.45 9.37,-2.7 5.39,-2.06 10.24,-6.85 16.02,-8.67 7.4,-2.35 15.26,-3.54 22.75,-6.01 13.72,-4.56 28.15,-9.84 43.43,-14.71 10.94,-3.51 18.14,-6.24 29.42,-9.37 20.52,-5.66 35.14,-17.81 57.51,-13.38 5.2,1.05 13.43,5.37 17.38,8.71 7.86,6.64 10.5,19.44 20.72,22.71 9.6,3.08 20.42,-2.35 28.08,-3.33 3.48,-0.47 7.03,0.58 10.68,0 2.69,-0.43 5.37,-2.84 8.03,-3.34 7.92,-1.51 16.34,-1.98 24.72,-4 5.89,-1.45 11,-2.09 20.05,-3.37 12.36,-1.74 28.17,-7.37 41.46,-10.01 11.95,-2.38 35.72,-3.74 46.8,0.67 8.07,3.19 21.21,20.98 2.67,23.39 -8.3,1.08 -17.44,-2.61 -26.75,-1.33 -3.45,0.49 -6.74,2.84 -10.01,3.33 -4.85,0.76 -9.34,-0.61 -14.05,0 -7.37,0.99 -19.67,6.47 -26.08,7.37 -4.56,0.64 -11.52,-0.82 -17.38,0 -18.54,2.55 -34.21,12.01 -54.81,12.68 -6.99,0.26 -13.32,3.42 -20.05,4.7 -9.63,1.83 -14.92,2.18 -25.42,4.01 -1.94,0.34 -12.13,2.87 -18.05,4 1.74,-0.32 -4.41,-0.53 -4,2.67 0.47,3.63 29.74,2.03 35.42,2.03 25.42,0 48.92,-2.96 65.51,4.67 4.82,2.2 7.63,7.51 14.05,9.34 2.58,0.76 6.67,0 10.68,0.67 2.61,0.46 6.04,2.75 10.04,3.37 14.77,2.27 37.23,-4.18 41.44,7.34 2.09,5.66 -2.75,10.79 -2.67,15.37 0.23,8.68 9.4,14.25 6.7,25.39 -1.25,5.17 -11.34,12.74 -18.71,14.05 -5.37,0.96 -11.17,-0.55 -16.71,0 -6.41,0.67 -13.4,2.55 -21.42,4.03 -7.66,1.4 -18.16,5.63 -24.72,6.01 -2.27,0.12 -7.17,-3.02 -9.37,-2 -4.06,1.83 -8.62,2 -15.38,3.34 -3.89,0.75 -7.75,2.93 -10.68,3.34 -16.27,2.29 -29.68,-4.99 -30.08,-11.35 -0.3,-4.85 5.95,-11.06 11.37,-12.04 6.44,-1.19 10.99,3.27 15.38,3.33 2.81,0.03 5.6,-2.61 10.01,-3.33 10.1,-1.66 24.46,0.4 32.76,0 2.67,-0.15 5.8,-2.7 10.04,-3.34 12.71,-1.94 31.05,-2.09 31.43,-8.03 0.32,-5.37 -25.68,-9.26 -33.43,-9.34 -21.5,-0.26 -47.06,4.67 -70.22,4.67 -9.25,0 -22.11,6.32 -31.42,7.34 -3.86,0.43 -8.85,6.18 -12.68,8.03 -7.86,3.77 -14.42,4.47 -25.41,6.01 -2.87,0.41 -5.1,2.76 -8.01,3.34 -2.96,0.61 -6.35,-0.43 -9.37,0 -9.11,1.36 -18.1,5.6 -27.39,7.37 -2.9,0.55 -6.21,-0.55 -9.37,0 -6.96,1.16 -13.7,6.27 -20.72,7.34 -5.74,0.9 -12.04,-0.82 -18.05,0 -3.4,0.46 -6.53,2.81 -10.04,3.33 -3.33,0.53 -7.25,-0.46 -10.71,0 -4,0.58 -6.03,2.79 -9.34,3.37 -3.92,0.67 -7.95,-0.49 -11.37,0 -5.05,0.7 -8.94,3.52 -12.71,4.01 -3.57,0.46 -6.96,-0.41 -10.01,0 -3.66,0.49 -6.61,2.81 -10.04,3.33 -4.79,0.72 -9.31,-0.82 -14.71,0 -4.44,0.7 -9.34,2.17 -16.71,3.34 -13.2,2.11 -25.33,9.66 -38.09,7.37 -8.45,-1.54 -18.34,-9.69 -21.38,-16.71 -1.48,-3.39 -1.4,-10.21 -4,-11.37 -2.9,-1.28 -18.66,4.96 -24.75,8.01 -6.78,3.42 -15.69,8.3 -22.72,9.37 -9.8,1.51 -19.41,-1.3 -28.75,0 -11.46,1.59 -20.52,6.7 -30.76,7.34 -4.61,0.32 -8.38,-2.5 -13.38,-2.67 -7.08,-0.23 -13.9,4.04 -20.71,4.04 -6.24,-0.03 -13.26,-4.06 -19.38,-4.04 -3.37,0.03 -7.23,2.35 -10.71,2.67 -15.64,1.48 -29.57,-8.7 -43.44,-7.34 -15.32,1.51 -35.92,14.19 -49.47,22.05 -6.18,3.6 -11.17,8.82 -18.72,10.04 -3.89,0.61 -7.72,-0.55 -11.37,0 -2.99,0.47 -5.67,2.82 -8.69,3.34 -3.6,0.64 -7.75,-0.46 -11.37,0 -4.4,0.59 -7.99,3.4 -12.03,4 -11.93,1.86 -30.16,1.98 -42.78,0 -4.12,-0.64 -7.92,-3.51 -12.04,-4 -7.46,-0.87 -12.84,2.9 -20.72,4 -12.58,1.77 -31.91,1.94 -46.13,-0.67 -4.22,-0.75 -7.21,-3.34 -12.03,-3.34 -15.3,0 -32.15,-0.23 -49.47,2.67 -17.87,3.02 -35.15,-0.38 -49.47,0 -5.73,0.17 -10.6,3.8 -16.05,4.7 -9.37,1.54 -25.42,1.56 -36.76,0 -7.88,-1.11 -14.07,-5.54 -22.07,-5.37 -8.26,0.18 -16.2,2 -25.4,2 -18.57,0 -38.1,-1.88 -54.81,0 -3.08,0.35 -6.33,2.61 -9.37,2.7 -2.57,0.03 -6,-2.26 -9.36,-2.7 -3.22,-0.4 -6.48,0.38 -9.36,0 -4.58,-0.55 -8.52,-3.39 -12.69,-4 -4.64,-0.67 -9.3,0.67 -14.05,0 -7.46,-1.01 -14.74,-5.19 -22.73,-6.67 -5.74,-1.07 -14.04,0.06 -20.72,0 -6.61,-0.09 -12.81,-2.61 -18.05,-2.67 -6.53,-0.12 -9.36,3.74 -16.71,2.67 -2.66,-0.4 -4.94,-2.61 -8.02,-3.34 -2.95,-0.72 -6.56,-0.14 -8.69,-0.67 -3.8,-0.96 -7.14,-5.25 -11.37,-6.04 -3.64,-0.67 -6.41,1.43 -9.36,0.67 -1.9,-0.46 -4.69,-4.06 -8.02,-5.34 -8.2,-3.19 -21.63,-10.59 -30.74,-10.7 -4.06,-0.06 -8.54,3.33 -13.38,4 -23.84,3.37 -56.7,-3.42 -81.56,0 -4.28,0.61 -7.46,2.96 -11.36,3.37 -6.27,0.64 -10.49,-3.28 -16.71,-3.37 -5.37,-0.05 -6.17,3.17 -10.03,3.37 -3.32,0.17 -6.06,-2.29 -9.36,-2.67 -16.93,-2.07 -44.84,2.32 -50.82,-14.71 -5.99,-17.09 15.35,-26.95 28.09,-30.09 9.23,-2.27 15.19,-2.15 25.4,-4.67 11.78,-2.93 21.75,-6.79 31.43,-10.7 10.66,-4.33 -4.79,-3.71 -11.37,-4.67 -3.15,-0.47 -7.32,-3.46 -10.69,-4.04 -19.48,-3.28 -42.93,3.02 -62.16,0 -4.29,-0.67 -11.61,-5.31 -18.73,-6.67 -10.06,-1.94 -19.05,-2.29 -21.38,-10.71 -4.76,-17.09 6.41,-16.57 20.05,-20.72 8.43,-2.55 10.66,-7.6 22.07,-6.01 4.28,0.59 6.59,2.87 10.03,3.34 6.98,0.96 9.6,-2.15 16.04,-3.34 2.95,-0.55 5.92,0.41 8.69,0 7.33,-1.07 13.03,-5.95 20.72,-7.37 3.13,-0.55 6.02,0.47 8.69,0 5.74,-0.96 9.33,-5.14 14.71,-6.67 9.45,-2.7 17.55,-4.53 26.07,-7.37 4.45,-1.45 23.43,-8.01 23.4,-10.01 -0.06,-4.12 -11.3,-2.7 -11.36,-2.67 -4.56,0.61 -5.15,2.69 -9.36,3.33 -4.35,0.67 -6.54,-0.55 -10.71,0 -7.6,1.02 -16.92,6.04 -25.4,7.34 -3.63,0.58 -7.79,-0.38 -10.69,0 -5.24,0.7 -9.62,2.4 -16.71,4.03 -5.61,1.28 -11.17,2.15 -17.37,3.34 -4.78,0.9 -8.97,2.23 -16.71,3.34 -12.6,1.79 -25.3,8.76 -38.78,10.71 -3.92,0.55 -7.78,-0.55 -11.36,0 -2.99,0.43 -5.57,2.72 -8.69,3.33 -8.65,1.68 -16.6,1.94 -24.74,4 -3.51,0.9 -6.38,3.66 -10.02,4.67 -8.53,2.41 -17.57,0.73 -26.74,2 -3.71,0.53 -7.17,3.34 -11.37,4.04 -7.66,1.22 -24.53,1.1 -30.74,-0.67 -9.76,-2.78 -14.12,-12.59 -30.76,-10.04 -8.69,1.33 -19,5.34 -25.4,10.04 -6.86,5.02 -9.11,15.67 -17.37,18.05 -2.58,0.72 -6.26,-0.43 -9.36,0 -3.67,0.49 -7.17,3.31 -9.37,3.33 -3.16,0.03 -5.79,-2.75 -9.36,-2.67 -3.28,0.06 -6.41,2.7 -11.36,3.34 -8.42,1.1 -17.07,-2.55 -25.4,-2.67 -3.11,-0.06 -12.42,1.33 -18.72,2.67 -9.05,1.94 -23.32,11.6 -34.76,17.38 -5.69,2.87 -11.49,5.68 -18.06,8.03 -6.35,2.27 -10.35,6.82 -16.04,9.34 -2.69,1.22 -6.7,1.25 -10.02,2.67 -2.79,1.22 -5.36,3.92 -8.02,4.7 -3.48,1.01 -7.39,0.32 -10.69,1.34 -13.58,4.12 -23.62,12.99 -40.12,16.71 -4.94,1.11 -9.81,3.4 -14.03,4.01 -18.32,2.58 -32.39,-1.28 -46.8,-9.38 -5.39,-3.02 -11.42,-10.06 -8.02,-18.72 2.67,-6.76 18.36,-10.82 28.74,-13.38 4.83,-1.16 9.01,-4.96 14.04,-6.67 5.32,-1.83 10.91,-2.64 16.71,-4 5.31,-1.25 9.33,-2 17.38,-3.33 13.32,-2.24 26.06,-8.45 38.11,-10.71 3.52,-0.67 7.31,0.14 10.69,-0.67 4.12,-1.02 8.81,-4.15 14.05,-6.04 4.83,-1.71 10.72,-2.87 14.7,-4.67 6.69,-3.02 14.9,-9.29 22.07,-12.71 14.51,-6.88 30.11,-13.11 45.47,-20.72 13.45,-6.67 29.27,-16.45 46.12,-19.38 8.13,-1.42 17.54,1.42 26.74,0 2.3,-0.35 5.19,-2.73 8.69,-3.33 3.83,-0.67 8.37,0.75 12.71,0 11.62,-2.03 24.78,-10.56 40.11,-14.05 7.53,-1.71 15.19,-2.32 22.72,-4 9.4,-2.12 16.51,-4.9 27.42,-7.37 17.4,-3.91 32.22,-19.55 54.15,-13.34 5.17,1.45 9.4,5.63 10.69,9.34 2.99,8.5 -4.69,15.93 -2.67,22.05 2.17,6.62 21.44,2.03 30.09,0 16.04,-3.71 32.74,-9.4 41.45,-10.68 4.07,-0.61 8.65,0.41 11.36,0 9.2,-1.42 23.74,-8.91 34.09,-10.71 3.55,-0.61 10.73,0.53 14.71,0 8.6,-1.13 17.48,-6.15 26.73,-7.34 5.66,-0.76 11.3,0.72 16.71,0 8.07,-1.11 13.96,-4.58 22.07,-3.37 17.41,2.67 39.72,12.48 37.43,35.46 -1.11,11.02 -17.76,18.62 -26.74,26.05 -2.13,1.77 -12.34,7.51 -12.02,10.71 1.07,11.05 40.78,4.99 46.78,2 5.6,-2.79 8.68,-11.75 15.38,-18.72 6.15,-6.41 17.25,-17.32 24.73,-19.38 3.04,-0.84 6.35,0.87 12.03,-0.67 4.26,-1.19 8.34,-6.59 12.04,-10.71 3.69,-4.1 5.86,-10.5 9.36,-12.71 5.31,-3.34 15.04,-3.34 24.07,-5.34 10.39,-2.32 17.6,-11.08 24.74,-13.38 5.67,-1.8 11.44,-1.36 17.38,-3.33 5.29,-1.77 11.05,-2.52 16.04,-4.67 3.61,-1.56 6.32,-4.99 10.03,-6.03 3.26,-0.93 7.37,0.17 10.69,-0.67 8.59,-2.18 20.25,-18.14 24.07,-26.72 2.52,-5.69 2.89,-11.66 4.69,-18.74 2.91,-11.55 11.75,-35.29 6.01,-53.48 -1.61,-5.14 -8.52,-10.01 -14.03,-16.71 -7.44,-9 -11.17,-19.15 -24.07,-21.38 -13.74,-2.38 -25.74,1.19 -34.76,-4.67 -7.31,-4.76 -10.71,-14.63 -16.71,-15.38 -5.65,-0.72 -10.64,6.44 -16.04,9.34 -8.56,4.64 -23.17,6.47 -34.76,14.71 -15.13,10.77 -23.07,21.01 -44.8,24.08 -6.6,0.93 -14.71,-0.67 -19.38,0.67 -5.79,1.63 -8.14,5.54 -14.04,8.01 -7.44,3.13 -18.03,3.66 -26.74,6.03 -5.5,1.48 -9.56,5.98 -12.69,6.68 -2.47,0.55 -6.3,-0.43 -9.38,0 -13.63,1.97 -23.35,8.85 -36.76,8.67 -15.03,-0.17 -30.77,-8.01 -36.09,-20.05 -0.94,-2.09 -2.05,-8.09 -4.69,-8.68 -4.5,-0.98 -16.37,13.14 -18.05,15.38 -3.82,5.02 -6.91,12.16 -14.04,17.38 -10.17,7.4 -35.43,15.32 -28.74,-10.71 1.86,-7.22 15.6,-13.81 21.38,-19.38 5.4,-5.2 9.16,-11.46 14.71,-17.38 2.18,-2.32 5.16,-2.99 7.35,-5.34 5.59,-6.01 9.71,-14.59 15.38,-22.08 2.65,-3.52 7.33,-5.81 10.02,-9.34 8.21,-10.85 17.15,-24.41 28.07,-32.09 2.77,-1.94 7.14,-3.22 10.71,-5.37 3.6,-2.15 7.17,-5.2 10.03,-6.01 8.37,-2.41 24.34,0.7 34.09,-0.67 2.8,-0.38 6.11,-2.73 10.03,-3.34 6.6,-1.01 14.47,0.96 21.4,0 3.03,-0.43 5.82,-2.47 9.36,-3.34 14.12,-3.54 32.53,-6.32 44.79,-12.04 2.15,-0.99 4.28,-3.92 7.36,-5.34 12.58,-5.86 31.91,-7.08 29.42,-26.75 -0.86,-6.67 -4.8,-15.58 -7.35,-26.09 -2.99,-12.24 -4.95,-25.56 -6.69,-37.43 -3.93,-26.64 4.22,-44.57 10.02,-63.51 0.82,-2.65 3.18,-6.82 1.34,-10.01 -3.64,-6.35 -21.01,-1.02 -26.07,1.33 -6.02,2.79 -7.85,8.56 -12.69,12.04 -4.34,3.1 -10.29,4.78 -14.71,8.67 -4.6,4.06 -7.04,10.77 -12.04,14.71 -5.85,4.64 -11.59,7.57 -16.71,12.7 -4.92,4.91 -9.65,9.9 -14.7,14.71 -14.64,13.87 -45.89,24.93 -74.2,18.05 -7.56,-1.83 -13.93,-7.14 -21.4,-10.71 -26.23,-12.54 -65.62,-6.04 -57.5,-56.81 0.73,-4.5 4.62,-9.05 6.02,-14.04 5.36,-18.92 8.5,-37.2 16.71,-48.8 3.25,-4.59 9.02,-6.68 13.38,-6.68 13.42,-0.06 33.11,16.77 46.79,26.72 7.34,5.34 15.5,12.7 28.08,12.7 7.24,0 18.16,-5.1 23.39,-8.7 5.78,-3.92 18.22,-12.91 12.71,-23.39 -2.28,-4.32 -9.62,-8.93 -13.38,-12.7 -11.88,-11.89 -23.36,-19.32 -40.77,-28.06 -9.3,-4.67 -17.13,-12.19 -26.09,-16.71 -6.53,-3.34 -13.16,-5.57 -19.38,-10.04 -15.13,-10.85 -37.78,-30.18 -40.78,-51.47 -2.61,-18.57 8.85,-39.52 14.05,-61.52 1.94,-8.24 1.47,-17.06 4.67,-24.05 2.28,-4.96 11.72,-19.24 19.4,-20.05 5.89,-0.64 27.16,5.34 32.09,10.01 5.21,4.99 6.74,10.88 11.36,14.71 9.97,8.24 26.43,14.97 32.76,26.09 1.04,1.83 1.48,6.24 2.67,8.67 4.47,9.11 14.26,18.75 19.4,32.09 2.66,6.91 4.43,14.8 8.69,21.38 2.64,4.09 7.2,6.74 9.36,10.04 4.6,7.05 5.45,14.1 12.69,20.05 7.59,6.24 27.19,18.22 31.43,16.05 5.72,-2.94 -0.97,-12.8 -2,-18.72 -3.99,-22.72 4.09,-68.83 15.38,-74.89 3.09,-1.66 12.11,-0.72 14.03,-2 11.31,-7.4 -6.23,-35.08 -8.02,-44.1 -0.84,-4.29 -2.25,-25.16 -2,-28.09 0.29,-3.45 3.54,-6.73 4.69,-10.71 4.48,-15.49 6.72,-28.52 12.03,-42.77 2.04,-5.51 6.25,-11.81 10.02,-17.38 4.24,-6.27 6.88,-13.52 10.03,-17.38 3.31,-4.06 8.82,-5.43 13.38,-9.37 8.85,-7.66 11.35,-21.88 18.05,-29.42 1.89,-2.11 11.5,-8.85 14.72,-10.01 2.81,-1.01 6.2,0.09 9.36,-0.67 5.79,-1.39 11.64,-5.69 17.38,-6.7 12.59,-2.17 19.61,-0.69 32.09,-4 3.81,-1.01 6.47,-4.47 12.72,-6.01 17.55,-4.32 43.72,-6.09 46.78,-14.71 4.41,-12.36 -4.05,-27.13 -8.02,-33.43 -3.48,-5.51 -8.75,-10.27 -13.36,-14.71 -5.1,-4.9 -11.68,-7.34 -16.04,-11.37 -2.79,-2.55 -3.99,-6.73 -6.69,-9.34 -8.27,-8.01 -22.95,-15.96 -36.78,-18.72 -4.44,-0.9 -8.42,-0.32 -12.03,-1.34 -14.58,-4.15 -21.35,-13.69 -38.77,-16.71 -3.85,-0.67 -8.08,0.59 -12.03,0 -15.64,-2.32 -28.71,-13.63 -38.11,-14.04 -3.2,-0.14 -5.92,2.64 -9.36,2.67 -6.91,0.06 -19.28,-5.34 -26.74,-6.7 -5.13,-0.93 -18.22,-3.02 -19.38,-2.67 -7.46,2.38 -8.64,17.52 -11.37,24.75 -1.44,3.77 -7.08,7.4 -10.7,12.04 -10.02,12.82 -15.96,35.17 -26.73,48.77 -7.88,9.98 -17.15,13.49 -27.41,18.08 -2.67,1.19 -5.39,4.12 -8.02,5.34 -5.16,2.4 -12.3,3.16 -18.73,4.67 -3.06,0.72 -5.95,2.87 -8.69,3.34 -5.3,0.92 -11.39,-0.61 -17.38,0 -7.62,0.81 -15.02,5.1 -27.41,3.37 -3.19,-0.47 -6.01,-2.79 -9.36,-3.37 -7.64,-1.28 -15.89,0.87 -22.07,0 -7.68,-1.07 -21.91,-5.02 -30.74,-8.01 -4.23,-1.42 -7.62,-6.35 -12.71,-9.38 -8.54,-5.05 -21.6,-7.4 -28.74,-12.01 -3.66,-2.37 -6.42,-8.18 -10.71,-9.37 -17.09,-4.73 -20.31,-13.96 -32.76,-23.39 -7.62,-5.8 -17.16,-9.46 -23.39,-16.04 -4.09,-4.33 -6.98,-12.01 -11.37,-18.05 -5.74,-7.89 -14.16,-12.7 -18.72,-20.07 -2.44,-3.92 -3.2,-8.56 -5.35,-13.35 -4.87,-10.94 -13.48,-18.22 -16.71,-30.76 -0.85,-3.28 -0.31,-6.7 -1.34,-10.04 -2.75,-8.85 -10.47,-14.86 -12.69,-22.05 -1.98,-6.38 0.36,-13.69 -0.67,-20.72 -0.81,-5.48 -3.91,-12.97 -6.02,-17.37 -2.57,-5.4 -7.1,-8.59 -8.02,-12.71 -2.68,-11.9 1.8,-27.22 0,-40.13 -0.52,-3.68 -3.2,-7.25 -3.34,-10.68 -0.16,-3.74 1.76,-11.11 3.34,-17.38 1.74,-6.9 4.81,-13.49 6.02,-22.08 1.99,-14.27 1.82,-28.49 4.67,-40.77 1.67,-7.19 6.01,-15.08 6.69,-22.72 0.27,-3.04 -1.42,-6.23 -1.34,-9.37 0.23,-8.59 5.6,-16.85 8.02,-25.41 3.02,-10.68 2.27,-21.9 4.67,-30.06 2.35,-7.98 17.46,-18.05 20.73,-30.09 0.78,-2.93 -0.32,-6.44 0.67,-11.37 1.14,-5.75 8.14,-12.01 -2,-10.68 -9.11,1.19 -8.89,3.92 -14.71,7.34 -15.31,8.97 -22.17,13.18 -37.45,20.72 -10.53,5.22 -16.25,8.3 -26.07,13.38 -13,6.7 -28.51,14.22 -41.45,22.05 -13.23,8.04 -24.38,15.79 -36.1,23.42 -7.27,4.73 -11.56,7.46 -19.38,10.01 -6.69,2.21 -14.41,4.12 -22.07,7.37 -3.34,1.42 -5.39,4.47 -8.69,6.01 -4.42,2.06 -10.72,4.38 -16.71,6.7 -15.07,5.78 -31.15,13.03 -48.13,3.34 -7.2,-4.12 -15.91,-19.79 -16.04,-29.42 -0.25,-18.98 23.15,-38.8 35.44,-49.47 3.71,-3.22 4.81,-6.18 8.02,-8.67 6.88,-5.43 15.55,-6.91 22.72,-11.37 4.31,-2.7 7.11,-6.74 11.37,-10.04 9.45,-7.28 18.8,-20.37 31.41,-26.05 7.66,-3.48 15.71,-4.41 22.74,-9.37 5.23,-3.71 6.79,-10.71 11.36,-15.38 6.69,-6.79 22.58,-10.39 28.75,-17.38 9.01,-10.18 12.52,-18.68 21.38,-24.72 11.41,-7.78 34.02,-12.42 34.78,-32.09 0.16,-4.44 -2.76,-7.66 -3.35,-11.37 -0.89,-5.53 -0.82,-13.71 0,-20.05 0.92,-6.97 4.14,-12.45 3.35,-19.38 -0.43,-3.82 -2.81,-7.49 -3.35,-11.37 -1,-7.21 0.49,-16.38 0,-24.07 -0.32,-5.19 -3.31,-10.27 -3.33,-14.02 -0.06,-5.59 5.57,-13.03 6.69,-19.4 2.13,-12.31 -2.48,-27.37 0,-41.45 0.5,-2.9 2.91,-5.36 3.33,-8.02 1.48,-9.17 -1.51,-18.38 0,-26.73 1.41,-7.76 8.21,-16.02 10.7,-26.07 2.07,-8.36 1.99,-17.24 4.01,-28.07 0.84,-4.54 4.56,-8.48 6.02,-13.38 2.06,-6.97 2.79,-15.67 6.01,-23.4 2.1,-5.05 6.79,-8.68 9.36,-13.36 3.77,-6.88 5.02,-14.95 8.68,-22.07 3.44,-6.64 8.11,-12.88 11.38,-19.38 6.66,-13.26 14.29,-25.05 23.4,-37.44 8.6,-11.71 14.94,-25.18 24.05,-36.76 8.89,-11.29 21.69,-19.67 30.09,-30.76 11.51,-15.15 26.6,-33.45 40.12,-44.12 3.93,-3.1 8.87,-5.22 12.69,-8.69 3.72,-3.37 6.98,-8.02 10.71,-10.7 7.56,-5.42 16.21,-8.54 23.39,-13.36 5.45,-3.66 10.33,-11.22 14.71,-12.72 7.15,-2.42 14.41,-1.94 21.4,-4 9.3,-2.74 18.64,-12.42 26.74,-14.05 4.08,-0.81 8.02,0.46 11.36,0 4.87,-0.67 9.98,-2.12 16.71,-4 9.4,-2.64 15.35,-10.78 24.07,-13.38 7.47,-2.22 16.78,0.89 25.4,-0.67 5.04,-0.9 9.65,-5.85 13.38,-6.69 6.2,-1.38 13.54,0.75 19.39,0 10.68,-1.38 21.6,-6.99 30.76,-7.36 4.69,-0.17 8.38,2.74 12.02,3.35 19.44,3.22 36.75,-11.48 60.84,-6.69 4.7,0.93 8.44,5.7 13.36,6.69 5.18,1.03 10.75,-1.13 16.04,0.67 7.04,2.38 14.57,7.88 23.4,10.03 19.69,4.8 33.06,10.88 50.81,18.72 3.64,1.61 6.02,4.57 9.36,6.02 11.57,5.02 22.76,4.9 31.42,9.36 6.48,3.34 11.99,12.45 19.38,18.05 2.6,1.98 5.5,2.31 7.35,4.02 7.13,6.57 10.61,16.89 17.38,24.73 6.99,8.09 17.3,11.56 26.07,18.05 5.54,4.09 7.49,10.93 12.04,16.04 1.81,2.03 5.27,2.57 7.35,4.67 3.28,3.35 5.98,8.66 10.03,12.71 19.06,19.06 29.14,43.45 47.45,64.85 3.09,3.6 5.6,8.89 9.37,13.36 3.56,4.22 6.58,10.75 9.36,12.71 4.13,2.9 14.06,3.99 22.71,5.34 3.21,0.5 5.57,2.62 8.02,2.68 3.18,0.08 6.81,-2.33 10.04,-2.68 7.57,-0.79 14.35,0.77 21.39,-0.67 7.82,-1.58 20.08,-4.29 29.42,-6.67 11.45,-2.93 20.59,-12.09 32.76,-14.04 10.72,-1.73 20.53,1.86 30.07,0 4.34,-0.84 6.41,-4.76 10.69,-6.69 3.12,-1.41 7.22,-1.66 10.71,-3.34 5.92,-2.89 9.59,-7.34 12.69,-8.02 12.97,-2.86 34.18,2.29 50.81,0 3.66,-0.5 6.93,-2.87 10.04,-3.35 3.83,-0.59 9.25,0.26 14.04,0 11.26,-0.61 20.28,-1.9 34.09,0 3.39,0.48 6.44,2.8 10.01,3.35 3.66,0.55 7.92,-0.52 11.37,0 7.86,1.19 20.4,5.53 25.39,8.02 5.78,2.87 18.34,16.5 19.41,20.71 2.4,9.62 -1.11,27.58 -5.37,33.43 -4.33,5.93 -12.1,5.56 -22.05,7.35 -6.82,1.23 -13.67,6.54 -21.38,9.36 -11.69,4.26 -23.36,7.97 -36.79,11.36 -11.64,2.96 -21.62,8.62 -32.73,11.37 -11.6,2.88 -23.95,4.58 -35.44,7.35 -2.93,0.7 -5.71,2.89 -8.69,3.34 -3.69,0.57 -7.65,-0.56 -11.38,0 -3.31,0.51 -6.35,2.89 -9.36,3.35 -7.82,1.19 -13.77,-1.07 -21.38,0 -3.76,0.53 -25.22,6.49 -24.73,12.03 0.32,3.79 23.92,10.21 30.07,11.36 3.44,0.65 5.69,-0.3 8.02,0 3.1,0.41 5.83,2.77 8.69,3.35 3.27,0.65 6.92,0.04 10.04,0.67 3.25,0.65 6.09,2.77 9.36,3.34 10.03,1.74 20.79,-1.93 33.43,0 4.18,0.64 5.63,2.77 9.34,3.35 3.52,0.53 7.23,-0.49 10.71,0 3.6,0.49 6.5,2.89 8.71,3.34 11.66,2.41 18.78,2.22 29.39,4.69 5.31,1.22 10.71,4.22 16.05,6.01 16.1,5.38 34,9.6 48.13,16.71 19.67,9.89 37.31,19.61 54.14,32.09 3.54,2.63 5.78,7.37 9.37,10.03 8.53,6.31 17.58,10.81 24.72,18.05 2.38,2.4 2.69,5.99 5.37,8.03 4.55,3.51 11.31,4.21 16.04,8.67 4.56,4.35 6.93,10.97 12.01,16.05 13.09,13.07 28.55,26.97 38.8,43.47 5.72,9.22 10.88,21.15 16.71,32.75 5.72,11.39 11.61,24.32 12.71,36.1 0.38,4.23 5.75,9.67 6.67,14.71 0.7,3.89 -0.58,8.1 0,12.04 1.36,9.34 5.86,18.68 7.34,28.72 0.58,3.8 -0.58,7.55 0,11.37 0.49,3.25 2.87,6.53 3.37,10.04 0.78,5.77 -0.96,13.61 0,20.71 0.41,3.13 2.64,6.56 2.67,9.34 0,2.64 -2.15,5.37 -2.67,8.71 -0.61,3.77 0.47,8.03 0,11.37 -0.49,3.54 -2.84,6.27 -3.37,9.34 -0.96,5.83 0.53,11.37 0,16.71 -0.43,4.67 -3.28,9 -4,14.05 -0.46,3.37 0.55,7.11 0,10.7 -1.3,8.48 -6.85,20.2 -10.71,31.4 -9.63,28.2 -21.73,46.48 -42.1,66.85 -11.58,11.57 -19.44,25.44 -29.42,37.45 -6.24,7.51 -15.79,11.78 -24.05,20.05 -7.95,7.92 -17.27,16.16 -24.08,19.38 -2.17,1.04 -5.74,1.25 -7.34,2 -3.89,1.89 -6.5,6.3 -10.04,8.71 -8.65,5.89 -19.64,8.85 -30.76,13.35 -8.27,3.4 -15.47,10.59 -23.39,15.38 -15.41,9.37 -33.31,14.05 -48.13,20.08 -4.96,2 -8.88,7.14 -13.38,8.67 -2.32,0.81 -4.99,0.17 -7.34,0.67 -12.16,2.5 -25.04,9.69 -36.76,14.71 -8.88,3.81 -16.31,11.38 -28.09,14.05 -0.42,0.09 -0.87,0.46 -1.34,0.67 -10.49,4.91 -20.62,14.88 -30.76,16.71 -3.15,0.58 -8.11,-0.59 -12.03,0 -20.56,2.96 -24.02,19.41 -38.77,27.42 -1.87,1.01 -6.14,1.25 -8.69,2.67 -2.63,1.45 -4.91,5.48 -8.7,8.67 -3.41,2.9 -8.03,4.73 -10.69,6.7 -7.25,5.37 -15.94,14.16 -21.39,21.38 -12.46,16.48 -25.43,33.89 -16.05,60.84 0.6,1.69 11.61,5.83 14.04,6.01 10.14,0.69 18.27,-3.34 28.08,-3.34 10.01,0 21.25,-1.65 30.76,0 3.31,0.58 6.37,2.93 9.36,3.34 12.65,1.74 23.14,1.62 32.76,4.67 10.34,3.28 27.3,13.11 35.43,20.05 5.25,4.5 6.18,11.41 10.7,18.05 4.76,7.03 14.71,9.84 20.72,17.41 2.17,2.7 3.11,6.53 5.34,9.34 2.17,2.75 5.57,4.58 7.37,7.37 5.86,9.05 7.6,18.89 12.04,28.73 2.24,5.02 16.25,27.15 23.39,29.42 6.18,1.94 12.57,-1.74 19.39,-2.67 8.12,-1.13 19.32,0 29.42,0 11.08,0 21.35,-1.89 27.39,-2 2.96,-0.06 5.89,1.45 8.04,1.33 3.45,-0.2 7.34,-2.81 11.37,-3.33 22.63,-2.96 53.79,2.81 76.86,0 3.16,-0.41 5.2,-2.53 10.04,-3.37 5.86,-1.02 12.16,0.55 14.04,-0.67 3.66,-2.32 4.41,-18.02 6.68,-25.39 2.64,-8.65 13.23,-28.67 20.71,-30.76 3.68,-1.01 7.4,0.46 11.37,-0.67 10.44,-2.99 14.8,-12.8 32.09,-10.04 2.46,0.41 5.45,2.79 9.34,3.37 5.31,0.76 16.68,-0.69 23.41,0 3.51,0.35 8.91,2.5 10.71,2 4.12,-1.13 8.73,-19.78 9.34,-23.41 0.84,-4.99 -0.61,-10.04 0,-14.71 1.3,-9.69 6.44,-17.55 6.67,-24.72 0.14,-3.83 -1.97,-5.22 -2,-9.38 -0.03,-12.15 7.25,-26.8 9.37,-39.43 1.65,-9.84 -1.59,-21.3 0.67,-32.09 2.5,-11.89 8.04,-23.68 10.04,-36.09 0.84,-5.4 -0.44,-11.23 0.67,-16.71 2.73,-13.99 7.4,-32.5 10.01,-47.47 0.72,-4.06 -0.17,-9.14 0.67,-13.38 1.07,-5.37 3.46,-7.6 3.34,-13.38 -0.09,-5.72 -3.6,-11.23 -3.34,-16.71 0.55,-11.75 8.04,-23.21 10.04,-34.76 0.81,-4.7 -0.26,-9.6 0.67,-14.01 0.67,-3.25 2.87,-6.18 3.34,-9.37 0.93,-6.27 -0.84,-12.28 0,-18.05 1.3,-8.82 6.79,-17.67 9.37,-26.76 1.36,-4.84 1.82,-9.81 3.33,-14.71 2.55,-8.33 6.7,-18.08 6.68,-29.39 0,-4.99 -2.12,-9.43 -1.34,-14.71 0.93,-6.21 4.44,-12.28 6.03,-18.72 3.23,-13.2 5.54,-26.87 8.01,-39.46 0.53,-2.64 2.88,-5.19 3.34,-8 0.52,-3.08 -0.43,-6.93 0,-10.71 0.38,-3.08 2.61,-6.56 2.67,-9.34 0.11,-3.31 -2.12,-6.82 -2.01,-10.04 0.47,-12.8 10.01,-28.29 13.38,-44.14 2.2,-10.35 -1.69,-20.13 -1.34,-30.73 0.29,-8.5 6.59,-20.28 8.67,-30.08 0.58,-2.73 0.12,-5.09 0.7,-7.35 1.63,-6.54 5.77,-12.44 6.01,-18.06 0.26,-6 -4.09,-11.14 -2.67,-20.05 0.93,-5.92 5.89,-11.66 8.67,-18.72 2.93,-7.41 3.8,-14.48 5.37,-23.4 0.58,-3.35 2.81,-6.43 3.34,-10.03 1.33,-9.31 -1.4,-19.01 0.67,-27.41 2.27,-9.29 8.67,-16.71 10.01,-25.4 1.63,-10.33 -1.45,-19.3 0.67,-28.09 2.24,-9.17 8.45,-15.71 10.04,-24.73 1.45,-8.17 -1.63,-17.83 0,-29.4 0.75,-5.32 2.44,-11.32 4,-19.4 2.7,-13.71 10.36,-29.37 9.37,-36.76 -0.82,-6 -11.84,-13.07 -18.05,-20.05 -7.9,-8.88 -14.05,-23.39 -21.42,-32.09 -3.45,-4.12 -10.13,-5.51 -13.35,-9.36 -5.66,-6.75 -7.08,-14.87 -10.7,-20.73 -3.63,-5.86 -9.96,-12.56 -16.05,-17.37 -3.1,-2.45 -7.49,-3.64 -10.71,-6.69 -10.24,-9.75 -15.4,-25.39 -24.05,-38.1 -4.5,-6.63 -12.97,-15.21 -19.38,-20.06 -2.67,-2.02 -6.47,-2.44 -8.71,-4.67 -5.8,-5.82 -9.92,-14.94 -14.71,-22.07 -4.76,-7.14 -9.52,-15.04 -14.69,-22.05 -4.44,-6.04 -11.29,-7.57 -16.71,-12.71 -1.86,-1.76 -2.76,-4.77 -4.7,-6.69 -2.03,-2.04 -4.81,-2.73 -6.67,-4.67 -9.73,-10.26 -17.09,-22.45 -24.08,-34.11 -2.88,-4.81 -8.88,-8.65 -12.68,-14.02 -3.83,-5.39 -6.5,-11.3 -10.04,-16.05 -8.07,-10.85 -21.21,-20.96 -31.43,-32.09 -5.02,-5.48 -9.31,-11.44 -14.04,-17.38 -4.87,-6.15 -7.37,-14.51 -12.01,-19.38 -5.22,-5.47 -14.59,-8.51 -21.41,-14.71 -6.12,-5.59 -12.07,-12.09 -18.05,-18.05 -12.1,-12.1 -18.54,-31.33 -30.76,-41.45 -2.93,-2.44 -7.48,-4.18 -10.01,-6.02 -15.81,-11.53 -25.76,-27.93 -36.76,-43.45 -2.67,-3.77 -7.63,-6.64 -10.71,-10.69 -1.86,-2.46 -2.17,-6.02 -4,-8.02 -3.02,-3.32 -8.7,-4.45 -12.04,-8.02 -5.2,-5.6 -9.49,-12.72 -14.71,-19.4 -8.07,-10.32 -16.04,-24.13 -24.05,-34.09 -4.79,-5.91 -15.29,-9.58 -22.08,-14.71 -8.21,-6.23 -19.41,-17.19 -23.39,-24.06 -1.05,-1.81 -1.42,-5.39 -2.67,-8.02 -10.71,-22.32 -34.43,-37.59 -48.81,-61.51 -9.66,-16.08 -20.24,-32.86 -31.42,-50.14 -5.79,-8.94 -14.43,-11.27 -11.36,-26.73 3.34,-16.81 15.12,-22.38 28.07,-30.09 6.66,-3.96 10.7,-22.84 14.05,-28.74 2.35,-4.15 5.35,-4.61 8.69,-8.02 3.09,-3.15 4.05,-8.21 7.35,-11.36 2.76,-2.64 6.33,-3.19 9.34,-5.35 6.09,-4.35 8.21,-11.39 13.38,-16.05 12.22,-10.97 30.87,-13.48 42.8,-25.4 3.39,-3.38 7.19,-7.29 10.67,-11.36 3.17,-3.68 4.91,-8.82 8.71,-12.7 10.71,-10.94 27.88,-15.1 40.1,-25.4 3.05,-2.57 4.62,-6.62 7.37,-9.36 5.23,-5.22 12.22,-9.56 18.05,-15.38 5.45,-5.47 10.53,-12.54 16.04,-16.71 11.66,-8.83 24.46,-14.47 33.42,-26.07 4.21,-5.45 6.93,-12.89 11.35,-18.71 2,-2.61 5.37,-4.48 7.37,-7.35 3.19,-4.6 4.33,-9.52 9.34,-12.71 3.31,-2.08 7.75,-3.09 11.37,-5.34 5.34,-3.32 10.71,-8.05 15.38,-11.37 6.38,-4.51 14.28,-12.39 19.38,-18.72 2.41,-2.94 3.37,-6.78 6.03,-9.36 2.58,-2.5 6.85,-4.47 10.01,-7.35 12.54,-11.42 28.03,-21 40.8,-33.43 10.27,-10.01 19.49,-21.63 31.42,-30.74 5.25,-4.02 10.25,-8.04 15.35,-12.04 4.99,-3.89 8.21,-9.32 13.38,-13.36 11.75,-9.19 25.74,-12.97 38.8,-20.06 12.18,-6.64 25.1,-14.55 36.09,-22.74 9.98,-7.41 15.7,-18.73 25.39,-25.4 9.9,-6.81 23.13,-9.65 34.1,-16.71 4.35,-2.79 6.82,-7.99 11.37,-11.36 2.21,-1.64 5.08,-1.71 7.34,-3.34 11.49,-8.23 18.63,-21.98 31.43,-26.75 6.06,-2.23 12.7,-2.53 18.71,-4.67 12.83,-4.57 20.66,-12.48 32.09,-18.72 5.98,-3.26 10.3,-7.31 15.38,-11.37 11.06,-8.82 19.64,-14.92 33.43,-20.05 20.34,-7.57 40.33,-25.16 59.51,-35.43 11.4,-6.12 20.86,-10.75 32.09,-17.38 13.49,-7.98 23.85,-23.88 37.43,-33.43 0.87,-0.61 2.58,-1.01 4,-1.35zm-659.13 2689.4l0 0c3.83,9.98 6.09,21.76 9.34,30.06 3.56,9.08 10.82,17.5 12.71,26.09 0.92,4.15 0.14,10.18 0.67,13.38 1.01,6.21 5.6,12.85 6.7,18.72 0.67,3.66 -0.11,7.25 0.67,10.71 1.54,6.84 5.72,12.53 6.67,19.38 2.15,15.29 2.27,47.03 0,61.48 -0.61,3.92 -2.99,7.14 -3.33,10.71 -0.47,4.88 1.65,9.6 1.33,14.05 -0.26,3.51 -2.73,7.17 -3.33,10.68 -0.99,5.49 0.69,10.91 0,15.38 -1.13,7.02 -8.97,11.08 -14.05,18.05 -4.18,5.75 -7.05,14.16 -12.04,17.41 -5.25,3.42 -13.35,2.5 -20.72,5.34 -4.99,1.91 -7.2,9.14 -14.71,12.7 -3.39,1.59 -7.46,1.74 -10.71,3.34 -9.17,4.5 -16.45,14.1 -24.72,18.05 -7.95,3.77 -16.8,7.78 -25.42,10.71 -7.95,2.67 -16.8,2.12 -26.72,4.67 -4.73,1.22 -11.35,6.64 -18.72,9.34 -10.82,4 -22.39,10.27 -22.75,19.41 -0.09,2.64 2.52,6.32 3.35,11.34 0.54,3.28 -0.16,6.93 0.67,10.04 1.65,6.24 6.55,9.11 9.36,15.38 2.83,6.3 2.71,12.47 4,20.71 1.3,8.19 5.86,19.5 7.37,28.09 0.69,4.09 -0.43,8.13 0.67,10.68 3.66,8.68 15.21,7.11 26.05,8.71 9.11,1.34 18.95,5.51 27.42,6.67 3.63,0.53 7.31,-0.49 10.71,0 4.18,0.61 8.01,3.46 12.01,4.01 3.56,0.52 7.72,-0.61 11.37,0 3.13,0.55 6.12,2.9 9.37,3.37 9.25,1.27 19.3,-1.45 28.73,0 3.54,0.52 6.67,2.87 10.04,3.33 5.83,0.81 11.58,-0.81 17.38,0 8.44,1.19 18.77,7.86 30.09,10.68 7.63,1.95 15.15,2.38 21.38,4.7 4.56,1.69 10.94,6.67 16.04,8.67 5.31,2.09 12.91,6.04 18.72,4.7 7.25,-1.71 9.43,-18.39 12.04,-28.75 2.3,-9.17 8.56,-16.68 10.01,-24.08 1.89,-9.4 -1.65,-21 -1.33,-28.06 0.26,-5.34 3.8,-9.84 4.7,-15.38 1.05,-6.53 2.5,-14.71 2.67,-20.72 0.17,-6.96 -2.67,-13.49 -2,-20.74 1.42,-16.08 14.74,-27.56 17.38,-44.77 1.88,-12.45 -2,-24.58 -1.34,-37.46 0.67,-13 9.81,-28.03 12.01,-45.43 0.72,-5.63 -0.84,-11.61 0,-17.38 1.16,-7.84 6.12,-16.48 7.37,-26.09 0.41,-3.31 -0.55,-7.26 0,-10.71 0.55,-3.45 2.87,-6.47 3.34,-10.01 0.72,-5.78 -0.82,-11.89 0,-17.38 1.57,-10.65 6.12,-20.17 7.34,-29.42 0.85,-6.21 -0.78,-11.93 0,-17.38 1.83,-12.31 9.17,-22 10.71,-31.43 1.16,-7.08 -1.01,-15.06 0,-22.05 2.18,-14.71 9.2,-28.26 10.71,-40.13 3.89,-31.1 -4.09,-31.39 -33.43,-31.39 -13.4,0 -27.33,-1.92 -39.46,0 -6.21,0.96 -10.73,4.32 -18.05,3.33 -3.89,-0.55 -7.34,-2.9 -10.68,-3.33 -12.33,-1.66 -22.72,1.42 -32.09,0 -7.69,-1.19 -17.52,-4.82 -28.09,-3.37 -3.1,0.43 -6.15,2.79 -9.37,2.67 -1.94,-0.05 -5.16,-2.17 -8,-2.67 -6.39,-1.1 -15.09,-1.19 -18.05,-0.67 -13.84,2.46 -5.69,12.45 -2,22.08z"/>
    </g>
   </g>
   <path class="fil1" d="M2146.87 45.11c7.98,-2.13 9.67,4.98 17.38,10.7 7.17,5.29 12.24,6.34 16.71,12.7 4.06,5.76 6.01,14.73 10.71,20.72 11.81,15.07 27.39,27.52 36.1,44.79 4.9,9.72 8.73,16.68 16.71,26.07 5.08,5.96 9.19,14.64 14.04,18.06 4.56,3.19 11.12,4.4 14.71,7.35 3.13,2.57 4.9,7.18 8.01,11.36 6.5,8.7 13.78,14.07 18.08,25.4 7.05,18.7 15.52,38.78 32.06,49.47 8.88,5.73 15.2,6.58 20.74,14.05 8.71,11.75 9.66,23.43 17.38,34.76 3.57,5.25 8.24,6.4 14.05,10.69 20.4,15.11 30.64,47.25 52.13,63.51 9.9,7.5 23.56,15.58 28.06,24.73 1.45,2.94 1.51,6.65 2.7,9.36 4.87,11.31 13.52,17.9 20.72,27.4 2.58,3.41 3.27,7.69 6,10.03 7.84,6.69 22.14,8.35 26.76,16.05 2,3.35 2.46,7.99 4,11.36 2.46,5.38 6.41,12.69 10.7,17.38 2.35,2.58 6.47,3.19 9.34,6.02 1.74,1.71 1.94,4.64 4,6.69 6.59,6.48 15.67,10.17 18.74,16.04 1.68,3.26 1.42,7.08 2.67,10.03 2.96,7.17 8.53,14.92 13.35,22.74 5.46,8.74 13.12,12.44 21.42,18.71 3.27,2.5 5.89,6.69 9.34,9.36 3.51,2.7 8.36,4.21 11.37,7.36 4.27,4.44 5.69,11.66 9.38,16.71 2.96,4.07 7.89,5.71 12.68,9.36 15.17,11.5 27.13,35.03 42.13,46.13 6.26,4.64 11.66,6.69 16.04,12.69 7.63,10.49 11.81,20.89 21.39,27.42 4.26,2.9 10,3.52 13.38,6.68 4.08,3.84 6.7,13.81 10.01,19.4 2.09,3.47 10.7,16.26 15.37,20.71 3.86,3.67 9.4,5.15 12.71,8.69 4.24,4.51 13.06,17.58 13.38,22.07 0.84,11.84 -18.89,29.58 -28.08,38.78 -15.61,15.62 -26.61,26.97 -42.77,39.43 -11.02,8.5 -18.97,18.83 -30.76,27.42 -21.27,15.48 -36.88,37.46 -55.47,52.14 -5.05,3.97 -10.91,7.36 -16.05,11.36 -8.91,6.88 -17.18,11.4 -26.75,17.38 -5.28,3.31 -9.55,10.1 -15.38,14.71 -2.52,1.99 -6.59,2.69 -8.67,4.69 -2.61,2.44 -3.34,6.74 -5.37,9.36 -7.46,9.53 -19.18,18.47 -29.42,26.07 -6.62,4.92 -10.76,12.49 -17.38,17.38 -4.88,3.61 -11.75,6.23 -17.38,10.03 -4.82,3.28 -7.9,8.28 -12.68,10.69 -4.96,2.51 -11.49,3.08 -16.71,6.02 -5.34,3.01 -8.3,8.19 -13.38,12.03 -2.32,1.76 -5.75,2.29 -8.04,4.02 -8.61,6.53 -14.57,16.72 -22.72,23.4 -2.81,2.29 -6.93,3.71 -10.04,6.01 -3.02,2.25 -5.08,5.49 -8.01,7.35 -8.88,5.72 -18.48,7.55 -28.09,12.04 -4.14,1.93 -8.12,7.03 -12.01,10.69 -4.03,3.77 -8.94,6.45 -12.7,9.36 -5.83,4.5 -9.43,10.89 -15.38,14.71 -4.91,3.13 -11.55,5.1 -17.38,8.02 -5.48,2.73 -11.22,6.86 -16.71,8.7 -3.39,1.13 -7.69,0.61 -11.37,2 -8.13,3.08 -18.89,18.24 -26.05,25.4 -4.1,4.09 -8.59,8.43 -14.05,12.04 -5.37,3.55 -9.52,8.43 -14.04,11.36 -12.68,8.2 -31.43,11.63 -43.47,19.38 -8.24,5.31 -18.02,18.73 -28.06,23.4 -5.39,2.49 -10.5,2.68 -14.71,5.35 -8.3,5.24 -14.28,10.4 -21.42,17.38 -3.19,3.15 -7.75,5.08 -10.68,8.02 -9.43,9.43 -15.47,21.5 -27.42,29.41 -4.15,2.75 -9.98,5.06 -15.38,8.02 -10.62,5.86 -22.86,14.09 -36.76,17.38 -8.53,2.03 -14.1,1.07 -20.72,5.35 -11.43,7.4 -24.75,27.05 -34.76,36.77 -4.76,4.61 -15.03,11.24 -20.05,11.37 -9.08,0.23 -26.43,-15.19 -32.76,-21.4 -3.86,-3.76 -9.14,-6.12 -11.37,-8.69 -4.52,-5.2 -7.28,-13.74 -11.37,-20.05 -4,-6.22 -10.91,-10.25 -15.38,-16.04 -4.35,-5.63 -9.23,-12.53 -13.38,-18.72 -4.09,-6.11 -8.53,-13.88 -13.35,-18.73 -6.93,-6.92 -15.09,-8.91 -20.74,-17.38 -2.32,-3.49 -2.87,-7.4 -5.34,-11.36 -2.87,-4.66 -7.51,-8.48 -10.7,-13.38 -3.13,-4.85 -5.95,-10.29 -9.34,-14.7 -5.31,-6.93 -14.07,-12.18 -20.05,-20.06 -10.01,-13.18 -17.12,-30 -28.08,-41.45 -4.41,-4.58 -9.98,-7.96 -14.71,-12.69 -6.76,-6.77 -12.42,-13.07 -18.72,-21.39 -5.74,-7.61 -14.25,-12.62 -20.05,-20.05 -8.97,-11.48 -14.36,-22.39 -24.75,-32.76 -9.29,-9.3 -20.57,-17.76 -28.73,-28.09 -6.44,-8.12 -12.01,-16.97 -18.05,-25.4 -10.36,-14.43 -27.28,-24.17 -38.12,-37.43 -2.84,-3.49 -4.85,-8.34 -8.01,-12.03 -3.04,-3.56 -7.13,-6.59 -9.37,-10.04 -2.38,-3.7 -3.19,-8.2 -5.34,-11.36 -7.43,-10.94 -21.24,-16.99 -30.76,-27.41 -2.21,-2.42 -2.99,-6.24 -5.34,-9.37 -6.21,-8.17 -17.18,-14.59 -22.08,-22.05 -2.27,-3.48 -2.84,-7.67 -5.34,-10.69 -7.25,-8.82 -20.01,-13.87 -27.42,-21.39 -5.54,-5.65 -8.59,-14.32 -13.35,-20.72 -3.51,-4.7 -9.52,-8.29 -13.37,-13.38 -5.2,-6.86 -8.76,-15.37 -14.05,-20.72 -7.17,-7.26 -18.66,-13.38 -26.09,-20.73 -5.97,-5.94 -9.72,-14.34 -15.35,-21.4 -8.79,-11 -18.89,-19.25 -27.42,-30.74 -5.95,-7.99 -14.39,-16.52 -21.38,-22.06 -2.81,-2.22 -7.43,-3.08 -10.04,-6.02 -3.11,-3.48 -4.53,-11.17 -6.68,-16.71 -2.23,-5.74 -6.99,-12.82 -11.37,-18.72 -4.85,-6.51 -13.06,-9.82 -12.04,-19.38 0.43,-3.97 5.73,-9.73 10.71,-14.71 4.42,-4.43 7.86,-9.75 11.37,-13.36 1.63,-1.71 5.34,-2.66 6.67,-4.02 1.77,-1.8 3.83,-7.85 5.34,-9.36 1.86,-1.86 6.64,-3.19 9.37,-5.35 8.03,-6.35 14.59,-18.05 21.38,-21.38 2.35,-1.15 5.57,-0.82 8.03,-2.02 7.51,-3.69 14.3,-12.58 22.72,-18.72 8.47,-6.18 13.78,-16.27 22.71,-22.05 3.52,-2.28 7.87,-3.15 11.37,-5.35 7.43,-4.65 11.17,-12.45 17.38,-18.72 6.49,-6.58 15.61,-13.62 23.39,-21.4 6.99,-6.98 15.84,-18.54 22.75,-22.05 2.32,-1.21 5.1,-0.9 7.34,-2.02 6.12,-3.05 9.52,-10.56 14.71,-16.71 2.15,-2.54 5.8,-3.61 8.03,-6.02 7.84,-8.51 13.93,-17.31 22.05,-24.72 8.27,-7.56 19.24,-11.9 27.42,-19.4 7.11,-6.53 12.65,-19.08 18.71,-26.73 4,-5.08 10.25,-11.64 16.05,-15.38 3.86,-2.5 8.32,-2.53 12.01,-5.34 3.68,-2.8 4.99,-8.23 8.71,-12.71 6.93,-8.38 15.4,-13.8 24.72,-20.72 2.96,-2.21 5.37,-6.05 8.03,-7.35 9.46,-4.64 20.25,-6.44 26.72,-14.05 2.79,-3.26 3.45,-9.12 6.03,-12.02 1.74,-1.98 6.12,-3.53 9.34,-6.02 4.91,-3.77 8.94,-10.09 13.38,-13.38 2.27,-1.67 5.16,-1.76 7.37,-3.33 7.86,-5.65 11.84,-14.28 18.72,-18.72 8.9,-5.78 19.38,-7.9 29.39,-12.71 8.13,-3.9 13.84,-11.81 22.08,-18.05 6.18,-4.67 13.81,-7.9 19.38,-12.03 6.3,-4.69 10.44,-11.97 16.71,-16.71 5.6,-4.27 12.51,-6.64 18.05,-10.71 6.15,-4.49 10.27,-11.22 15.38,-16.04 5.86,-5.53 12.57,-7.63 19.38,-12.03 3.28,-2.11 5.54,-5.83 8.71,-8.69 3.22,-2.91 7.31,-4.18 10.68,-6.69 6.76,-5.02 12.22,-11.34 19.38,-14.71 8.38,-3.9 15.9,-4.19 22.75,-8.02 3.34,-1.86 5.75,-5.2 9.34,-7.36 2.15,-1.26 5.14,-1.15 7.37,-2.67 3.69,-2.51 6.24,-8.85 10.01,-10.69 6.64,-3.25 14.48,-4.32 20.74,-8.02 7.46,-4.41 14.59,-9.8 22.05,-14.71 7.19,-4.74 13.4,-11.19 20.71,-16.05 7.9,-5.23 18.83,-8.57 28.09,-14.71 8.44,-5.59 17.33,-13.33 25.39,-17.38 2.35,-1.16 5.69,-0.89 8.04,-2 8.79,-4.18 15.81,-13.57 24.05,-18.72 0.52,-0.32 0.52,-0.45 1.33,-0.67z"/>
   <g>
    <path class="fil0" d="M2146.2 66.5c15.47,-3.7 28.67,9.94 27.42,24.73 -0.87,10.3 -11.26,25.81 -18.05,27.42 -12.18,2.88 -32.35,-10.41 -32.76,-21.39 -0.4,-10.81 14.19,-28.54 23.39,-30.76z"/>
   </g>
   <g>
    <path class="fil0" d="M1729.05 456.23c2.06,-0.33 8.56,-1.58 14.05,0 5.25,1.51 9.2,7.36 15.38,10.03 5.78,2.51 12.77,2.39 17.38,4.69 5.54,2.73 20.86,18.17 22.75,24.06 2,6.3 2.09,18.78 0.67,25.4 -1.33,6.12 -11.84,20.95 -18.74,24.74 -23.68,12.98 -37.52,-5.47 -62.82,-9.36 -14.89,-2.29 -22.87,4.38 -32.76,9.36 -14.59,7.33 -24.52,10.28 -28.09,30.07 -4.12,22.93 7.92,27.08 24.08,30.76 24.43,5.54 62.44,20.09 76.86,38.76 1.88,2.47 2.75,5.53 4.67,8.04 3.77,4.9 8.9,8.37 10.71,12.02 5.6,11.42 9.43,28.55 12.04,43.45 1.25,7.18 5.14,16.59 3.34,28.75 -0.87,5.88 -5.8,12.45 -6.67,20.05 -0.53,4.3 1.68,8.22 1.33,11.36 -0.29,2.39 -3.48,5.51 -4.7,9.36 -0.96,3.08 -0.55,6.63 -1.33,8.71 -2.7,7.27 -11.23,15.14 -16.05,24.72 -1.16,2.36 -0.78,5.66 -2,8.02 -4.61,8.91 -14.27,14.18 -20.05,20.07 -4.06,4.13 -6.07,11.01 -9.37,14.04 -4.12,3.77 -10.16,5.2 -14.68,8.01 -11.29,6.99 -16.86,16.8 -29.42,20.06 -7.08,1.83 -18.8,2.1 -28.09,0.67 -9.89,-1.52 -17.26,-8.82 -26.72,-10.7 -4.7,-0.94 -9.69,0.54 -14.71,-0.67 -15.46,-3.73 -35.81,-17.12 -42.13,-30.09 -1.13,-2.32 -1.71,-6.44 -3.34,-10.03 -2,-4.36 -6.64,-8.63 -8.03,-12.7 -0.84,-2.54 -0.43,-6.34 -1.34,-9.36 -2.61,-8.87 -8.18,-17.47 -8.01,-26.07 0.23,-11.62 8.44,-23.75 13.38,-32.76 2.27,-4.18 5.83,-10.12 8.01,-11.36 8.33,-4.74 28.35,-0.77 33.43,4 6.53,6.14 9.02,18.08 16.04,26.07 2.23,2.54 6.64,3.37 9.37,6.02 6.61,6.46 7.63,13.25 17.38,16.04 3.28,0.94 7.31,-0.06 11.34,0.67 7.17,1.28 21.36,6.31 34.09,2.67 7.84,-2.22 19.85,-19.96 22.08,-26.07 11.14,-30.65 -3.51,-56.51 -26.75,-66.19 -9.11,-3.78 -20.34,-5.48 -30.76,-9.36 -3.48,-1.3 -6.01,-4.06 -9.34,-5.34 -16.68,-6.4 -35.11,-9.18 -44.8,-23.4 -1.92,-2.81 -3.31,-7.21 -5.34,-10.69 -8.3,-14.21 -18.22,-36.14 -14.04,-63.52 2.79,-18.25 12.27,-33.51 18.71,-48.13 10.39,-23.55 25.68,-39.61 46.13,-54.81 8.85,-6.6 13.78,-10.12 24.06,-14.04 9.84,-3.76 19.85,-11.04 29.42,-12.71 3.89,-0.67 7.92,0.48 11.37,0 4.18,-0.58 7.9,-2.65 12.01,-3.34z"/>
   </g>
   <g>
    <path class="fil0" d="M1857.42 488.32c9.54,-1.87 21.06,2.16 28.75,3.34 11.14,1.73 23.47,-1.84 36.1,0 3.22,0.46 6.76,2.89 10.04,3.35 5.66,0.82 11.69,-0.75 17.38,0 3.48,0.47 6.47,2.79 10.01,3.34 20.78,3.24 40.71,-2.03 56.84,0 7.69,0.97 14.01,5.22 22.05,4.02 8.44,-1.29 12.59,-9.02 20.05,-10.71 15.61,-3.5 28.87,8.28 29.42,19.38 0.14,3.18 -2.55,13.93 -4,18.73 -3.02,9.76 -12.94,24.58 -19.41,34.09 -8.79,12.97 -15.61,20.37 -36.76,18.72 -9.92,-0.77 -45.85,-3.38 -51.48,2 -2.55,2.47 -1.13,7.94 -2.67,15.38 -1.01,4.92 -4.27,9.26 -4.67,12.71 -1.01,8.61 -0.81,17.48 -2,26.73 -0.49,3.64 -2.61,7.01 -3.37,10.69 -0.84,4.21 -0.03,8.64 -0.67,12.71 -2.03,13.27 -9.34,25.16 -10.67,36.76 -0.76,6.5 0.96,15.42 0,20.73 -0.7,3.88 -5.6,9.38 -6.7,15.37 -0.99,5.54 0.46,11.55 0,16.71 -1.02,11.91 -5.54,22.38 -7.34,34.1 -0.7,4.41 0.58,9.36 0,14.03 -0.49,3.76 -2.79,6.8 -3.34,10.69 -0.93,6.35 0.96,13.34 0,20.73 -1.07,8.19 -5.91,16.24 -7.37,26.06 -0.55,3.7 0.72,7.99 0,12.04 -2.79,16.12 -18.16,46.45 -30.08,47.45 -10.54,0.89 -22.98,-12.62 -24.73,-21.38 -2.14,-10.79 -1.85,-29.48 0,-42.78 0.44,-3.12 2.71,-5.91 3.34,-9.37 2.76,-14.55 1.48,-31.61 3.34,-46.12 0.47,-3.52 2.64,-6.53 3.37,-10.03 0.87,-4.33 -0.12,-9.11 0.67,-13.38 1.19,-6.69 5.63,-12.79 6.68,-19.38 0.61,-3.92 -0.64,-8.13 0,-12.04 1.13,-6.88 6.32,-13.94 7.34,-20.71 2.23,-14.38 -1.19,-29.47 0.69,-42.78 1.28,-9.23 8.33,-18.08 10.01,-28.09 0.52,-3.05 -0.55,-6.42 0,-9.36 1.16,-6.01 5.86,-11.49 6.01,-17.38 0.2,-6.43 -4.12,-16.37 -2.67,-26.74 0.78,-5.57 5.68,-11.2 2.67,-18.05 -2.38,-5.49 -8.94,-3.38 -18.05,-4.69 -4.26,-0.61 -5.36,-2.7 -9.34,-3.34 -18.25,-2.91 -35.54,1.57 -48.13,-4.69 -4.09,-2.02 -14.51,-11.23 -16.05,-17.38 -6.12,-24.52 8.56,-39.97 18.05,-49.47 4.93,-4.95 9.87,-10.69 16.71,-12.03z"/>
   </g>
   <g>
    <path class="fil0" d="M2204.38 535.11c3.95,-0.64 8.07,2.25 13.38,2.69 7.78,0.62 15.23,-2.74 20.72,0.67 4.18,2.59 4.49,9.25 8.01,12.69 6.96,6.77 14.01,5.63 23.41,8.68 9.78,3.2 16.48,12.19 22.72,20.73 4.35,5.94 11.72,9.96 15.38,15.38 8.09,11.95 11.95,32.69 16.04,49.47 1.57,6.46 5.78,13.54 6.67,19.38 1.34,8.57 -1.19,19.75 0,28.74 0.41,2.95 2.61,6.24 2.71,8.69 0.05,2.83 -2.21,6.05 -2.71,9.36 -1.42,10.01 1.57,22.44 0,34.78 -1.13,9.01 -4.87,13.5 -3.33,22.71 1.07,6.28 4.93,12.65 3.33,24.07 -1.97,14.29 -7.77,26.75 -11.34,42.11 -5.02,21.56 -20.43,35.96 -27.42,54.82 -2.27,6.13 -2.41,12.26 -4.67,17.38 -1.19,2.68 -4.52,4.74 -6.03,8.02 -4.82,10.57 -8.1,20.96 -14.01,26.07 -8.45,7.25 -25.16,12.3 -38.13,16.04 -17.26,4.99 -28.87,20.78 -45.43,24.07 -4.26,0.84 -8.82,-0.6 -12.71,0 -9.58,1.46 -13.96,4.48 -22.05,3.33 -3.19,-0.45 -6.12,-2.76 -10.04,-3.33 -11.72,-1.73 -20.92,-0.32 -29.42,-4.69 -4.03,-2.08 -7.66,-8.7 -12.71,-12.03 -4.23,-2.81 -9.52,-3.69 -12.68,-6.02 -6.88,-5.02 -14.77,-17.44 -21.41,-27.41 -6.7,-10.1 -14.86,-20.46 -18.05,-30.76 -3.33,-10.77 -2.81,-18.58 -4.67,-32.09 -2.12,-15.22 -9.14,-27.68 -6.68,-50.14 1.71,-15.75 -0.43,-37.27 3.34,-55.47 1.22,-5.88 5.2,-11.01 6.67,-17.38 0.79,-3.25 -0.03,-7.08 0.67,-10.7 1.19,-6.17 5.57,-12.21 6.7,-18.72 1.07,-6.17 -1.07,-12.9 0,-19.38 0.84,-5.24 7.57,-13.09 10.01,-21.4 0.9,-3.04 0.64,-6.4 1.33,-8.69 1.16,-3.66 4.39,-5.78 6.03,-9.36 4.76,-10.3 6.42,-20.2 12.68,-29.42 2.79,-4.03 7.98,-6.6 11.37,-11.36 4.09,-5.71 6.59,-12.62 10.71,-18.05 3.89,-5.12 9.69,-8.85 14.04,-13.38 7.57,-7.89 14.57,-22.86 24.06,-28.07 1.8,-0.98 4.76,-0.89 7.34,-2 3.54,-1.52 6.3,-4.99 9.37,-6.02 2.58,-0.87 5.95,-0.59 8.71,-1.34 5.08,-1.39 9.17,-5.09 12.68,-6.02 4.39,-1.14 8.24,-0.03 11.37,-0.67 4.62,-0.93 7.75,-4.99 14.05,-6.02z"/>
   </g>
   <g>
    <path class="fil0" d="M2413.6 584.58c16.45,-2.97 47.29,-2.62 62.85,-0.67 4.09,0.52 7.95,3.37 12.04,4.02 3.19,0.5 6.41,-0.64 9.34,0 2.98,0.63 6.64,4.22 11.37,6 13.55,5.14 21.67,9.3 32.76,18.06 12.3,9.73 20.13,25.49 24.06,43.45 2.81,12.75 10.56,24.71 6.7,43.45 -5.86,28.44 -17.03,56.29 -34.09,76.21 -10.39,12.11 -17.67,25.68 -26.75,33.43 -7.25,6.19 -21.27,13.23 -32.76,20.05 -11.4,6.81 -26.9,14.49 -42.1,17.4 -2.67,0.49 -5.83,-0.42 -8.71,0 -4.59,0.67 -8.65,3.6 -12.71,4 -6.24,0.62 -12.3,-2.54 -17.38,-1.34 -9.66,2.31 -8.62,26.52 -10.68,41.45 -0.64,4.47 -2.9,7.05 -3.33,10.03 -1.25,8.07 -0.99,21.63 0,28.74 0.67,4.87 3.19,7.43 3.33,12.04 0.18,5.52 -4.72,23.99 -7.36,30.09 -1.13,2.66 -4.47,4.88 -6.01,8.01 -1.74,3.55 -1.5,7.53 -2.67,9.37 -13.69,21.74 -49.38,8.24 -46.13,-22.74 0.32,-2.95 2.55,-5.9 2.67,-9.36 0.09,-2.42 -1.94,-5.12 -2,-7.35 -0.14,-6.05 2.12,-13.57 2.67,-20.07 1.25,-14.42 1.68,-22.21 4.03,-36.76 1.22,-7.73 5.39,-14.85 6.67,-22.73 0.55,-3.41 -0.46,-7.14 0,-10.69 1.22,-9.58 5.78,-19.19 7.34,-29.41 0.58,-3.76 -0.55,-7.62 0,-11.37 0.96,-6.23 5.2,-11.99 6.7,-18.72 0.99,-4.48 -0.09,-9.3 0.67,-14.04 1.42,-8.89 5.28,-17.67 6.67,-26.73 0.67,-4.43 -0.52,-8.98 0,-13.38 0.44,-3.53 2.55,-6.97 3.34,-10.7 1.07,-4.99 -0.17,-10.37 0.67,-14.7 0.96,-4.74 5.92,-9.69 6.7,-14.04 1.28,-7.18 -0.87,-14.4 0,-21.4 1.22,-9.66 6.07,-17.64 7.34,-26.07 1.36,-8.75 -3.22,-16.16 -3.34,-24.74 -0.06,-6.37 4.67,-19.87 8.04,-26.07 5.51,-10.18 19.93,-20.88 30.06,-22.73z"/>
   </g>
   <path class="fil1" d="M2186.33 617.34c7.17,-0.65 14.65,4.18 24.05,7.36 23.94,8.08 34.09,10.57 42.8,34.09 5.05,13.68 11.2,27.92 14.71,44.14 1.36,6.38 -0.29,13.17 0.67,20.05 0.53,3.86 2.84,6.86 3.34,10.03 1.63,10.6 -1.86,17.29 -3.34,27.4 -0.86,5.85 0.78,11.2 0,17.38 -0.49,3.8 -3.33,7.79 -4.03,12.71 -1.68,12.07 -0.67,19.22 -4.67,29.42 -8.27,21.09 -22.05,48.68 -38.76,59.49 -4.65,2.99 -11.29,4.89 -16.71,8.02 -11.08,6.37 -18.45,11.82 -33.43,14.03 -14.07,2.07 -26.23,-5.95 -35.42,-12.03 -13.58,-8.96 -23.44,-20.79 -30.09,-38.78 -2.17,-5.88 -6.03,-10.11 -6.67,-14.02 -2.15,-13.07 -1.65,-29.86 0,-42.13 1.3,-9.78 5.19,-19.06 5.34,-28.74 0.05,-3.75 -1.69,-7.57 -1.34,-11.36 0.76,-8.66 6.24,-22.72 10.68,-34.76 4.41,-11.88 11.2,-25.99 15.38,-36.77 2.27,-5.82 4.91,-11.43 8.03,-16.05 7.57,-11.19 13.64,-24.46 23.39,-34.09 2.44,-2.39 6.88,-3.78 10.71,-6.69 6.27,-4.74 5.57,-7.79 15.38,-8.69z"/>
   <path class="fil1" d="M2444.36 661.46c2.93,-0.29 5.78,1.96 10.04,2.68 3.11,0.52 6.5,-0.54 9.34,0 3.75,0.69 8.33,4.35 12.71,6.02 9.49,3.57 17.18,7.57 22.72,16.05 6.12,9.29 14.39,22.87 11.37,38.1 -1.02,5.1 -10.91,20.03 -15.38,24.07 -5.23,4.74 -17.18,12.85 -23.39,14.04 -2.7,0.51 -6.21,-0.55 -9.37,0 -9.46,1.64 -19.47,9.85 -28.73,10.03 -4.5,0.08 -16.13,-3.67 -17.38,-5.36 -4.59,-6.07 1.92,-23.89 3.33,-32.76 0.99,-6.18 -1.07,-13.23 0,-21.38 0.44,-3.33 2.53,-6.24 3.34,-10.02 2.32,-11.03 0.64,-27.33 5.34,-34.78 2,-3.13 11.57,-6.24 16.04,-6.69z"/>
   <path class="fil2" d="M793.16 1174.88c8.58,-1.55 21.64,5.38 30.07,6.69 7.37,1.13 15.67,-1.28 22.07,0 3.9,0.77 6.89,4.71 10.69,6.02 6.92,2.35 15.48,3.04 23.4,5.34 7.83,2.27 15.13,7.39 22.73,9.36 3.26,0.85 6.47,0.5 9.36,1.33 4.38,1.28 8.53,5.14 12.69,6.02 10.79,2.31 19.15,1.87 27.42,8.02 1.96,1.47 3.49,4.76 6.01,7.35 2.13,2.19 5.52,3.93 7.35,6.02 7.02,7.96 13.26,18.96 20.73,26.73 4.93,5.14 12.87,9.07 18.05,14.04 2.31,2.21 3.93,5.56 6.02,7.34 3.84,3.3 11.44,5.57 16.04,10.04 2.67,2.58 4.31,6.85 6.67,9.36 10.61,11.21 18.24,27.97 28.76,42.11 7.18,9.66 18.68,16.6 22.07,23.4 1.23,2.48 2.26,7.84 4,11.36 1.87,3.79 7.36,8.75 10.7,14.05 2.25,3.54 4.35,10.62 7.35,12.03 2.8,1.3 8.52,0.48 12.04,1.33 7.43,1.81 12,8.75 17.38,10.03 7.18,1.71 14.29,-1.87 22.72,-3.34 6.15,-1.06 13,0.8 18.73,0 10.71,-1.49 21.22,-9.05 31.4,-10.69 2.47,-0.39 6.44,0.39 8.69,0 4.92,-0.87 8.75,-5.06 14.05,-6.69 4.28,-1.32 9.44,-1.19 14.04,-2.67 4.38,-1.42 8.72,-4.09 12.03,-4.69 6.19,-1.1 12.52,0.81 18.72,0 12.68,-1.64 21.95,-10.85 34.1,-14.05 7.46,-1.94 16.23,0.38 24.05,-0.67 3.64,-0.48 6.95,-2.8 10.7,-3.33 10.97,-1.57 22.4,0.99 34.09,0 8.85,-0.74 18.74,-5.38 33.42,-3.35 2.9,0.41 5.72,2.68 9.38,3.35 3.86,0.69 7.89,-0.35 10.7,0.67 13.26,4.8 7.49,23.33 -4.7,26.07 -3.83,0.87 -8.01,-0.57 -12.01,0 -12.57,1.8 -25.85,11.04 -40.8,14.04 -3.68,0.74 -7.86,-0.11 -11.37,0.67 -2.9,0.65 -5.19,2.86 -8.01,3.33 -3.02,0.53 -6.35,-0.56 -9.37,0 -8.54,1.61 -15.52,7.71 -23.39,10.04 -2.5,0.72 -5.63,-0.02 -8.69,0.67 -2.8,0.61 -5.47,2.9 -8.02,3.33 -9.47,1.64 -19.9,-1.36 -29.41,0 -12.65,1.8 -24.2,11.46 -37.44,14.05 -9.79,1.9 -18.7,2.31 -28.07,4 -11.52,2.09 -20.61,10.23 -31.43,13.38 -10.92,3.16 -23.95,4.67 -34.76,8.69 -9.67,3.59 -18.57,11.68 -27.41,13.36 -2.71,0.53 -5.96,-0.39 -8.71,0 -3.47,0.51 -6.35,2.89 -9.36,3.35 -4.48,0.68 -9.12,-0.27 -13.36,0.67 -16.53,3.66 -28.83,14.87 -44.14,17.38 -4.89,0.79 -9.85,-0.69 -14.69,0 -11.71,1.64 -23.48,10.7 -36.78,14.04 -8.19,2.04 -16.19,2.64 -23.39,4.67 -8.62,2.44 -16.5,7.8 -25.42,10.69 -8.89,2.9 -17.51,7.12 -26.07,9.37 -3.38,0.89 -6.88,0.39 -10.02,1.34 -10.83,3.22 -19.31,12.38 -29.41,16.71 -6.38,2.73 -15.46,6.12 -22.73,7.35 -3.25,0.54 -6.19,-0.6 -9.36,0 -18.32,3.44 -38.47,23.27 -56.83,28.07 -3.56,0.93 -7.73,-0.06 -11.36,0.67 -5.19,1.05 -9.25,5.66 -14.04,6.69 -3.71,0.8 -7.98,-0.39 -12.03,0.67 -5.91,1.55 -9.87,6.37 -16.04,10.03 -15.57,9.21 -32.7,15.22 -51.49,22.06 -17.19,6.27 -30.29,21.01 -47.45,27.41 -12.78,4.76 -26.81,6.67 -38.78,12.04 -15.16,6.77 -28.52,22.45 -44.11,29.4 -2.96,1.33 -6.27,1.29 -9.36,2.67 -7.72,3.45 -13.78,10.22 -21.4,12.7 -10.14,3.3 -18.4,3.57 -26.07,7.36 -5.63,2.77 -8.35,7.44 -13.38,10.69 -13.85,8.95 -30.43,11.1 -44.11,20.06 -3.46,2.27 -5.96,5.74 -9.36,8.01 -2.84,1.88 -6.7,2.73 -10.03,4.67 -8.36,4.96 -16.01,12.91 -23.4,16.05 -12.77,5.42 -27.88,7.08 -38.11,13.38 -4.77,2.96 -8.17,8.07 -12.69,11.37 -6.31,4.58 -15.12,8.73 -22.74,13.38 -5,3.02 -9.82,7.86 -14.71,9.34 -5.43,1.65 -11.59,1.74 -16.71,4.7 -12.07,6.96 -26.36,20.78 -40.77,27.39 -9.65,4.44 -23.9,6.47 -30.76,12.04 -8.68,7.02 -15.57,18.39 -25.4,23.39 -9.99,5.08 -21.71,5.25 -31.43,8.7 -4.7,1.66 -13.07,10.01 -18.05,13.38 -2.89,1.94 -17.87,12.68 -21.4,5.34 -2.44,-5.1 9.1,-11.49 12.04,-16.04 3.61,-5.57 4.54,-11.81 8.02,-15.38 3.86,-3.95 11.45,-5.78 16.71,-9.38 9.47,-6.44 18.05,-20.48 28.07,-28.06 4.12,-3.1 11.37,-8.44 15.38,-9.37 2.55,-0.58 6.3,0.55 9.36,0 9.37,-1.62 18.67,-9.98 24.73,-16.04 3.89,-3.89 5.99,-11.26 10.69,-15.38 5.61,-4.87 14.78,-5.71 20.73,-10.67 3.73,-3.13 4.86,-8.97 8.69,-12.72 2.35,-2.32 6.62,-3.01 9.36,-5.34 3.25,-2.79 4.8,-7.75 8.02,-10.71 3.95,-3.6 10.02,-6.03 14.71,-9.37 5.12,-3.62 8.48,-9 12.03,-11.35 8.92,-5.95 17.67,-6.64 20.73,-18.73 4.7,-18.62 1.48,-37.87 4,-56.14 1.51,-10.9 4.62,-16.34 3.35,-25.4 -1,-7.15 -4.96,-19.24 -3.35,-31.42 0.43,-3.32 2.79,-6.43 3.35,-10.03 1.16,-7.43 -1.05,-14.77 0,-22.07 0.48,-3.38 2.84,-6.69 3.34,-10.03 1.14,-7.8 -0.96,-16.13 0,-24.07 0.55,-4.6 3.39,-8.78 4,-13.38 0.61,-4.52 -0.68,-9.5 0,-14.03 0.73,-4.67 4.99,-11.11 6.69,-18.06 0.67,-2.71 -0.19,-6.18 0.67,-8.69 1.26,-3.67 5.51,-6.19 6.69,-10.02 2.35,-7.62 2.22,-16.28 4.01,-24.74 3.6,-16.96 12.3,-28.09 20.05,-40.78 4.03,-6.59 5.3,-14.23 8.69,-21.38 5.78,-12.2 15.4,-23.39 22.07,-36.09 6.37,-12.19 14.35,-24.17 22.72,-34.78 4.87,-6.15 12.66,-10.46 17.38,-17.38 6.31,-9.26 10.36,-18.8 17.4,-28.07 3.97,-5.25 11.02,-11.03 16.71,-16.71 5.66,-5.66 11.75,-13.04 16.71,-16.71 7.11,-5.27 15.55,-8.51 23.39,-13.38 5.64,-3.48 8.4,-9.05 14.04,-12.69 12.45,-8.05 30.27,-14.57 46.14,-19.4 4.58,-1.39 8.44,-5.13 12.69,-6 3.04,-0.64 6.29,0.45 9.36,0 14.7,-2.2 30.97,-11.3 48.13,-14.05 4.21,-0.67 8.89,0.32 13.38,-0.67 5.8,-1.29 8.62,-5.46 14.7,-6.69 8.1,-1.61 15.91,1.15 23.4,0 9.81,-1.49 18.95,-5.95 28.75,-7.35 11.3,-1.63 23.39,1.94 36.1,0 2.22,-0.33 4.96,-2.11 8.02,-2.67z"/>
   <g>
    <path class="fil0" d="M900.8 1255.1c12.46,-4.21 29.41,8.73 39.43,15.36 9.88,6.53 19.44,11.5 28.09,18.06 4.87,3.69 8.18,9.95 12.69,13.36 6.71,5.09 12.92,8.93 19.39,15.38 5.7,5.72 11.64,13.03 17.38,17.38 2.91,2.22 6.81,3.08 9.36,5.35 6.15,5.51 10.79,15.41 18.05,25.4 8.98,12.36 14.99,19.8 20.72,34.76 2.68,6.98 9,14.77 5.35,24.74 -5.05,13.79 -27.42,14.05 -32.09,1.33 -3.37,-9.17 -2.84,-19.71 -5.34,-28.74 -4.08,-14.73 -15.79,-18.05 -24.74,-29.42 -5.41,-6.86 -9.34,-13.34 -16.04,-20.05 -9.97,-9.97 -20.02,-20.69 -30.76,-31.42 -7.32,-7.32 -12.03,-10.19 -20.72,-15.38 -8.63,-5.15 -14.53,-14.52 -22.07,-19.38 -5.72,-3.7 -14.99,-5.09 -19.38,-10.03 -4.74,-5.31 -7.18,-14.07 0.67,-16.71z"/>
   </g>
   <g>
    <path class="fil0" d="M781.13 1305.24c5.25,-1.25 18.96,1.39 24.07,3.33 10.85,4.14 12.11,17.12 17.38,29.42 2.15,4.99 7.79,12.94 11.37,18.72 2.68,4.32 6.45,9.5 10.03,13.36 3.02,3.26 7.73,4.63 10.69,8.02 3.19,3.67 10.65,13.43 13.38,18.05 5.02,8.5 6.24,36.68 4,53.49 -0.46,3.49 -2.84,6.82 -3.34,10.03 -1.55,9.86 1.15,17.18 0,25.4 -0.38,2.73 -2.75,6.18 -3.35,10.03 -1.06,6.98 0.08,14.07 -1.34,18.05 -4.47,12.68 -27.29,15.05 -32.09,0 -2.55,-8 -1.93,-26.52 -0.67,-35.42 0.46,-3.21 2.83,-6.54 3.35,-10.03 2.1,-14.26 2.21,-37.01 0,-50.8 -1.12,-6.92 -6.12,-16.44 -9.36,-23.4 -5.18,-11.08 -14.35,-19.31 -18.06,-28.74 -1.12,-2.86 -2.25,-9.55 -4.67,-12.71 -2.7,-3.51 -8.2,-4.48 -12.04,-8.02 -2.72,-2.5 -7.68,-8.75 -11.36,-14.04 -5.35,-7.68 -13.56,-21.05 2,-24.72z"/>
   </g>
   <g>
    <path class="fil0" d="M622.69 1327.29c11.56,-1.35 9.58,7.1 7.35,17.38 -2.22,10.39 0.76,25.12 -0.67,34.76 -1.25,8.5 -5.79,15.98 -6.02,21.39 -0.13,3.3 2.06,5.67 2.02,8.02 -0.16,6.79 -3.7,12.22 -2.68,19.38 1.01,7.11 5.12,14.91 6.69,22.73 2.84,14.13 4.67,27.61 8.02,40.12 2.74,10.24 8.51,19.05 10.03,28.74 3.44,21.89 -1.23,43.06 -8.7,56.16 -2.86,5.03 -16.19,15.29 -22.72,10.69 -4.49,-3.15 -0.27,-23.25 -2.68,-34.76 -0.57,-2.74 -3.11,-8.36 -3.34,-10.02 -1.18,-8.3 3.2,-16.45 3.34,-22.07 0.16,-6.16 -2.1,-13.84 -3.34,-20.72 -1.77,-9.89 -9.87,-19.8 -10.03,-29.42 -0.09,-4.4 2.83,-8.12 2.67,-12.03 -0.3,-7.79 -5.42,-14.05 -6.69,-20.73 -0.53,-2.87 0.41,-5.9 0,-8.69 -0.48,-3.25 -2.86,-6.23 -3.33,-9.36 -1.18,-7.63 2.16,-11.38 3.33,-19.38 0.93,-6.29 -0.84,-12.11 0,-18.05 1.19,-8.34 6.39,-17.65 7.36,-27.42 0.43,-4.4 -1.1,-9.75 0,-14.03 1.86,-7.24 13.27,-11.99 19.38,-12.71z"/>
   </g>
   <g>
    <path class="fil0" d="M1954.36 1358.71c14.88,-3.66 26.02,20.89 18.71,38.1 -5.34,12.59 -31.8,11.89 -36.1,-5.34 -3.66,-14.57 5.54,-29.86 17.38,-32.76z"/>
   </g>
   <g>
    <path class="fil0" d="M445.54 1472.36c13.52,-2.32 28.68,12.97 30.76,26.07 1.29,8.14 -4.6,16.32 -3.35,26.07 0.69,5.43 5.74,10.78 6.69,16.05 2.86,15.81 -2.19,33.73 1.33,44.79 3.38,10.55 15.93,16.15 16.71,23.4 0.54,4.84 -4.23,10 -6.01,14.71 -5.79,15.28 -7.11,34.02 -18.05,41.45 -5.56,3.76 -21.91,8.23 -27.42,7.36 -12.14,-1.93 -11.58,-16.69 -6.01,-27.42 2.62,-5.08 10.44,-7.89 12.69,-14.71 1.92,-5.77 2.31,-20.93 0,-32.08 -0.67,-3.25 -2.84,-5.93 -3.33,-9.36 -1.69,-11.68 1.54,-26.07 0,-36.11 -0.49,-3.2 -2.86,-5.83 -3.35,-8.68 -1.2,-6.98 0.77,-13.26 0,-18.72 -0.8,-5.73 -2.68,-12.77 -4,-16.71 -2.88,-8.62 -14.22,-11.01 -10.03,-26.07 1.6,-5.73 9.42,-9.36 13.36,-10.03z"/>
   </g>
   <path class="fil3" d="M1194.27 1488.41c16.19,-1.76 32.6,14.22 44.79,15.36 3.12,0.31 5.54,-1.49 8.69,-1.34 3.16,0.16 5.96,2.79 9.36,3.35 2.64,0.42 5.6,-0.4 8.02,0 10.84,1.76 20.77,8.95 31.42,10.7 8.65,1.41 18.37,-1.18 26.07,0 3.03,0.46 5.74,2.83 8.68,3.33 12.49,2.16 25.05,-1.42 36.11,0 22.66,2.93 38.24,17.14 60.15,21.4 4.03,0.78 8.42,-0.38 12.04,0.67 7.57,2.17 13.17,10.3 20.05,14.04 8.03,4.35 18.08,5.51 26.09,10.69 4.32,2.8 8.07,7.69 12.7,10.69 4.67,3.04 10.3,5.32 14.01,8.69 6.24,5.63 10.07,15.48 18.08,21.4 6.59,4.87 18.02,9.05 22.72,15.38 5.72,7.7 6.85,17.64 12.71,24.05 5.1,5.63 13.57,7.72 18.05,13.38 2.76,3.5 4.38,9.85 8.01,15.38 3.37,5.08 9.58,8.34 12.04,13.38 2.84,5.81 2.64,12.58 4.67,19.38 2.98,9.84 12.39,16.98 14.04,25.4 0.72,3.73 -0.06,6.72 0.67,10.03 1.5,6.73 8.65,12.47 10.04,18.72 1.13,5.25 -0.72,10.88 0,15.38 1.88,11.78 9.31,15.93 7.34,33.42 -0.34,3.11 -2.55,6.38 -2.67,10.04 -0.23,7.4 4.33,16.65 2.67,27.38 -1.22,7.92 -6.32,15.21 -6.67,22.75 -0.14,3.16 2.03,5.45 2,8.01 -0.06,2.69 -2.23,5.49 -2.67,8.71 -1.51,10.91 -2.09,19.41 -4.04,28.72 -1.48,7.2 -4.93,14.45 -8,20.74 -2.18,4.41 -6.18,6.79 -8.71,10.68 -5.02,7.8 -8.44,15.87 -14.01,23.41 -4.41,5.92 -10.44,13.61 -16.05,19.38 -2.09,2.12 -6.2,2.7 -8.03,5.34 -1.8,2.61 -1.4,7.51 -3.34,10.7 -2.35,3.83 -7.49,4.85 -12.71,8.68 -4.7,3.45 -12.12,11.11 -15.37,15.38 -4.64,6.15 -7.66,14.1 -14.05,17.38 -3.08,1.59 -7.31,1.77 -10.68,3.34 -7.84,3.68 -14.16,11.08 -22.08,14.71 -13,5.98 -27.59,8.04 -40.1,14.71 -4.76,2.55 -8.56,7.69 -13.38,10.04 -10.94,5.34 -22.34,5.81 -32.76,9.34 -6.67,2.29 -11.78,11.12 -18.05,12.71 -9.02,2.29 -18.57,-1.4 -26.06,0 -4.47,0.84 -6.38,5.05 -10.7,7.37 -6.27,3.33 -14.41,5.34 -18.72,8.01 -4.18,2.58 -7.98,7.98 -12.71,9.37 -3.28,0.96 -7.08,-0.2 -10.69,0.67 -7.11,1.71 -12.42,12.24 -21.4,14.01 -5.37,1.07 -10.81,-0.72 -16.03,0 -5.73,0.84 -12.38,5.05 -18.73,6.7 -3.41,0.9 -6.54,0.29 -9.36,1.33 -6.95,2.55 -8.63,10.25 -13.36,16.05 -3.44,4.21 -8.76,9 -12.7,11.37 -4.4,2.61 -9.72,2.53 -14.05,4.67 -7.57,3.77 -11.79,12.97 -17.38,17.38 -8.2,6.47 -16.87,9.71 -22.72,18.71 -3.68,5.66 -10.65,24.2 -12.04,33.43 -0.45,3.02 0.65,6.32 0,9.37 -0.87,4.03 -5.53,8.12 -6.69,13.34 -1.42,6.44 -0.6,14.86 -1.34,22.08 -0.27,2.64 -2.24,6.18 -2.67,9.34 -0.61,4.5 0.55,8.44 -0.67,11.37 -2.84,6.88 -10.92,5.22 -21.4,6.67 -7.68,1.07 -15.89,5.89 -25.4,7.37 -3.73,0.58 -7.46,-0.61 -11.36,0 -9.01,1.36 -18.13,5.4 -26.74,6.68 -3.45,0.52 -6.84,-0.41 -10.04,0 -4.62,0.58 -8.69,3.45 -12.69,4 -5.35,0.78 -30.4,2.67 -33.42,0.67 -5.43,-3.51 -1.08,-19.18 -2.67,-28.06 -1.3,-7.26 -10.47,-20.31 -15.37,-28.09 -3.93,-6.21 -12.01,-14.48 -17.38,-18.05 -4.67,-3.11 -10.56,-4.15 -14.71,-7.34 -3.57,-2.76 -5.87,-10.27 -9.36,-13.38 -13.3,-11.84 -42.11,-16.4 -62.85,-24.08 -7.76,-2.87 -17.59,-8.39 -27.41,-10.01 -4.35,-0.72 -8.24,0.43 -11.36,0 -12.88,-1.8 -24.93,-8.53 -38.78,-10.71 -4.57,-0.7 -9.75,0.7 -14.71,0 -4.67,-0.64 -8.64,-3.86 -12.69,-4 -3.54,-0.14 -7.11,2.55 -10.71,2.67 -2.83,0.09 -7.35,-2.21 -11.36,-2.67 -8.95,-1.01 -19.44,1.94 -22.73,-1.33 -4.41,-4.41 1.13,-14.13 2.02,-20.05 0.64,-4.41 -0.67,-9.31 0,-14.04 1.23,-8.88 6.51,-17.7 6.67,-23.42 0.08,-2.35 -2.84,-7.8 -3.34,-14.01 -0.48,-5.97 0.74,-12.97 0,-18.07 -0.55,-3.75 -2.9,-6.97 -3.33,-10.01 -0.84,-5.81 0.78,-13.14 0,-18.05 -0.77,-4.81 -5.34,-9.4 -6.69,-15.38 -1.23,-5.43 0.49,-11.6 -0.66,-18.05 -1.79,-9.86 -11.67,-18.36 -14.05,-33.42 -0.43,-2.73 0.67,-5.78 0,-8.7 -0.91,-4.01 -4.42,-6.65 -6.02,-10.01 -4.03,-8.59 -5.17,-16.22 -8.69,-26.75 -0.89,-2.65 -4.25,-4.79 -6.01,-8.68 -3.89,-8.62 -4.32,-18.63 -8.69,-25.42 -2.7,-4.18 -9.37,-8.12 -14.04,-14.04 -1.92,-2.4 -2.32,-5.69 -4.02,-8.01 -7.04,-9.6 -20.47,-22.86 -30.07,-25.42 -13.58,-3.56 -24.75,1.43 -23.4,14.05 0.84,7.86 13.52,14.51 18.71,21.38 4.37,5.78 9.69,12.62 12.71,17.38 9.47,15 15.33,35.95 22.05,51.47 1.57,3.63 4.98,6.41 6.02,9.37 3.42,9.66 4.38,20.46 8.02,29.42 1.47,3.62 4.86,6.67 6.02,10.01 2.52,7.31 5.35,16.91 7.36,24.75 2.28,8.99 2.65,14.74 4,26.05 0.56,4.79 3.42,9.17 4.01,14.04 2.02,16.77 2.21,44.97 -0.67,59.51 -1.4,6.96 -6.44,16.57 -6.69,23.39 -0.14,3.89 2.65,5.19 2.67,9.37 0.03,5.78 -4.83,17.73 -6.69,22.71 -4.87,13.18 -17.3,35.14 -26.73,42.13 -3.08,2.27 -8.6,3.57 -12.69,6 -4.76,2.84 -7.73,7.78 -10.71,9.38 -4.8,2.55 -12.13,3.16 -18.72,4.67 -18.96,4.33 -34.81,14.1 -59.49,10.68 -2.79,-0.38 -5.8,-2.71 -9.36,-3.34 -9.91,-1.71 -20.4,-1.8 -28.76,-4.67 -4.47,-1.54 -10.07,-4.84 -15.38,-7.34 -19.54,-9.31 -32.78,-26.29 -50.14,-37.46 -5.78,-3.71 -12.87,-4.79 -18.72,-8.68 -7.25,-4.84 -11.53,-13.11 -17.37,-20.71 -5.79,-7.6 -13.93,-11.7 -17.38,-18.08 -2.28,-4.21 -2.69,-9.49 -5.35,-14.01 -3.96,-6.82 -11.1,-11.87 -13.36,-19.41 -4.92,-16.31 -6.98,-32.32 -11.37,-50.81 -2.07,-8.76 -7.83,-16.22 -10.02,-24.72 -0.83,-3.23 0.07,-6.85 -0.67,-10.71 -1.14,-5.98 -4.7,-13.03 -3.33,-22.72 0.46,-3.37 3.19,-6.88 3.33,-10.71 0.13,-3.31 -1.97,-6.01 -2,-9.34 -0.08,-8.33 4.77,-22.49 6.02,-30.09 1.7,-10.42 -3.9,-19.15 -4.02,-28.75 -0.11,-10.27 8.81,-20.51 10.69,-30.09 0.76,-3.77 -0.48,-7.69 0,-11.35 1.4,-10.68 5.56,-21.61 8.02,-31.42 6.28,-24.93 21.41,-43.67 27.42,-67.52 1.84,-7.37 2.13,-14.8 5.34,-20.72 2.28,-4.21 14.58,-17.41 20.73,-20.74 2.01,-1.07 5.27,-0.7 8.02,-2 3.99,-1.86 7.26,-6.27 11.36,-8.01 2.86,-1.22 6.4,-1.36 9.36,-2.67 5.11,-2.29 8.81,-6.93 13.38,-8.7 10.87,-4.18 20.11,-6.74 29.41,-12.71 3.6,-2.29 6.69,-6.12 10.71,-8.68 5.89,-3.77 13.79,-6.18 22.05,-9.37 10.9,-4.18 18.8,-9.4 30.76,-13.36 13.1,-4.34 21.78,-14.61 32.76,-20.06 2.03,-1 5.02,-0.96 7.35,-2 5.15,-2.32 9.1,-7 13.36,-8.69 25.99,-10.23 53.31,-19.09 78.22,-33.43 17.81,-10.26 33.81,-20.84 51.47,-27.4 14.97,-5.56 31.16,-9.55 45.45,-16.05 15.24,-6.93 30.59,-17.36 46.8,-23.4 5.91,-2.2 12.62,-3.11 18.71,-5.35 21.38,-7.8 43.69,-16.13 66.85,-24.72 3.57,-1.33 7.06,-4.25 10.69,-5.35 7.34,-2.23 15.17,-2.71 23.4,-4.69 11.72,-2.8 22.64,-10.4 34.09,-13.36 11.72,-3.03 20.74,-5.28 33.42,-8.02 13.55,-2.93 24.81,-12.04 36.78,-14.04 4.67,-0.78 10.07,0.65 14.02,-0.67 6.39,-2.11 11.92,-6.82 18.73,-9.36 8.72,-3.25 19.73,-5.35 28.74,-8.69 4.42,-1.64 8.24,-5.18 12.04,-6.02 3.84,-0.84 7.64,-0.01 10.69,-0.67 9.58,-2.03 14.04,-7.15 21.38,-10.03 5.19,-2.03 13.49,-2.64 20.06,-3.33z"/>
   <path class="fil3" d="M1922.27 1504.44c7.92,-5.35 9.57,10.07 10.7,16.71 0.72,4.41 3.28,7.18 3.34,10.04 0.11,6.01 -4.99,22.37 -7.37,28.74 -2.09,5.67 -6.07,9.54 -6.67,14.71 -0.64,5.56 2.55,10.29 2.67,15.38 0.11,4.6 -2.21,11.31 -3.34,15.38 -3.1,10.93 -11.81,21.66 -13.38,30.74 -1.74,10.18 6.56,20.86 6.7,30.76 0.03,3.19 -2.7,6.1 -3.37,10.03 -0.49,3.02 0.52,6.63 0,9.36 -1.86,9.8 -9.08,19.68 -10.68,30.76 -1.65,11.45 2.27,26.04 0,37.45 -1.71,8.61 -9.31,16.94 -10.7,26.72 -1.63,11.29 1.63,23.79 0,35.42 -2.03,14.72 -8.91,28.61 -13.38,42.13 -3.16,9.54 -7.92,20.49 -8.01,27.42 -0.06,4.21 2.64,7.69 3.33,11.35 1.48,7.66 -1.97,13.46 -3.33,22.08 -0.47,2.93 0.55,6.56 0,9.34 -1.77,8.74 -8.36,16.69 -8.71,26.09 -0.43,12.27 3.68,22.31 1.33,34.09 -0.96,4.79 -2.09,9.69 -3.33,14.71 -2.79,11.29 -9,22.23 -10.71,34.09 -0.98,6.9 0.9,13.9 0,20.72 -2.32,18.33 -11.31,34.99 -14.01,53.47 -1.16,7.92 1.13,16.6 0,24.75 -0.43,2.99 -3.02,6.41 -3.37,10.01 -0.26,3.02 1.34,5.69 1.36,8.71 0.03,8.56 -4.09,16.04 -5.37,24.72 -0.52,3.66 0.58,7.63 0,11.37 -1.88,12.45 -8.94,23.33 -10.68,34.76 -0.93,5.98 0.78,12.18 0,18.05 -2.38,17.04 -10.36,32.73 -14.05,48.14 -2.15,8.93 -1.97,16.97 -2,26.72 -0.05,12.77 -6.93,23.3 -8.7,34.79 -1.71,11.17 3.89,41.06 -5.34,43.43 -5.1,1.34 -9.81,-6.03 -10.04,-7.34 -0.29,-1.62 2,-4.38 2,-8.03 0.03,-2.67 -2.03,-5.45 -2,-7.34 0.05,-2.75 2.29,-6.03 2.67,-9.37 0.82,-6.82 -0.87,-14.77 0,-20.72 1.05,-7.11 6.62,-16.74 7.37,-22.05 0.81,-5.92 -0.78,-11.81 0,-17.38 0.47,-3.39 2.81,-6.73 3.34,-10.04 1.1,-7.17 -0.96,-14.45 0,-21.38 1.39,-10.07 5.97,-19.62 7.34,-30.09 1.01,-7.78 -1.25,-16.42 0,-24.75 1.4,-8.97 7.8,-16.16 10.04,-25.39 1.25,-5.2 -0.12,-11.08 0.67,-16.71 0.49,-3.51 2.79,-6.44 3.34,-10.04 1.05,-6.76 -0.99,-14.36 0,-21.38 1.59,-11.29 5.83,-22.14 7.37,-33.43 0.9,-6.85 -0.96,-13.96 0,-20.72 0.46,-3.51 2.81,-6.61 3.34,-10.04 0.75,-4.9 -0.73,-9.89 0,-14.71 1.1,-7.46 6.3,-14.53 7.34,-22.05 0.61,-4.33 -0.58,-8.97 0,-13.38 0.49,-3.57 2.73,-6.56 3.37,-10.01 0.47,-2.79 -0.49,-5.8 0,-8.71 1.89,-11.69 8.59,-22.52 10.68,-33.42 0.61,-3.16 -0.49,-6.27 0,-9.34 0.49,-3.02 2.87,-5.72 3.33,-8.71 1.71,-10.88 -1.48,-21.24 0.67,-31.42 1.28,-6.01 5.43,-11.7 6.7,-18.05 1.71,-8.65 1.51,-17.5 4,-26.09 3.54,-12.15 12.33,-21.35 14.05,-33.42 1.68,-12.04 -2.15,-22.63 0,-33.42 0.96,-4.87 5.74,-8.65 6.67,-13.35 2.47,-12.3 -1.19,-26.29 0,-38.8 0.9,-9.48 5.89,-18.25 7.37,-26.72 0.67,-3.99 -0.52,-7.76 0,-11.37 1.1,-8.01 6.33,-15.15 7.34,-22.72 0.9,-6.63 -0.99,-13.61 0,-20.73 1.68,-12.12 7.95,-24.66 10.7,-38.11 0.53,-2.62 -0.52,-5.9 0,-8.69 0.53,-2.95 2.9,-5.27 3.34,-8.02 1.71,-10.85 -1.45,-22.6 0,-33.42 1.19,-8.83 6.09,-17.25 7.34,-26.07 0.52,-3.47 -0.47,-7.36 0,-10.69 0.55,-3.57 2.87,-6.66 3.37,-10.03 0.64,-4.6 -0.64,-9.62 0,-14.04 0.46,-3.48 2.81,-6.62 3.34,-10.03 0.98,-6.5 -2.27,-18.51 2,-21.4z"/>
   <g>
    <path class="fil0" d="M1106.02 1626.11c8.07,-2.19 10.73,1.79 16.05,2.67 3.51,0.6 7.73,-0.51 11.37,0 10.76,1.51 21.22,6.21 29.4,7.35 2.32,0.33 9.03,-0.71 14.05,0 3.35,0.48 7.88,3.09 9.36,3.35 9.33,1.57 25.91,0 39.44,0 13.55,0 31.89,-2.11 34.09,5.34 1.11,3.79 -1.68,11.29 -4.01,14.71 -5.05,7.41 -20.21,14.16 -30.08,14.04 -5.43,-0.07 -9.18,-3.24 -14.04,-4.02 -9.59,-1.55 -19.5,1.52 -29.42,0 -7.57,-1.16 -14.7,-5.39 -22.72,-6.69 -7.78,-1.23 -16.47,1.05 -24.74,0 -11.84,-1.48 -38.09,-13.71 -38.77,-25.4 -0.33,-5.85 5.51,-10.13 10.02,-11.36z"/>
   </g>
   <g>
    <path class="fil0" d="M1028.48 1629.45c8.78,-0.97 19.53,6.5 14.04,20.06 -1.7,4.18 -10.52,7.18 -16.04,10.69 -9.22,5.85 -18.61,17.31 -29.42,20.05 -3.12,0.79 -6.12,0 -8.69,0.67 -5.16,1.38 -8.36,5.63 -14.04,6.69 -1.63,0.31 -5.71,-0.42 -8.7,0 -6.74,0.97 -12.46,5.22 -18.71,6.69 -3.47,0.81 -7.07,0 -10.69,0.67 -10.77,2 -24.87,9.27 -34.76,10.71 -12.84,1.84 -30.11,1.39 -34.76,-2.68 -8.37,-7.3 -1.17,-24.67 6.68,-27.41 3.42,-1.19 6.91,0.13 11.37,-0.67 14.39,-2.58 28.86,-11.27 44.11,-14.04 8.56,-1.56 14.7,-1.08 21.4,-4 5.72,-2.51 7.04,-4.9 16.05,-6.69 6.02,-1.21 12.34,-5.21 18.05,-6.69 15.65,-4.07 29.89,-9.09 42.78,-14.04 0.36,-0.13 0.94,0.04 1.34,0z"/>
   </g>
   <g>
    <path class="fil0" d="M1295.88 1757.81c9.16,-1.85 15.93,3.37 24.07,4 7.63,0.61 14.9,-2.32 22.72,-1.33 12.41,1.56 23.33,11.26 34.76,14.04 19.18,4.67 40.62,4.38 46.8,20.72 1.79,4.76 4.03,16.04 4,20.05 0,3.77 -2.09,14.45 -4,19.38 -2.38,6.27 -21.5,24.29 -27.4,28.75 -9.4,7.11 -22.4,16.69 -36.12,20.05 -3.51,0.87 -12.36,3.25 -14.71,3.37 -2.32,0.09 -5.36,-2.06 -8.01,-2.03 -3.25,0.09 -6.51,2.29 -10.02,2.7 -25.33,2.87 -38.1,-1.28 -57.5,-8.71 -9.24,-3.54 -20.44,-8.56 -28.75,-14.71 -13.32,-9.87 -21.8,-20.2 -18.05,-44.77 3.18,-20.78 13.43,-32.12 28.09,-40.8 11.82,-6.99 32.41,-18.37 44.11,-20.72z"/>
   </g>
   <g>
    <path class="fil0" d="M481.65 1807.95c4.41,-1.45 13.36,-1.6 16.71,0 5.66,2.67 5.1,15.26 10.03,16.71 3.95,1.16 8.42,-3.45 12.03,-3.33 12.3,0.4 13.16,11.02 17.38,22.71 1.7,4.67 10,8.61 14.71,12.71 11.43,9.92 11.78,26.84 20.72,41.44 7.51,12.24 23.04,14.33 33.43,24.75 8.47,8.44 20.09,32.87 22.07,47.46 0.84,6.24 -0.89,10.65 1.33,16.05 4.5,10.88 15.12,19.03 17.38,32.06 0.72,4.18 -0.48,7.78 0,11.37 0.45,3.34 2.77,6.33 3.35,10.04 1.13,7.28 -0.74,14.25 0.67,20.71 2.07,9.58 8.18,17.04 10.03,24.72 0.83,3.51 -0.03,7.31 0.67,10.71 5.06,24.55 14.94,40.77 10.03,68.18 -1.52,8.5 -7.56,14.83 -10.03,24.75 -0.93,3.74 0.26,8.5 -0.67,14.01 -3.12,18.6 -15.1,36.5 -26.74,48.13 -15.8,15.82 -30.01,34.42 -69.52,28.09 -9.47,-1.51 -14.48,-9.09 -23.4,-10.71 -4.4,-0.79 -10.39,1.01 -16.05,0 -8.04,-1.42 -16,-9.55 -24.07,-13.35 -8.31,-3.92 -18.03,-4.85 -24.07,-10.71 -3.32,-3.22 -4.85,-10.04 -8.02,-14.71 -5.83,-8.56 -16.26,-11.11 -21.38,-18.05 -2.42,-3.25 -3.69,-8.94 -6.02,-15.38 -3.87,-10.59 -12.14,-22.66 -14.04,-32.76 -2.12,-11.29 -0.62,-21.94 -8.69,-29.42 -3.99,-3.68 -10.03,-3.45 -14.05,-5.34 -8.9,-4.18 -21.15,-16.83 -23.39,-28.09 -2.11,-10.59 -1.61,-34.27 0,-45.43 0.44,-3.11 2.6,-5.6 3.34,-8.71 2.79,-11.6 4.71,-24.23 7.36,-35.43 1.29,-5.48 7.11,-13.38 6.69,-20.05 -0.58,-9.14 -13.93,-12.77 -16.71,-21.38 -1.65,-5.1 -1.79,-13.64 -0.67,-21.41 3.17,-22.2 22.33,-44.97 30.74,-66.85 2.54,-6.56 6.62,-13.55 8.02,-19.39 0.99,-4.06 -0.27,-10.68 0.67,-14.04 0.84,-2.98 4.31,-4.23 6.69,-8.67 4.18,-7.8 5.53,-17.87 16.71,-18.05 3.13,-0.06 6.12,1.56 8.02,2.67 2.16,1.25 5.66,8.27 7.36,8.67 7.79,1.89 13.56,-22.17 21.4,-24.72z"/>
   </g>
   <path class="fil4" d="M1182.23 2362.14c8.02,-1.51 19.31,4.64 33.42,2.67 3.26,-0.43 6.61,-2.81 10.04,-3.34 7.65,-1.19 18.95,-0.81 24.74,0 3.53,0.49 6.47,2.84 9.36,3.34 5.28,0.93 13.09,-0.52 18.05,0.67 6.04,1.48 16.12,8.5 22.05,12.71 7.05,5.02 14.81,9.72 20.73,14.04 3.1,2.27 5.91,6.91 10.02,10.01 4.51,3.42 9.63,4.93 12.03,8.04 3.16,4.09 5.2,12.18 8.03,18.72 2.9,6.73 7.57,11.11 10.01,16.71 2.64,6.01 3.28,13.26 6.04,19.38 3.33,7.49 11.81,15.58 13.38,23.42 0.98,4.96 -0.32,10.33 0.67,14.68 1.3,5.89 5.74,10.16 6.67,14.71 1.8,8.71 1.65,17.12 4,25.42 2.41,8.41 8.33,17.67 10.04,28.75 1.13,7.49 -0.73,13.78 0.67,20.05 1.01,4.56 4.56,8.36 6.01,13.38 4.41,15.2 7.43,29.8 12.04,44.1 1.19,3.74 4.73,6.32 6.01,10.04 0.92,2.61 0.34,5.83 1.33,8.67 2.9,8.3 13.17,17.62 9.37,30.76 -2.38,8.24 -24.46,28.12 -33.42,35.43 -7.75,6.32 -12.94,9.25 -21.38,14.71 -4.27,2.76 -6.99,8.07 -11.37,11.38 -9.26,6.99 -20.8,12.3 -29.42,18.71 -4.73,3.52 -10.33,12.24 -15.36,14.71 -2.52,1.22 -6.54,1.25 -8.02,2 -9.14,4.58 -13.61,15.84 -20.73,19.38 -3.52,1.74 -7.59,1.86 -10.69,3.34 -5.46,2.61 -11.06,6.38 -16.05,10.04 -4.73,3.42 -7.62,8.94 -12.71,11.37 -11.52,5.49 -22.14,5.92 -32.08,10.68 -5.19,2.49 -8.14,7.28 -13.37,10.7 -14.67,9.55 -31.32,15.55 -47.47,23.39 -7.75,3.77 -13.55,13.03 -22.05,16.05 -9.43,3.34 -19.42,1.77 -29.42,4.7 -5.56,1.59 -9.25,8.38 -14.05,12.01 -5.5,4.18 -15.17,6.03 -14.02,17.38 0.54,5.37 7.83,9.51 23.4,7.37 8.39,-1.16 20.35,-4.76 30.74,-7.37 7.98,-1.98 16.54,-4.91 22.07,-7.34 5.43,-2.38 6.81,-7.37 12.03,-9.37 8.14,-3.08 17.32,-2.7 24.06,-5.34 5.31,-2.06 8.06,-8.21 13.38,-12.04 5.6,-4 12.06,-6.64 16.71,-10.01 5.47,-4 9.52,-12.62 16.71,-15.38 1.96,-0.76 7.1,-0.49 10.03,-1.34 10.73,-3.1 19.15,-15.55 28.74,-20.07 4.64,-2.18 9.33,-2.35 13.38,-4.67 9.81,-5.63 16.2,-14.42 26.74,-20.72 3.99,-2.38 8.98,-2.61 13.38,-4.67 9.92,-4.7 15.43,-17.35 24.72,-23.41 6.85,-4.44 14.95,-6.3 21.42,-12.01 7.66,-6.82 11.7,-17.93 18.72,-24.75 4.23,-4.12 12.12,-7.26 18.71,-12.04 8.13,-5.92 9.75,-8.67 18.72,-13.34 4.73,-2.47 5.51,-5.98 8.71,-6.04 6.38,-0.09 7.31,8.71 10.01,14.71 2.44,5.39 5.57,7.22 7.37,12.04 3.74,10.07 2.84,16.71 4.67,28.06 1.3,8.21 8.81,19.12 10.7,32.09 0.49,3.51 -0.52,7.26 0,10.71 0.49,3.57 2.84,6.67 3.34,10.04 1.56,10.68 0,23.68 0,36.1 0,10.53 1.82,28.9 -2,33.42 -1.65,1.95 -6.53,2.21 -10.04,4.01 -5.31,2.73 -9.25,9.89 -14.71,14.04 -2.52,1.92 -5.97,2.7 -8.67,4.67 -4.96,3.6 -8.47,8.73 -12.7,11.37 -4.15,2.55 -8.65,2.73 -14.05,5.34 -4.96,2.41 -7.37,7.43 -12.04,10.04 -3.63,2.03 -7.98,2.32 -12.68,4 -6.35,2.27 -10.21,4.62 -19.41,6.67 -10.36,2.38 -22.05,6.82 -32.76,10.71 -7.97,2.9 -15,7.98 -23.39,10.04 -2.82,0.67 -5.94,-0.12 -8.69,0.67 -8.4,2.32 -15.58,8.33 -24.07,10.01 -3.27,0.67 -6.7,0 -10.03,0.67 -3.31,0.67 -6.67,2.84 -10.03,3.34 -3.63,0.59 -7.73,-0.55 -11.37,0 -6.31,0.99 -12.29,5.57 -18.72,6.7 -4.65,0.81 -9.92,-0.61 -14.71,0 -4.41,0.55 -8.5,3.42 -12.69,4 -6.83,0.96 -14.05,-0.82 -20.73,0 -2.74,0.35 -5.42,2.35 -8.02,2.67 -6.91,0.87 -14.09,-0.43 -20.72,0.67 -2.58,0.43 -4.85,2.38 -7.36,2.67 -15.76,2 -32.35,-1.3 -48.13,0.7 -4.16,0.52 -7.89,3.33 -12.03,4 -15.72,2.53 -45.43,1.69 -62.18,0 -2.95,-0.28 -5.8,-1.97 -8.69,-2 -5.05,-0.06 -10.23,2.55 -16.05,2 -4.03,-0.4 -7.81,-3.25 -13.36,-4 -7.04,-0.99 -15.44,1.33 -24.73,0 -2.74,-0.41 -5.8,-2.79 -9.36,-3.37 -10.07,-1.63 -18.69,0.55 -20.73,-6.01 -2.61,-8.41 6.53,-25.03 12.04,-26.75 6.47,-1.97 11.98,0.44 18.71,-2 1.22,-0.44 3.99,-1.92 5.35,-2.67 14.41,-8.12 42.55,-31.95 50.81,-46.8 2.09,-3.77 1.94,-8.27 4,-12.68 1.78,-3.83 5.95,-6.67 8.02,-11.37 4.27,-9.64 7.6,-18.78 13.38,-28.09 3.9,-6.3 8.37,-14.39 11.36,-17.37 8.1,-8.1 24.73,-13.32 38.11,-15.38 14.25,-2.17 26.78,-0.2 38.77,-4 7.14,-2.26 14.75,-10.29 20.73,-14.71 6.73,-4.99 14.36,-11.99 21.38,-13.38 3.32,-0.64 10.72,0.67 15.38,0 4.85,-0.67 11.77,-3.42 16.71,-5.34 14.22,-5.51 29.61,-15.61 44.11,-24.05 8.3,-4.85 16.79,-10.56 23.4,-15.38 5.22,-3.8 7.2,-8.24 12.04,-11.37 9.72,-6.33 21.85,-9.29 32.76,-16.05 5.99,-3.71 12.94,-9.81 19.37,-15.38 18.83,-16.31 45.41,-27.53 60.84,-47.47 1.42,-1.82 12.57,-20.31 4,-23.39 -4.85,-1.74 -17.26,8.65 -23.39,13.38 -10.91,8.42 -20.54,19.99 -31.42,27.39 -3.66,2.5 -8.68,4 -12.71,6.7 -8.67,5.78 -15.48,15.29 -24.72,19.38 -6.89,3.04 -14.58,3.08 -20.06,4.67 -14.41,4.18 -20.66,18.6 -35.42,23.39 -3.48,1.13 -9.14,1.16 -11.36,2.03 -5.43,2.09 -8.79,8.44 -14.04,12.01 -7.94,5.39 -22.12,13.61 -30.76,15.38 -3.02,0.63 -6.21,-0.47 -9.36,0 -10.08,1.51 -23.61,7.28 -34.76,11.37 -12.49,4.58 -23.15,11.58 -34.76,16.04 -7.06,2.7 -14.52,3.13 -21.4,5.34 -7.71,2.46 -21.66,11.72 -32.09,13.38 -17.23,2.76 -13.94,-2.15 -16.71,-16.04 -4.04,-20.28 -16.39,-41.52 -20.72,-60.84 -0.9,-4.01 -0.03,-8.56 -0.67,-11.35 -1.42,-6.09 -8.82,-14.62 -10.03,-20.74 -1.12,-5.57 0.55,-12.13 -0.67,-18.05 -1.43,-6.9 -5.74,-13.23 -6.68,-18.71 -1.42,-8.19 -1.03,-18.89 0,-26.05 0.93,-6.56 5.28,-11.73 5.34,-17.38 0.14,-11.08 -9.21,-15.78 -12.02,-26.75 -0.94,-3.66 0.17,-8.07 -0.67,-11.37 -1.43,-5.63 -10.12,-14.04 -16.04,-18.72 -14.01,-11.05 -39.27,-15.78 -54.16,-25.39 -4.25,-2.75 -7.78,-8.93 -12.69,-10.04 -6.38,-1.42 -16.97,0.81 -22.73,0 -14.94,-2.09 -32.17,-12.22 -49.47,-6.68 -6.09,1.95 -12.71,13.32 -18.05,20.05 -5.68,7.17 -10.17,17.84 -14.05,24.05 -3.99,6.47 -11.41,11.29 -13.36,18.75 -0.99,3.68 0.01,7.6 -1.34,12.68 -0.29,1.07 -3.47,9.14 -6.69,7.37 -3.61,-2 -2.21,-27.85 -1.33,-32.09 1.17,-5.68 4.41,-11.06 3.33,-19.38 -0.54,-4.18 -2.74,-6.64 -3.33,-9.37 -0.53,-2.35 0.37,-6.67 -0.67,-11.37 -2.41,-10.73 -9.3,-15.17 -6.69,-33.43 0.58,-4.06 2.35,-9.54 4,-14.01 2.72,-7.31 8.96,-13.14 12.71,-20.74 3.88,-7.83 6.06,-15.43 10.69,-21.38 10.34,-13.24 29.13,-29.81 43.45,-39.43 7.53,-5.08 15.26,-10.39 24.73,-12.04 8.6,-1.48 16.67,-0.14 24.07,-2 4.21,-1.08 7.92,-4.58 12.04,-5.34 11.26,-2.15 21.12,-2.18 31.4,-3.37 13.74,-1.57 25.77,-11.99 40.78,-12.01 8.26,-0.03 15.93,2.38 24.07,1.33 4.18,-0.55 7.86,-3.37 12.04,-4.03 10.68,-1.63 21.69,-1.86 32.08,-3.33 5.8,-0.82 11.59,-5.29 17.4,-6.01 2.99,-0.38 5.99,1.07 8.68,0.67 3.54,-0.53 7.3,-4.5 12.03,-5.34 4.23,-0.78 8.92,0.67 12.71,0 5.72,-1.05 10.24,-6.32 15.37,-6.7 3.71,-0.26 7.07,2.67 10.04,2.67 2.61,0.03 6.4,-2.78 10.69,-3.33 6.75,-0.84 15.45,0.81 20.72,0 3.41,-0.52 6.47,-2.26 8.69,-2.67z"/>
   <path class="fil3" d="M1680.95 2415.61c10.1,-2.26 14.13,3.46 23.39,6.04 3.8,1.05 8.38,0.29 10.71,1.34 5.95,2.64 18.05,25.12 18.05,32.09 0,11.14 -9.58,12.19 -15.38,18.72 -6.1,6.85 -7.61,21.85 -5.37,32.76 3.6,17.29 13.67,26.35 6.03,43.44 -1.62,3.62 -5.02,6.09 -6.03,9.37 -1.57,5.22 -0.12,11.84 -1.34,14.71 -2.23,5.28 -13.05,7.55 -17.38,12.68 -3.71,4.44 -4.27,9.92 -7.34,18.08 -2.67,7.05 -8.85,13.52 -10.04,20.71 -1.13,6.85 0.43,13.93 -2,16.71 -4.09,4.67 -23.18,2.67 -35.43,2.67 -14.07,0 -30.18,-1.1 -38.09,0 -4.67,0.64 -7.98,3.34 -12.71,3.34 -4.32,0 -7.26,-2.61 -12.04,-3.34 -20.69,-3.16 -45.7,-0.61 -66.85,-3.33 -4.52,-0.59 -8.59,-3.45 -12.71,-4.04 -9.34,-1.3 -19.21,2.12 -26.72,0 -9.32,-2.61 -11.87,-19.03 -17.38,-33.42 -2.44,-6.35 -8.15,-15.47 -9.37,-22.72 -0.38,-2.23 0.24,-6.56 0,-8.01 -0.64,-4 -3.51,-8.65 -4,-12.04 -0.84,-5.8 0.81,-13.06 0,-18.05 -0.69,-4.44 -4.79,-9.32 -6.01,-13.38 -2.32,-7.63 -8.32,-25.22 -3.37,-31.42 1.69,-2.09 13.26,-4.15 22.08,-5.34 4.27,-0.58 7.69,-3.31 9.34,-3.33 3.25,-0.06 6.64,2.81 10.04,3.33 11.81,1.8 31.28,1.69 44.13,0 4.99,-0.67 8.15,-3.31 12.01,-3.33 3.28,-0.06 6.39,2.55 11.37,3.33 5.51,0.84 12.88,-0.72 18.05,0 5.39,0.75 9.95,3.89 14.71,4 7.34,0.18 12.97,-2.84 22.72,-4 3.19,-0.38 6.18,-2.64 8.03,-2.67 6.33,-0.09 13.03,5.66 20.05,6.67 8.82,1.28 16.68,-2.55 26.09,-2.67 7.54,-0.09 15.61,5.48 22.05,5.34 13.2,-0.3 31.13,-16.81 24.72,-34.09 -3.31,-8.97 -19.12,-7.05 -28.06,-15.38 -4.61,-4.29 -9.87,-14.25 -6.03,-23.39 2.15,-5.05 11.14,-9.37 20.08,-11.37z"/>
   <path class="fil3" d="M1793.24 2429.65c11.26,-0.84 11.2,12.16 16.04,22.05 3.63,7.4 12.8,11.17 13.38,18.05 1.05,12.28 -18.16,40.62 -30.08,46.13 -2.76,1.28 -11.35,4.5 -17.38,4 -10.5,-0.84 -25.07,-8.94 -22.05,-24.06 2.88,-14.48 20.34,-20.74 20.72,-36.76 0.09,-3.95 -8.07,-20.34 -1.34,-25.41 1.48,-1.11 8.15,-0.64 11.37,-1.34 4,-0.84 6.01,-2.41 9.34,-2.67z"/>
   <g>
    <path class="fil0" d="M1164.18 2485.12c3.56,-0.67 20.59,-2 30.09,-0.67 2.86,0.41 6.18,2.73 8.69,3.37 11.04,2.67 24.5,5.19 18.05,16.71 -1.64,2.9 -21.18,8.04 -30.76,6.68 -2.65,-0.38 -7.25,-3.28 -10.02,-3.34 -5.92,-0.14 -17.37,5.05 -28.07,6.67 -4.83,0.76 -9.91,-0.58 -14.05,0 -4.74,0.67 -8.78,3.51 -12.69,4 -4.7,0.61 -10.36,-0.58 -14.04,0 -18.67,2.99 -29.35,19.21 -46.13,24.08 -9.16,2.64 -17.28,3.71 -25.4,9.34 -7.63,5.31 -24.66,31.92 -36.1,28.09 -3.6,-1.22 -7.7,-10.02 -4,-18.72 1.36,-3.22 7.15,-4.73 10.69,-7.37 10.3,-7.63 15.03,-22.54 29.41,-29.39 6.28,-2.99 14.17,-4.24 21.4,-8.71 9.18,-5.66 17.65,-14.22 26.06,-16.71 7.75,-2.29 17.16,-2.7 24.74,-4 3.49,-0.61 5.99,-2.87 8.69,-3.34 7.08,-1.25 16.39,0.72 22.07,0 7.49,-0.98 13.97,-5.28 21.38,-6.7z"/>
   </g>
   <path class="fil3" d="M1806.61 2548.64c3.25,-0.06 10.47,5.1 12.04,11.37 4.47,17.87 -6.76,39.55 -16.71,42.1 -16.65,4.29 -33.8,-1.65 -40.13,-10.01 -5.63,-7.46 -16.19,-24.9 -4,-30.09 2.75,-1.16 7.98,-0.09 12.71,-0.67 12.68,-1.59 23.56,-12.51 36.09,-12.71z"/>
   <path class="fil3" d="M868.04 2580.07c3.93,-1.4 5.89,1.71 12.69,2.67 9.82,1.39 17.67,1.51 24.07,4.67 5.61,2.82 8,8.07 12.7,11.37 6.98,4.91 18.68,10.1 28.74,12.04 3.8,0.72 7.84,-0.57 11.36,0.67 2.69,0.93 17.18,13.03 19.39,19.38 1.19,3.42 -0.1,7.72 0.67,11.37 2.45,11.81 12.04,22.37 14.04,33.42 2.04,11.35 -6.01,19.39 -3.35,34.09 0.99,5.43 5.78,10.07 6.69,14.71 0.7,3.48 -0.47,7.84 0,11.34 0.61,4.65 3.12,9.4 4.69,14.05 1.73,5.2 2.03,10.33 3.34,15.38 6.76,26.2 22.95,52.14 17.38,91.6 -0.35,2.44 -2.52,6.18 -3.34,10.01 -0.77,3.54 0.16,7.69 -0.67,10.71 -0.76,2.75 -4.72,6.03 -6.69,9.34 -5.5,9.29 -9.46,23.1 -15.38,32.09 -5.69,8.68 -18.34,23.65 -33.43,17.38 -13.77,-5.68 -4.07,-54.43 -21.39,-55.47 -4.59,-0.26 -10.04,5.63 -11.36,9.37 -3.03,8.61 0.77,21.12 -0.67,31.39 -0.6,4.24 -3.27,7.78 -3.35,10.71 -0.13,4.82 2.86,8.39 2.68,12.04 -0.25,5.08 -3.57,10.24 -5.35,12.04 -10.04,10.04 -50.07,7.75 -58.16,1.34 -11.85,-9.43 9.01,-6.47 16.71,-8.71 3.13,-0.9 10.8,-3.98 12.71,-8.67 2.74,-6.79 -2.06,-17.18 -2.69,-20.75 -2.68,-15.52 7.26,-48.6 -10.69,-46.1 -11.29,1.57 -12.54,31.16 -16.71,44.77 -1.21,3.95 -5.32,8.67 -6.02,11.37 -1.07,4.15 0.42,13.23 -2,14.71 -3.6,2.21 -17.28,-9.87 -19.38,-12.71 -6.61,-8.94 -10.16,-23.3 -13.38,-39.43 -0.71,-3.6 -2.89,-6.47 -3.34,-9.38 -0.77,-4.93 0.49,-11.26 0,-14.71 -0.85,-5.98 -4.26,-7.98 -3.35,-16.71 0.57,-5.28 4.93,-11.52 6.69,-19.38 2.37,-10.5 0.97,-18.16 6.02,-20.72 7.5,-3.8 18.97,-0.38 26.73,-5.34 4.29,-2.75 8.56,-10.5 8.69,-15.37 0.12,-4.12 -4.01,-8.27 -5.34,-13.38 -2.81,-10.79 -5.29,-24.41 -5.35,-36.76 -0.03,-6.01 1.99,-10.65 1.34,-15.38 -0.51,-3.71 -2.84,-6.47 -2.67,-10.04 0.23,-4.99 5.36,-5.45 6,-11.37 0.31,-2.73 -2.04,-5.43 -2.67,-8.67 -1.16,-6.07 -1.59,-15.41 0,-23.39 0.65,-3.28 2.83,-6.07 3.35,-9.38 0.57,-3.71 -0.56,-7.66 0,-11.37 0.59,-3.8 3.19,-7.48 3.34,-11.34 0.18,-4.39 -2.64,-8.04 -2.67,-11.37 -0.03,-2.06 2.25,-5.54 2.67,-8.71 2.15,-16.02 -3.96,-35.69 6.69,-39.43z"/>
   <g>
    <path class="fil0" d="M1370.75 2581.4c4.44,-0.72 10.3,1.74 10.7,6.7 0.44,5.54 -10.56,14.53 -15.38,19.38 -8.94,8.94 -13.32,14.19 -25.41,18.72 -9.17,3.42 -17.27,10.5 -25.4,12.7 -2.51,0.67 -5.93,-0.2 -8.69,0.67 -8.22,2.55 -15.25,12.27 -22.05,16.71 -7.93,5.17 -20.32,11.87 -30.08,14.68 -7.24,2.09 -13.9,1.95 -20.05,4.7 -5.68,2.53 -12.15,8.53 -20.73,10.01 -9.84,1.72 -35.92,1.45 -38.78,-2 -7.53,-9.15 13.78,-19.12 20.06,-20.72 2.64,-0.67 5.51,-0.09 8.02,-0.67 11.06,-2.58 17.48,-8.53 26.07,-12.7 5.88,-2.84 12.01,-2.64 16.05,-6.01 2.33,-1.98 4.09,-7.52 6.69,-10.04 4.23,-4.09 17.22,-11.72 25.4,-13.38 3.82,-0.75 8.14,0.55 12.03,0 6.41,-0.87 13.93,-3.95 19.38,-6.67 5.82,-2.93 9.97,-7.95 16.04,-10.04 10.85,-3.69 21.76,-4.62 29.42,-9.34 6.38,-3.92 10.27,-11.67 16.71,-12.71z"/>
   </g>
   <path class="fil4" d="M601.97 2590.1c9.03,-2.06 13.83,3.42 19.38,8.67 4.37,4.12 7.5,4.73 10.03,8.04 2.55,3.27 3.15,8.56 4.69,12.68 2.89,7.77 9.31,15.61 12.71,24.75 9.76,26.4 22.86,44.97 40.77,64.18 9.56,10.24 28.68,18.95 45.47,23.39 5.67,1.51 11.37,0.67 12.69,5.34 1.8,6.38 -12.48,18.25 -20.72,18.08 -8.43,-0.23 -15.3,-13.32 -20.06,-20.08 -7.05,-10.01 -16.93,-17.35 -27.41,-24.72 -7,-4.94 -13.25,-10.79 -21.38,-16.71 -9.47,-6.91 -20.38,-12.07 -28.75,-18.05 -3.37,-2.44 -6.33,-6.79 -10.69,-10.04 -9.81,-7.25 -26.68,-19.5 -30.76,-31.43 -5.56,-16.3 2.55,-41.49 14.04,-44.1z"/>
   <path class="fil3" d="M1724.38 2608.15c14.51,-1.83 16.05,20.49 28.75,26.72 2.12,1.04 9.43,3.92 13.38,4.7 5.92,1.16 8.01,-3.13 11.35,2 4.64,7.11 -22.81,22.66 -28.06,24.05 -3.66,0.96 -8.48,1.3 -11.37,0.67 -10.36,-2.29 -30.67,-25.76 -24.06,-48.8 0.87,-3.11 3.89,-8.59 10.01,-9.34z"/>
   <path class="fil3" d="M809.88 2654.95c13.06,-1.74 9.3,13.52 3.34,17.38 -0.78,0.49 -5.51,1.07 -8.02,2 -6.67,2.41 -11.43,8.53 -20.05,6.01 -2.68,-0.78 -16.13,-18.8 -7.35,-24.72 3.25,-2.21 7.53,1.59 10.69,2 8.36,1.01 16.31,-2 21.4,-2.67z"/>
   <path class="fil3" d="M1718.38 2703.06c5.86,-1.62 5.05,23.77 4,30.76 -1.36,9.19 -6.99,22.31 -10.04,36.09 -2.5,11.37 1.36,24.99 -0.67,38.8 -1.66,11.23 -7.4,24.2 -10.01,36.1 -1.66,7.54 0.28,13.93 -0.67,20.72 -0.46,3.25 -2.79,6 -3.34,9.37 -0.46,2.76 0.55,6.33 0,9.34 -3.97,20.83 -14.56,35.08 -16.04,54.84 -0.58,7.37 2.21,13.49 2,20.72 -0.2,6.38 -6.01,13.87 -7.37,22.05 -1.65,10.13 -1.71,11.26 -5.34,20.05 -0.52,1.25 -0.84,3.05 -2,6.04 -3.16,8.04 -6.12,2.5 -4.67,-6.04 0.64,-3.89 2.87,-5.45 3.34,-8.67 1.74,-12.33 -1.54,-18.74 0,-28.75 1.13,-7.4 5.16,-14.88 6.67,-22.72 0.64,-3.25 0.03,-6.99 0.67,-10.04 0.67,-3.13 2.79,-5.66 3.34,-8.68 1.25,-6.78 -0.09,-13.8 0.67,-20.74 0.93,-8.42 4.64,-16.42 6.04,-24.72 0.58,-3.63 -0.55,-7.55 0,-11.37 0.58,-4.06 3.42,-7.98 4,-12.04 0.52,-3.63 -0.49,-7.26 0,-10.68 0.46,-3.19 2.81,-6.07 3.33,-9.37 0.96,-5.89 -0.69,-13.87 0,-18.72 0.47,-3.19 2.87,-6.27 3.34,-9.34 0.58,-3.68 -0.52,-7.6 0,-11.37 1.71,-11.75 9.14,-21.82 10.71,-30.75 1.3,-7.34 -0.81,-14.25 0,-21.39 0.69,-6.03 2.75,-13.78 4,-20.71 0.78,-4.3 4.79,-17.81 8.03,-18.75z"/>
   <path class="fil4" d="M591.28 2805.36c6.85,-1.97 14.13,5.6 20.72,8.01 2.5,0.93 5.38,0.47 7.35,1.34 3.34,1.51 5.37,5.74 9.36,6.67 2.99,0.72 6.38,-0.43 9.36,0 6.11,0.93 14.59,5.14 26.07,3.37 3.63,-0.58 9.23,-2.15 14.04,-3.37 11.16,-2.75 18.75,-11.23 28.74,-14.01 2.33,-0.67 5.2,-0.53 6.02,-0.67 1.72,-0.35 3.35,-2.67 4.69,-0.67 0.93,1.36 -6.02,10.83 -7.36,12.01 -1.86,1.66 -4.87,2.21 -7.35,4.04 -6.85,4.99 -10.62,12.45 -17.38,17.38 -3.48,2.52 -8.03,3.6 -12.04,6.01 -12.32,7.46 -18.71,16.8 -42.78,13.38 -5.45,-0.78 -16.56,-5.51 -24.07,-8.03 -13.96,-4.67 -28.46,-5.34 -29.41,-18.72 -0.58,-8.24 6.99,-24.72 14.04,-26.72z"/>
   <path class="fil3" d="M789.15 2989.87c18.93,-4.73 2.21,18.75 0,24.72 -3.48,9.49 -5.28,21.71 -10.69,28.09 -5.94,6.99 -26.75,18.8 -37.43,22.05 -5.35,1.62 -12.41,3.83 -17.39,4.67 -3.12,0.55 -6.33,-0.72 -9.36,0 -3.66,0.9 -6.17,5.05 -10.03,6.7 -4.48,1.91 -11.2,2.61 -16.71,4.67 -4.91,1.82 -9.04,5.43 -12.03,6.01 -3.49,0.7 -7.79,-0.41 -11.37,0 -10.44,1.25 -19.92,6.3 -36.1,4.03 -8.76,-1.25 -18.73,-7.75 -26.07,-10.04 -2.26,-0.7 -9.34,-1.3 -10.02,-2.67 -2.25,-4.47 7.43,-10.04 10.02,-13.38 4.06,-5.2 5.79,-10.42 10.03,-14.72 3.95,-4 8.96,-6.32 14.04,-10 7.03,-5.14 15.33,-13.58 25.4,-15.38 15.96,-2.87 29.77,1.91 43.45,0 3.06,-0.43 6.12,-2.73 9.36,-3.37 3.78,-0.72 7.51,0.11 10.69,-0.67 4.2,-1.01 7.73,-4.41 12.04,-6.01 18.27,-6.79 36.91,-11.72 53.48,-19.38 3.18,-1.48 4.63,-4.35 8.69,-5.34z"/>
   <path class="fil3" d="M875.39 3003.88c6.2,-1.82 18.59,-1.16 21.38,2.03 3.12,3.51 4.18,22.54 0.67,26.05 -5.49,5.49 -26.1,-0.14 -28.07,-4 -4.64,-9.05 -1.07,-22 6.02,-24.09z"/>
   <path class="fil3" d="M1663.54 3017.26c2.52,-0.15 2.84,24.63 2.03,30.08 -0.55,3.48 -2.93,6.18 -3.37,8.71 -1.77,10.24 1.42,20.95 0,32.06 -1.07,8.61 -5.97,17.18 -7.34,26.08 -0.58,3.69 0.55,7.84 0,11.37 -1.45,9.49 -6.47,18.37 -7.34,27.39 -0.55,5.46 0.78,10.91 0,16.05 -0.46,2.99 -2.73,5.31 -3.37,9.37 -2.21,14.3 5.02,37.28 -4.67,39.43 -4.62,1.05 -17.62,-9.71 -18.05,-14.04 -0.47,-4.67 7.4,-10.71 9.37,-17.38 0.75,-2.64 0.67,-5.89 1.33,-8.67 2.87,-12.19 8.27,-25.65 10.01,-36.1 0.64,-3.83 -0.46,-7.92 0,-11.38 0.64,-4.78 3.48,-8.73 4,-12.7 1.4,-10.36 -1.13,-20.11 0,-28.06 0.49,-3.42 2.93,-6.68 3.37,-9.38 0.76,-4.81 -0.55,-10.82 0,-14.71 0.43,-3.22 2.7,-6.01 3.34,-9.34 2.58,-13.43 2.09,-25.82 9.34,-37.46 0.35,-0.49 0.59,-1.27 1.34,-1.33z"/>
   <path class="fil3" d="M1280.5 3045.34c10.39,0.03 6.51,3.86 7.35,13.38 0.23,2.67 2.8,5.87 3.34,9.34 0.74,4.73 -0.27,9.52 0.67,13.38 1.83,7.46 7.66,11.03 10.04,17.38 1.9,5.11 -0.13,9.17 0.67,14.71 0.8,5.63 5.83,10.18 6.69,15.38 1.81,11.08 -1.25,23.3 6.01,31.42 2.58,2.88 6.72,2.03 10.71,4 4.61,2.27 6.96,7.66 10.69,9.37 8.62,3.92 17.64,2.64 27.42,4.01 6.24,0.87 13.06,4.87 20.72,5.34 4.47,0.26 10.04,1.4 14.04,1.34 3.08,-0.03 5.69,-2.7 9.34,-2.67 2.96,0.03 6.18,2.75 10.04,3.33 4.73,0.72 10.48,-0.49 14.05,0 3.25,0.47 6.5,2.84 9.34,3.34 18.02,3.13 32.3,-0.72 46.8,4.03 3.71,1.22 6.32,5.75 10.04,6.67 3.25,0.84 6.7,-0.4 9.34,0 6.93,1.11 15.58,4.27 21.38,8.04 6.18,3.97 10.42,13.93 18.08,16.71 7.63,2.75 13.72,2.26 19.38,4.67 2.81,1.19 4.91,3.83 8.01,5.34 2.29,1.11 5.66,0.79 8.03,2.01 2.9,1.54 5.08,5.19 8.01,7.37 2.99,2.17 6.82,3.34 9.37,5.34 6.76,5.34 10.97,14.59 19.39,20.05 2.46,1.63 6.87,1.34 9.34,3.34 3.05,2.46 5.45,9.54 8.04,13.38 6.01,8.93 11.23,21.93 7.34,41.46 -2.32,11.66 -18.13,25.09 -31.42,27.38 -4.56,0.82 -13.06,0.99 -15.35,-1.33 -4.64,-4.64 -0.26,-25.3 -1.36,-32.09 -1.01,-6.41 -7.4,-11.69 -10.01,-17.38 -3.34,-7.2 -4.81,-15.15 -8.71,-21.38 -7.2,-11.61 -21.58,-21.9 -38.09,-24.05 -12.59,-1.66 -18.89,2.67 -16.05,15.38 3.02,13.43 22.11,17.44 27.42,33.42 1.1,3.31 0.38,6.67 1.33,10.01 2.03,7.2 11,14.39 13.38,23.42 1.95,7.48 1.74,20.22 -2.69,23.39 -3.8,2.73 -14.34,0.46 -21.38,1.33 -3.89,0.49 -8.3,3.37 -12.71,4 -10.36,1.51 -21.42,-1.51 -32.09,0 -3.45,0.49 -6.18,2.82 -9.34,3.34 -13,2.21 -40.71,0.84 -42.79,-4 -2.53,-5.89 7.6,-23.12 -5.34,-24.06 -9.05,-0.67 -23.33,23.65 -31.42,27.39 -4.47,2.09 -13.58,2.9 -20.05,4.7 -3.51,0.99 -11.95,7.28 -18.71,9.34 -9.09,2.75 -26.41,7.66 -30.09,2 -1.23,-1.88 0.46,-4.47 0,-8.01 -0.38,-2.81 -2.38,-5.37 -2.67,-7.37 -0.69,-4.56 0.5,-9.11 -0.67,-13.35 -1.9,-6.84 -9.85,-17.84 -16.04,-22.75 -3.93,-3.08 -8.88,-4.18 -12.71,-7.34 -4.4,-3.66 -9,-9.03 -12.03,-13.38 -3.73,-5.31 -6.25,-13.55 -11.37,-18.72 -3.22,-3.25 -15.62,-9.46 -19.38,-9.38 -9.18,0.26 -14.88,11.9 -11.36,21.42 2.91,7.9 11.29,23.59 18.71,34.76 6.65,9.98 19.69,14.3 26.07,23.39 7.21,10.24 13.62,27.97 -5.36,30.09 -9.62,1.07 -29.39,-1.82 -40.77,-3.34 -7.05,-0.96 -14.96,1.07 -17.38,-1.33 -3.13,-3.13 -0.74,-7.37 -1.35,-10.71 -0.31,-1.68 -2.59,-4.87 -3.34,-8.71 -0.67,-3.37 -0.42,-8.94 -1.34,-12.01 -1.88,-6.26 -7.77,-10.79 -12.04,-17.38 -6.85,-10.59 -7.08,-21.47 -15.36,-24.08 -17.04,-5.34 -16.05,11.17 -16.05,26.09 0,7.9 -0.93,16.62 0.67,20.72 1.13,2.9 22.83,15.35 12.02,26.09 -3.54,3.51 -25.72,0.78 -32.09,1.33 -22,1.92 -55.54,-2.61 -74.21,0 -3.74,0.53 -7.31,3.34 -10.69,3.34 -3,0 -6.77,-2.84 -10.69,-3.34 -11.46,-1.45 -23.79,5.08 -36.09,3.34 -2.92,-0.41 -5.85,-2.76 -9.38,-3.34 -11.31,-1.86 -32.16,-2.15 -47.45,0 -3.93,0.55 -5.58,2.7 -9.36,3.34 -10.44,1.71 -25.23,0 -40.12,0 -14.46,0 -29.75,1.59 -40.11,0 -3.42,-0.52 -6.44,-2.9 -9.36,-3.34 -7.21,-1.13 -14.96,0.78 -22.07,0 -5.83,-0.67 -11.08,-2.84 -16.71,-3.33 -11.1,-0.99 -24.88,-0.59 -32.09,-4.7 -4.48,-2.55 -5.08,-10.79 -9.36,-12.71 -2.51,-1.1 -6.18,0 -10.03,-0.67 -3.38,-0.59 -6.54,-2.9 -9.36,-3.34 -11.77,-1.8 -20.06,4.96 -30.09,-1.34 -3.24,-2.03 -7.14,-10.04 -7.36,-12.7 -0.13,-1.77 2.25,-4.58 2.68,-9.34 0.72,-7.98 0.48,-13.58 4.67,-20.05 2.9,-4.5 10.36,-12.68 16.71,-17.38 9.01,-6.68 21.83,-12.33 30.75,-20.75 7.13,-6.7 11.41,-15.64 16.71,-19.38 5.98,-4.2 14.63,-7.28 22.74,-11.34 8.38,-4.23 17.1,-9.69 22.71,-10.71 4.76,-0.87 11.13,0.14 14.05,-0.67 6.66,-1.86 13.27,-9.34 22.07,-12.71 11.45,-4.38 26.13,-8.47 34.09,-16.04 7.15,-6.79 15.83,-21.03 18.72,-30.76 0.96,-3.19 0.38,-6.88 1.33,-10.01 2.1,-6.87 8.58,-12.01 10.03,-20.07 0.84,-4.64 -0.67,-12.62 0,-18.05 0.45,-3.51 2.45,-5.89 3.35,-10.01 2.25,-10.35 2.31,-28.26 0,-39.46 -1.36,-6.56 -9.97,-19.59 -8.69,-22.72 1.89,-4.64 15.5,-6.18 22.73,-5.34 7.61,0.87 14.23,6.09 22.05,7.34 8.46,1.36 17.73,-2.27 28.08,-3.34 4.59,-0.46 9.04,0.43 13.36,0 3.28,-0.32 7.11,-2.64 10.69,-2.67 3.01,-0.03 6.67,2.17 10.71,2.67 5.44,0.64 11.48,-0.55 16.04,0 3.06,0.38 6.23,2.61 8.69,2.67 3.06,0.09 5.59,-2.21 8.69,-2.67 12.38,-1.88 22.62,-1.25 34.76,-0.67 11.32,0.55 24.14,2.17 36.1,0.67 4.21,-0.52 8.36,-3.4 12.71,-4 9.46,-1.36 19.01,1.48 28.74,0 3.15,-0.49 6.16,-2.84 9.36,-3.34 7.46,-1.16 14.97,1.02 22.07,0 15.71,-2.26 29.03,-11.4 43.45,-11.37z"/>
   <g>
    <path class="fil0" d="M1137.44 3087.45c20.31,-3.42 24.33,32.85 27.41,52.84 1.03,6.67 5.34,15.5 6.69,22.72 1.95,10.47 1.01,17 6.02,19.38 9.05,4.29 30.61,0.67 39.45,0.67 13.28,0 28.27,-1.48 40.09,0 4.17,0.53 8.26,3.39 12.71,4 4.44,0.64 9.24,-0.67 14.05,0 7.7,1.07 15.27,5.45 23.38,6.7 16.79,2.55 34.02,0.7 49.47,4 6.09,1.3 14.65,7.78 20.72,10.71 12.77,6.15 27.33,7.75 38.12,14.71 5.39,3.48 10.01,11.69 16.71,16.01 4.96,3.25 11.4,4.06 14.71,7.37 1.88,1.91 4.9,9.66 6.67,12.7 3.05,5.2 7.49,9.63 9.34,15.38 6.24,18.98 10.04,56.23 -8.68,62.81 -5.83,2.07 -18.78,0.76 -21.38,-2 -3.02,-3.17 -1.28,-7.75 -2.67,-14.71 -1.71,-8.42 -9.92,-20.08 -13.38,-31.43 -1.07,-3.45 -0.32,-7.28 -1.34,-10.01 -1.82,-4.84 -8.9,-7.6 -14.04,-11.37 -4.87,-3.54 -7.55,-8.5 -12.04,-10.68 -6.82,-3.34 -16.17,-3.86 -23.39,-8.03 -9.05,-5.23 -14.86,-14.63 -24.08,-17.38 -12.15,-3.63 -28.29,1.54 -42.12,-0.67 -11.43,-1.82 -20.66,-12.33 -30.07,-14.04 -4.76,-0.84 -12.11,0.84 -16.71,0 -5.18,-0.93 -9.62,-5.43 -14.71,-6.68 -3.04,-0.75 -6.66,-0.09 -10.02,-0.67 -7.75,-1.33 -14.64,-5.1 -20.73,-4.7 -4.29,0.28 -7.54,3.89 -12.02,4.7 -2.83,0.49 -6.89,-0.4 -10.69,0 -13.8,1.48 -31.44,6.56 -42.78,3.34 -5.44,-1.54 -13.32,-8.56 -14.05,-13.38 -0.94,-6.21 3.86,-12.42 2.67,-20.72 -0.78,-5.54 -6.27,-11.34 -7.36,-18.05 -1.59,-9.89 1.51,-21.21 0,-32.09 -0.56,-4.12 -3.42,-8.19 -3.33,-12.71 0.17,-9.46 10.86,-27.65 17.38,-28.75z"/>
   </g>
  </g>
 </g>
</svg>
