<?xml version="1.0" encoding="UTF-8"?>
<!DOCTYPE svg PUBLIC "-//W3C//DTD SVG 1.1//EN" "http://www.w3.org/Graphics/SVG/1.1/DTD/svg11.dtd">
<!-- Creator: CorelDRAW 2018 (64-Bit) -->
<svg xmlns="http://www.w3.org/2000/svg" xml:space="preserve" width="19.0135mm" height="10.1274mm" version="1.1" style="shape-rendering:geometricPrecision; text-rendering:geometricPrecision; image-rendering:optimizeQuality; fill-rule:evenodd; clip-rule:evenodd"
viewBox="0 0 231.6 123.36"
 xmlns:xlink="http://www.w3.org/1999/xlink">
 <defs>
  <style type="text/css">
   <![CDATA[
    .fil0 {fill:black}
   ]]>
  </style>
 </defs>
 <g id="РЎР_x00bb_РѕР_x2116__x0020_1">
  <metadata id="CorelCorpID_0Corel-Layer"/>
  <g id="_2714214021360">
   <path class="fil0" d="M39.9 0.18c0.47,-0.08 1.94,-0.36 3.19,0 1.19,0.34 2.09,1.67 3.49,2.28 1.31,0.57 2.9,0.54 3.94,1.06 1.26,0.62 4.73,4.12 5.16,5.46 0.45,1.43 0.47,4.26 0.15,5.77 -0.3,1.39 -2.69,4.75 -4.25,5.61 -5.37,2.95 -8.51,-1.24 -14.26,-2.12 -3.38,-0.52 -5.19,0.99 -7.43,2.12 -3.31,1.66 -5.56,2.33 -6.37,6.82 -0.94,5.2 1.8,6.15 5.47,6.98 5.54,1.26 14.17,4.56 17.44,8.8 0.43,0.56 0.62,1.25 1.06,1.82 0.86,1.11 2.02,1.9 2.43,2.73 1.27,2.59 2.14,6.48 2.73,9.86 0.28,1.63 1.17,3.76 0.76,6.53 -0.2,1.33 -1.32,2.83 -1.51,4.55 -0.12,0.98 0.38,1.86 0.3,2.58 -0.07,0.54 -0.79,1.25 -1.07,2.12 -0.22,0.7 -0.13,1.5 -0.3,1.98 -0.61,1.65 -2.55,3.44 -3.64,5.61 -0.26,0.54 -0.18,1.28 -0.45,1.82 -1.05,2.02 -3.24,3.22 -4.55,4.55 -0.92,0.94 -1.38,2.5 -2.13,3.19 -0.94,0.86 -2.3,1.18 -3.33,1.82 -2.56,1.59 -3.83,3.81 -6.68,4.55 -1.61,0.42 -4.27,0.48 -6.37,0.15 -2.24,-0.35 -3.92,-2 -6.06,-2.43 -1.07,-0.21 -2.2,0.12 -3.34,-0.15 -3.51,-0.85 -8.13,-3.88 -9.56,-6.83 -0.26,-0.53 -0.39,-1.46 -0.76,-2.28 -0.45,-0.99 -1.51,-1.96 -1.82,-2.88 -0.19,-0.58 -0.1,-1.44 -0.3,-2.12 -0.59,-2.01 -1.86,-3.96 -1.82,-5.92 0.05,-2.64 1.92,-5.39 3.04,-7.43 0.51,-0.95 1.32,-2.3 1.82,-2.58 1.89,-1.08 6.43,-0.17 7.59,0.91 1.48,1.39 2.05,4.1 3.64,5.92 0.51,0.58 1.51,0.76 2.13,1.37 1.5,1.47 1.73,3.01 3.94,3.64 0.74,0.21 1.66,-0.01 2.57,0.15 1.63,0.29 4.85,1.43 7.74,0.61 1.78,-0.5 4.5,-4.53 5.01,-5.92 2.53,-6.96 -0.8,-12.82 -6.07,-15.02 -2.07,-0.86 -4.62,-1.24 -6.98,-2.12 -0.79,-0.3 -1.36,-0.92 -2.12,-1.21 -3.79,-1.45 -7.97,-2.08 -10.17,-5.31 -0.43,-0.64 -0.75,-1.64 -1.21,-2.43 -1.88,-3.22 -4.14,-8.2 -3.19,-14.41 0.63,-4.14 2.78,-7.61 4.25,-10.92 2.36,-5.34 5.83,-8.99 10.47,-12.44 2.01,-1.5 3.13,-2.3 5.46,-3.19 2.23,-0.85 4.5,-2.51 6.68,-2.88 0.88,-0.15 1.8,0.11 2.58,0 0.95,-0.13 1.79,-0.6 2.73,-0.76z"/>
  </g>
  <g id="_2714214024592">
   <path class="fil0" d="M69.03 7.46c2.17,-0.42 4.78,0.49 6.53,0.76 2.53,0.39 5.33,-0.42 8.19,0 0.73,0.1 1.53,0.66 2.28,0.76 1.28,0.19 2.65,-0.17 3.94,0 0.79,0.11 1.47,0.63 2.27,0.76 4.72,0.73 9.24,-0.46 12.9,0 1.74,0.22 3.18,1.19 5,0.91 1.92,-0.29 2.86,-2.05 4.55,-2.43 3.54,-0.79 6.55,1.88 6.68,4.4 0.03,0.72 -0.58,3.16 -0.91,4.25 -0.68,2.22 -2.94,5.58 -4.4,7.74 -2,2.94 -3.54,4.62 -8.34,4.25 -2.25,-0.17 -10.4,-0.77 -11.68,0.45 -0.58,0.56 -0.26,1.8 -0.61,3.49 -0.23,1.12 -0.97,2.1 -1.06,2.88 -0.23,1.96 -0.18,3.97 -0.45,6.07 -0.11,0.83 -0.59,1.59 -0.76,2.43 -0.19,0.95 -0.01,1.96 -0.15,2.88 -0.46,3.01 -2.12,5.71 -2.42,8.34 -0.17,1.48 0.22,3.5 0,4.7 -0.16,0.88 -1.27,2.13 -1.52,3.49 -0.22,1.26 0.1,2.62 0,3.79 -0.23,2.7 -1.26,5.08 -1.67,7.74 -0.16,1 0.13,2.12 0,3.18 -0.11,0.85 -0.63,1.54 -0.76,2.43 -0.21,1.44 0.22,3.03 0,4.71 -0.24,1.86 -1.34,3.69 -1.67,5.92 -0.13,0.84 0.16,1.81 0,2.73 -0.63,3.66 -4.12,10.54 -6.83,10.77 -2.39,0.2 -5.22,-2.86 -5.61,-4.85 -0.49,-2.45 -0.42,-6.69 0,-9.71 0.1,-0.71 0.61,-1.34 0.76,-2.13 0.63,-3.3 0.34,-7.17 0.76,-10.47 0.11,-0.8 0.6,-1.48 0.76,-2.28 0.2,-0.98 -0.03,-2.07 0.15,-3.04 0.27,-1.52 1.28,-2.9 1.52,-4.4 0.14,-0.89 -0.14,-1.84 0,-2.73 0.26,-1.56 1.43,-3.16 1.67,-4.7 0.51,-3.26 -0.27,-6.69 0.16,-9.71 0.29,-2.09 1.89,-4.1 2.27,-6.37 0.12,-0.69 -0.12,-1.46 0,-2.12 0.26,-1.36 1.33,-2.61 1.36,-3.94 0.05,-1.46 -0.93,-3.71 -0.61,-6.07 0.18,-1.26 1.29,-2.54 0.61,-4.1 -0.54,-1.24 -2.03,-0.77 -4.1,-1.06 -0.97,-0.14 -1.22,-0.61 -2.12,-0.76 -4.14,-0.66 -8.07,0.36 -10.92,-1.06 -0.93,-0.46 -3.29,-2.55 -3.64,-3.94 -1.39,-5.56 1.94,-9.07 4.1,-11.23 1.12,-1.12 2.24,-2.43 3.79,-2.73z"/>
  </g>
  <path class="fil0" d="M147.77 18.08c0.9,-0.14 1.83,0.51 3.04,0.61 1.77,0.14 3.46,-0.62 4.7,0.15 0.95,0.59 1.02,2.1 1.82,2.88 1.58,1.54 3.18,1.28 5.31,1.97 2.22,0.73 3.74,2.77 5.16,4.71 0.99,1.35 2.66,2.26 3.49,3.49 1.84,2.71 2.71,7.42 3.64,11.23 0.36,1.47 1.31,3.07 1.51,4.4 0.3,1.95 -0.27,4.48 0,6.52 0.09,0.67 0.59,1.42 0.61,1.97 0.01,0.64 -0.5,1.37 -0.61,2.12 -0.32,2.27 0.36,5.09 0,7.89 -0.26,2.04 -1.1,3.06 -0.76,5.15 0.24,1.43 1.12,2.87 0.76,5.46 -0.45,3.24 -1.76,6.07 -2.57,9.56 -1.14,4.89 -4.64,8.16 -6.22,12.44 -0.51,1.39 -0.55,2.78 -1.06,3.94 -0.27,0.61 -1.03,1.08 -1.37,1.82 -1.09,2.4 -1.84,4.76 -3.18,5.92 -1.92,1.65 -5.71,2.79 -8.65,3.64 -3.92,1.13 -6.55,4.72 -10.31,5.46 -0.97,0.19 -2,-0.14 -2.88,0 -2.17,0.33 -3.17,1.02 -5,0.76 -0.72,-0.1 -1.39,-0.63 -2.28,-0.76 -2.66,-0.39 -4.75,-0.07 -6.68,-1.06 -0.91,-0.47 -1.74,-1.97 -2.88,-2.73 -0.96,-0.64 -2.16,-0.84 -2.88,-1.37 -1.56,-1.14 -3.35,-3.96 -4.86,-6.22 -1.52,-2.29 -3.37,-4.64 -4.1,-6.98 -0.76,-2.44 -0.64,-4.22 -1.06,-7.28 -0.48,-3.45 -2.07,-6.28 -1.52,-11.38 0.39,-3.58 -0.1,-8.46 0.76,-12.59 0.28,-1.33 1.18,-2.5 1.51,-3.95 0.18,-0.74 -0.01,-1.61 0.15,-2.43 0.27,-1.4 1.26,-2.77 1.52,-4.25 0.24,-1.4 -0.24,-2.93 0,-4.4 0.19,-1.19 1.72,-2.97 2.27,-4.86 0.2,-0.69 0.14,-1.45 0.3,-1.97 0.26,-0.83 1,-1.31 1.37,-2.12 1.08,-2.34 1.46,-4.58 2.88,-6.68 0.63,-0.91 1.81,-1.5 2.58,-2.58 0.93,-1.29 1.49,-2.86 2.43,-4.1 0.88,-1.16 2.2,-2.01 3.19,-3.04 1.72,-1.79 3.31,-5.19 5.46,-6.37 0.41,-0.22 1.08,-0.2 1.67,-0.45 0.8,-0.35 1.43,-1.13 2.13,-1.37 0.59,-0.2 1.35,-0.13 1.98,-0.3 1.15,-0.32 2.08,-1.16 2.88,-1.37 1,-0.26 1.87,-0.01 2.58,-0.15 1.05,-0.21 1.76,-1.13 3.19,-1.37zm-4.1 18.66c1.63,-0.15 3.32,0.95 5.46,1.67 5.43,1.83 7.74,2.4 9.71,7.74 1.15,3.1 2.54,6.34 3.34,10.02 0.31,1.45 -0.07,2.99 0.15,4.55 0.12,0.88 0.65,1.56 0.76,2.28 0.37,2.41 -0.42,3.92 -0.76,6.22 -0.2,1.33 0.18,2.54 0,3.94 -0.11,0.86 -0.76,1.77 -0.91,2.88 -0.38,2.74 -0.15,4.36 -1.06,6.68 -1.88,4.79 -5.01,11.05 -8.8,13.5 -1.05,0.68 -2.56,1.11 -3.79,1.82 -2.52,1.44 -4.19,2.68 -7.59,3.18 -3.19,0.47 -5.95,-1.35 -8.04,-2.73 -3.08,-2.03 -5.32,-4.72 -6.83,-8.8 -0.49,-1.33 -1.37,-2.29 -1.51,-3.18 -0.49,-2.97 -0.38,-6.78 0,-9.56 0.3,-2.22 1.18,-4.33 1.21,-6.52 0.01,-0.85 -0.38,-1.72 -0.3,-2.58 0.17,-1.96 1.42,-5.16 2.42,-7.89 1,-2.7 2.54,-5.9 3.49,-8.35 0.51,-1.32 1.11,-2.59 1.82,-3.64 1.72,-2.54 3.1,-5.55 5.31,-7.74 0.55,-0.54 1.56,-0.86 2.43,-1.52 1.42,-1.08 1.26,-1.77 3.49,-1.97z"/>
  <path class="fil0" d="M195.25 29.31c3.73,-0.67 10.73,-0.6 14.26,-0.15 0.93,0.12 1.8,0.76 2.73,0.91 0.72,0.11 1.46,-0.14 2.12,0 0.68,0.14 1.51,0.96 2.58,1.36 3.07,1.17 4.92,2.11 7.43,4.1 2.79,2.21 4.57,5.78 5.46,9.86 0.64,2.89 2.4,5.61 1.52,9.86 -1.33,6.45 -3.87,12.77 -7.74,17.29 -2.36,2.75 -4.01,5.83 -6.07,7.59 -1.65,1.41 -4.83,3 -7.43,4.55 -2.59,1.54 -6.1,3.29 -9.55,3.95 -0.61,0.11 -1.32,-0.1 -1.98,0 -1.04,0.15 -1.96,0.82 -2.88,0.91 -1.42,0.14 -2.79,-0.58 -3.94,-0.3 -2.19,0.52 -1.96,6.02 -2.42,9.41 -0.14,1.01 -0.66,1.6 -0.76,2.28 -0.28,1.83 -0.22,4.91 0,6.52 0.15,1.11 0.72,1.69 0.76,2.73 0.04,1.25 -1.07,5.44 -1.67,6.83 -0.26,0.6 -1.01,1.11 -1.36,1.82 -0.39,0.81 -0.34,1.71 -0.61,2.13 -3.11,4.93 -11.21,1.87 -10.47,-5.16 0.07,-0.67 0.58,-1.34 0.61,-2.12 0.02,-0.55 -0.44,-1.16 -0.45,-1.67 -0.03,-1.37 0.48,-3.08 0.61,-4.55 0.28,-3.27 0.38,-5.04 0.91,-8.34 0.28,-1.75 1.22,-3.37 1.51,-5.16 0.13,-0.77 -0.1,-1.62 0,-2.43 0.28,-2.17 1.31,-4.36 1.67,-6.67 0.13,-0.85 -0.13,-1.73 0,-2.58 0.22,-1.41 1.18,-2.72 1.52,-4.25 0.22,-1.02 -0.02,-2.11 0.15,-3.19 0.32,-2.02 1.2,-4.01 1.51,-6.07 0.15,-1 -0.12,-2.04 0,-3.04 0.1,-0.8 0.58,-1.58 0.76,-2.43 0.24,-1.13 -0.04,-2.35 0.15,-3.34 0.22,-1.08 1.34,-2.2 1.52,-3.19 0.29,-1.63 -0.2,-3.27 0,-4.86 0.28,-2.19 1.38,-4 1.67,-5.92 0.31,-1.99 -0.73,-3.67 -0.76,-5.61 -0.01,-1.44 1.06,-4.51 1.82,-5.92 1.25,-2.31 4.52,-4.74 6.82,-5.16zm6.98 17.45c0.67,-0.07 1.31,0.44 2.28,0.61 0.71,0.12 1.48,-0.12 2.12,0 0.85,0.16 1.89,0.99 2.88,1.37 2.15,0.81 3.9,1.72 5.16,3.64 1.39,2.11 3.27,5.19 2.58,8.65 -0.23,1.16 -2.48,4.55 -3.49,5.46 -1.19,1.08 -3.9,2.92 -5.31,3.19 -0.61,0.12 -1.41,-0.12 -2.13,0 -2.15,0.37 -4.42,2.24 -6.52,2.28 -1.02,0.02 -3.66,-0.83 -3.94,-1.22 -1.04,-1.38 0.43,-5.42 0.76,-7.43 0.22,-1.4 -0.24,-3 0,-4.85 0.1,-0.76 0.57,-1.42 0.76,-2.27 0.53,-2.5 0.14,-6.2 1.21,-7.89 0.45,-0.71 2.63,-1.42 3.64,-1.52z"/>
 </g>
</svg>
